<?xml version="1.0" encoding="UTF-8" standalone="no"?>
<!-- Created with Inkscape (http://www.inkscape.org/) -->

<svg
   xmlns:dc="http://purl.org/dc/elements/1.1/"
   xmlns:cc="http://creativecommons.org/ns#"
   xmlns:rdf="http://www.w3.org/1999/02/22-rdf-syntax-ns#"
   xmlns:svg="http://www.w3.org/2000/svg"
   xmlns="http://www.w3.org/2000/svg"
   xmlns:sodipodi="http://sodipodi.sourceforge.net/DTD/sodipodi-0.dtd"
   xmlns:inkscape="http://www.inkscape.org/namespaces/inkscape"
   version="1.0"
   width="260.74902"
   height="266.504"
   id="svg2"
   inkscape:version="0.91 r13725"
   sodipodi:docname="deciduous_tree_2.svg">
  <metadata
     id="metadata4148">
    <rdf:RDF>
      <cc:Work
         rdf:about="">
        <dc:format>image/svg+xml</dc:format>
        <dc:type
           rdf:resource="http://purl.org/dc/dcmitype/StillImage" />
        <dc:title></dc:title>
      </cc:Work>
    </rdf:RDF>
  </metadata>
  <sodipodi:namedview
     pagecolor="#ffffff"
     bordercolor="#666666"
     borderopacity="1"
     objecttolerance="10"
     gridtolerance="10"
     guidetolerance="10"
     inkscape:pageopacity="0"
     inkscape:pageshadow="2"
     inkscape:window-width="1600"
     inkscape:window-height="881"
     id="namedview4146"
     showgrid="false"
     fit-margin-top="0"
     fit-margin-left="0"
     fit-margin-right="0"
     fit-margin-bottom="0"
     inkscape:zoom="0.95794375"
     inkscape:cx="74.674785"
     inkscape:cy="60.571795"
     inkscape:window-x="0"
     inkscape:window-y="19"
     inkscape:window-maximized="0"
     inkscape:current-layer="svg2" />
  <defs
     id="defs4" />
  <path
     inkscape:connector-curvature="0"
     id="path2251"
     style="fill:#000000"
     d="m 87.76691,262.19752 c 3.82916,-13.41236 5.47659,-27.89195 4.27123,-37.5397 -1.10514,-8.84518 -2.25872,-11.23129 -6.32566,-13.08431 -2.84548,-1.29648 -4.53089,-3.421 -3.93857,-4.96465 0.76443,-1.99209 -0.29461,-2.36451 -4.04633,-1.42288 -2.795,0.7015 -4.93818,0.48523 -4.76259,-0.48057 0.75874,-4.17352 -0.44257,-4.77091 -4.71003,-2.34217 -2.50269,1.42437 -5.46044,2.65871 -6.57272,2.743 -1.11228,0.0843 -5.54626,1.68111 -9.85322,3.54851 -9.62507,4.17318 -10.23417,4.18115 -13.55722,0.17712 -2.36166,-2.8456 -1.96175,-3.1064 3.45451,-2.25278 4.63124,0.72988 6.75112,-0.0366 8.69058,-3.14217 2.24471,-3.59436 2.13249,-3.94148 -0.89831,-2.77848 -3.00114,1.15166 -3.28563,0.38088 -2.13097,-5.77388 0.73285,-3.90663 0.60015,-7.10296 -0.29501,-7.10296 -1.99371,0 -7.66812,8.51666 -7.0741,10.61743 0.23586,0.83423 -0.98993,1.51678 -2.72403,1.51678 -1.7341,0 -2.59048,0.91007 -1.90304,2.02237 0.68743,1.1123 -0.54809,2.02237 -2.74564,2.02237 -2.19755,0 -4.35981,1.09276 -4.80502,2.42836 -0.59695,1.79082 -1.18387,1.82248 -2.23576,0.12055 -0.78446,-1.26928 0.48252,-4.08614 2.81553,-6.25966 2.40966,-2.24488 3.38136,-4.48363 2.24972,-5.18302 -2.41231,-1.49089 -8.45511,0.62038 -12.10784,4.23029 -3.87148,3.82613 -6.32504,3.2601 -8.27541,-1.90922 -1.42575,-3.77886 -0.76251,-5.06464 3.91206,-7.58388 4.06896,-2.19288 4.98314,-3.594 3.2988,-5.05593 -1.28157,-1.1123 -3.24016,-2.07312 -4.3525,-2.13515 C 9.57335,182.41367 0,179.2853 0,178.31724 c 0,-0.51502 1.39046,-2.32687 3.08994,-4.02634 2.46521,-2.46523 3.69179,-2.5904 6.06712,-0.61909 1.63741,1.35895 2.97717,1.79293 2.97717,0.96439 0,-0.82854 1.53976,-0.25743 3.42176,1.26915 2.9528,2.39522 3.16924,2.35986 1.57916,-0.25797 -1.01345,-1.66845 -1.55372,-5.26688 -1.20058,-7.9965 0.57815,-4.46935 0.29873,-4.67808 -2.80923,-2.09871 -3.00677,2.49541 -3.77727,2.41833 -5.98326,-0.59856 C 5.74942,163.04906 3.57275,161.4908 2.30498,161.4908 1.03726,161.4908 0,159.5733 0,157.22969 c 0,-2.95678 0.92858,-3.90478 3.03355,-3.09702 1.66842,0.64025 3.03356,0.28258 3.03356,-0.79482 0,-2.864 5.55375,-2.39578 6.75011,0.56907 0.56103,1.39038 1.0919,0.0253 1.1797,-3.03356 0.0878,-3.05883 -0.75041,-5.56151 -1.86269,-5.56151 -1.11234,0 -2.02241,-1.3651 -2.02241,-3.03355 0,-1.68531 1.79769,-3.03356 4.04476,-3.03356 3.08168,0 4.04471,-1.34824 4.04471,-5.66263 0,-3.11445 0.93781,-6.60045 2.08403,-7.74665 2.74918,-2.74916 -0.21087,-9.84796 -4.10639,-9.84796 -1.66842,0 -4.27944,1.18092 -5.80227,2.62426 -3.43071,3.25174 -4.2262,2.50701 -5.20854,-4.87632 -0.4272,-3.21058 -1.36204,-7.31259 -2.07744,-9.11559 -0.80045,-2.01724 -0.0892,-3.74309 1.84901,-4.48686 3.743,-1.436335 4.09451,-5.649035 0.75036,-8.993195 -3.00323,-3.00321 -4.21664,-10.407149 -2.37809,-14.509979 1.6611,-3.70669 2.16468,-5.39403 2.50235,-8.38436 0.13901,-1.23131 1.70213,-1.68259 3.47348,-1.00284 2.1411,0.8216 3.57164,-0.10606 4.26757,-2.76735 0.68434,-2.61693 3.43803,-4.45183 7.95181,-5.29862 3.7977,-0.71246 8.06094,-2.94582 9.47386,-4.96303 1.41291,-2.01721 5.03092,-4.28557 8.04,-5.04081 3.00907,-0.75523 5.47107,-2.18456 5.47107,-3.17628 0,-0.99172 1.36508,-1.80313 3.03356,-1.80313 1.66848,0 3.03356,0.91007 3.03356,2.02237 0,1.1123 0.91007,2.02237 2.02235,2.02237 1.11234,0 2.02241,-1.8028 2.02241,-4.00621 0,-2.56028 1.78081,-4.45316 4.93412,-5.24459 4.34085,-1.08949 4.69866,-1.85765 2.97605,-6.38848 -1.5136,-3.9811 -1.18274,-6.00679 1.45765,-8.92438 1.87862,-2.07587 3.81178,-3.3782 4.29594,-2.89407 0.4841,0.48413 4.00598,-0.8754 7.82631,-3.02115 3.82032,-2.14577 8.79227,-3.90139 11.04868,-3.90139 2.61733,0 3.57321,-0.85657 2.64029,-2.36605 -1.00834,-1.6314598 -0.31989,-1.9276498 2.21741,-0.95401 2.42744,0.9315 5.24411,-0.0576 8.27665,-2.9066028 2.52835,-2.37524 5.79963,-3.89093 7.2695,-3.3682 1.46987,0.52273 4.94769,-0.16721 7.72844,-1.53321 6.28103,-3.08543996 17.69012,-3.46943996 19.43018,-0.65397 0.84243,1.36312 1.97525,1.1375 3.22265,-0.64186 1.1169,-1.59324996 2.29677,-1.89580996 2.81363,-0.72149996 2.39311,5.43740996 4.62898,7.30857996 9.09577,7.61214996 2.6807,0.18217 5.95045,1.375613 7.26618,2.6520628 1.31572,1.27646 5.95405,2.89038 10.30733,3.5865 9.82604,1.57125 25.10875,14.7263 20.49834,17.64461 -1.57427,0.99651 -2.11482,1.82577 -1.20115,1.8428 0.91368,0.017 0.17267,1.51957 -1.64675,3.33899 -1.81941,1.8194 -2.56695,4.01 -1.66127,4.86798 2.7641,2.61834 17.57446,5.99016 18.74736,4.26813 0.60543,-0.88887 2.7561,-2.2278 4.77924,-2.9754 2.95702,-1.09266 3.55205,-0.46873 3.03356,3.18107 -0.35466,2.49718 -1.55496,4.39972 -2.6673,4.22786 -3.1904,-0.49295 -5.10442,4.08387 -2.4212,5.78964 3.71138,2.35938 5.45476,1.90156 5.45476,-1.43243 0,-1.66845 1.44511,-3.03355 3.21134,-3.03355 2.65509,0 2.96248,1.48864 1.77467,8.59507 -1.48788,8.90168 -4.17026,12.25568 -8.52517,10.65966 -3.85843,-1.41407 -3.01341,2.50587 1.51681,7.03606 4.61666,4.61666 5.11534,8.232269 1.61788,11.729739 -1.71688,1.71688 -1.75914,2.42685 -0.14447,2.42685 1.25534,0 3.68003,-1.3976 5.38818,-3.10578 2.7928,-2.7928 3.57163,-2.63995 7.72833,1.51677 2.54242,2.54241 5.34276,4.38251 6.22289,4.08911 0.88019,-0.29339 1.3863,3.09457 1.12467,7.528815 -0.5683,9.63122 1.14661,11.90735 6.46764,8.58431 2.73427,-1.70759 3.95275,-1.78149 3.95275,-0.2397 0,1.22586 -1.70736,2.67532 -3.79416,3.22103 -2.08679,0.54571 -4.97036,3.18996 -6.40793,5.87613 -2.19434,4.10009 -3.93857,4.80304 -10.86803,4.37998 -6.21282,-0.37931 -8.2542,0.2463 -8.2542,2.52961 0,2.07823 2.06985,3.0274 6.57266,3.014 3.61503,-0.0108 6.57272,0.57314 6.57272,1.29754 0,0.7244 2.27516,1.88812 5.05591,2.58604 2.78076,0.69792 5.05597,2.13916 5.05597,3.20274 0,1.22011 1.91447,1.2059 5.18755,-0.0385 6.84865,-2.60385 6.73654,-2.65692 5.44749,2.57803 -0.61625,2.50268 -0.42271,3.91111 0.43013,3.12985 2.51513,-2.30416 7.34154,3.94642 6.90735,8.94565 -0.91412,10.52577 0.15662,13.7097 4.61058,13.7097 7.23416,0 2.54647,2.39047 -5.76524,2.93997 -10.34385,0.68385 -12.79263,1.49108 -17.15497,5.6551 -2.03918,1.94653 -5.07273,3.53914 -6.74121,3.53914 -1.66848,0 -3.09124,1.13758 -3.16176,2.52796 -0.0705,1.39038 -0.91142,0.58796 -1.86871,-1.78317 -1.92995,-4.78036 -14.11804,-7.42625 -21.26034,-4.61537 -2.22457,0.87551 -2.90716,1.64952 -1.51676,1.72002 1.39035,0.0705 2.52796,1.94833 2.52796,4.17293 0,2.22461 0.92741,4.04474 2.0609,4.04474 1.18545,0 1.56076,-2.36253 0.88351,-5.56152 -0.98126,-4.63538 -0.80258,-4.97215 1.07317,-2.02236 1.23778,1.94653 3.62408,3.53914 5.30292,3.53914 1.67883,0 2.49098,0.90847 1.80472,2.01882 -0.68625,1.11036 0.17013,4.04305 1.90304,6.51709 3.77936,5.39584 4.09823,8.46736 0.65829,6.34137 -3.45632,-2.13615 -10.2479,-2.53632 -12.67535,-0.74686 -4.66832,3.44132 -12.72638,4.03512 -13.88228,1.02295 -0.63724,-1.66053 -0.25972,-3.01915 0.83888,-3.01915 2.32693,0 0.18347,-10.52438 -2.50426,-12.29591 -0.97873,-0.64508 -1.19625,-2.69273 -0.48343,-4.55033 0.95797,-2.49646 0.18454,-3.37745 -2.96507,-3.37745 -2.34359,0 -4.26109,0.96377 -4.26109,2.14172 0,1.17795 0.91007,1.57927 2.02235,0.89183 4.00818,-2.47718 1.92212,4.6292 -2.15382,7.33721 -4.91566,3.26593 -3.47573,9.85293 2.15382,9.85293 1.98662,0 4.18276,1.48739 4.88038,3.30531 1.08223,2.82019 0.0751,3.14525 -6.86193,2.2148 -9.66199,-1.29593 -10.50487,0.53089 -1.98499,4.30218 4.97746,2.20322 5.6931,3.26512 3.76563,5.58753 -1.86905,2.25213 -1.56043,3.80068 1.43858,7.21708 3.44911,3.92918 3.47607,4.22496 0.27914,3.0591 -2.34995,-0.85696 -3.53916,-0.29263 -3.53916,1.67943 0,1.63356 -0.91008,2.9701 -2.02236,2.9701 -1.11233,0 -2.02241,-0.82486 -2.02241,-1.83304 0,-1.00817 -1.93517,-1.32695 -4.30049,-0.70843 -2.78008,0.72702 -4.96057,-0.0549 -6.16757,-2.21171 -2.47989,-4.43129 -5.71087,-4.24917 -5.71087,0.3219 0,2.01202 -1.43262,5.42477 -3.18365,7.58389 -3.10081,3.82353 -3.15805,3.80604 -2.19913,-0.67272 0.59689,-2.78802 0.0589,-4.48513 -1.36665,-4.3107 -5.79783,0.70937 -9.42951,-0.40294 -9.42951,-2.88805 0,-1.48308 -1.13761,-2.8197 -2.52796,-2.97029 -5.92332,-0.64153 -16.75567,-1.9966 -17.59461,-2.20098 -0.50054,-0.12195 0.18201,-1.3138 1.51675,-2.64856 3.33589,-3.33586 3.04937,-7.685 -0.50622,-7.685 -1.61315,0 -3.86068,-1.59261 -4.9944,-3.53915 -1.94294,-3.33577 -2.0649,-3.32795 -2.12286,0.13629 -0.0459,2.74603 -1.08426,3.3508 -4.10622,2.39167 -2.58221,-0.81954 -4.04476,-0.36341 -4.04476,1.26144 0,1.41848 -1.31443,0.80739 -2.96924,-1.38049 -5.35221,-7.07627 -3.61305,1.56432 2.91802,14.49717 5.21462,10.32605 6.09002,14.47157 6.57266,31.12519 l 0.55688,19.21251 -14.92259,0.59942 c -14.71593,0.59114 -14.90424,0.53514 -13.59673,-4.04471 z m 86.10632,-55.05168 c -2.72026,-2.72023 -4.74334,0.0351 -3.12411,4.2547 1.16186,3.02771 1.64754,3.12029 3.19918,0.60971 1.10345,-1.78541 1.07368,-3.71566 -0.0751,-4.86441 z m -11.94891,3.10001 c 2.82049,4.56362 4.47107,0.37361 2.98128,-7.56787 -0.92634,-4.93775 -1.96951,-6.63978 -3.02388,-4.93379 -0.98751,1.59785 -3.27043,2.07734 -5.90684,1.24056 -4.96755,-1.57664 -5.6972,1.2963 -1.26366,4.9758 1.66847,1.38469 3.10537,3.99881 3.19322,5.80913 0.11767,2.42594 0.44797,2.56655 1.25595,0.53474 0.90963,-2.28722 1.38039,-2.29719 2.76393,-0.0586 z m -11.89825,-6.72349 c -1.45119,-1.45117 -2.39317,-1.57057 -2.39317,-0.30335 0,2.69941 2.3917,5.09109 3.74142,3.74138 0.57466,-0.57468 -0.032,-2.12179 -1.34825,-3.43803 z m -8.96584,1.06648 c -1.94654,-0.50867 -3.53916,-2.75411 -3.53916,-4.98985 0,-5.39718 -4.86495,-3.69767 -5.70215,1.99201 -0.55799,3.7919 0.27093,4.35986 6.06712,4.15732 3.69229,-0.12902 5.12068,-0.6508 3.17419,-1.15948 z M 66.73815,193.44146 c 0,-0.86288 -1.47741,-3.29436 -3.28309,-5.40329 -3.03255,-3.54173 -3.57276,-3.58636 -7.07827,-0.58484 -4.72825,4.04846 -4.79517,5.86117 -0.25606,6.93985 5.36927,1.27598 10.61742,0.80554 10.61742,-0.95172 z m -35.39621,-5.32755 c -1.44629,-1.44632 -7.07354,1.4702 -7.07354,3.66609 0,1.33105 1.45096,1.19684 3.95281,-0.36556 2.17402,-1.3577 3.57832,-2.84295 3.12073,-3.30053 z m 128.80439,4.35329 c -1.45991,-0.5842 -3.20419,-0.51236 -3.87621,0.15965 -0.67202,0.67203 0.52243,1.15 2.65436,1.06219 2.35597,-0.097 2.83517,-0.57626 1.22185,-1.22184 z m 10.95149,-5.69633 c -2.11043,-1.59744 -4.83142,-2.28992 -6.04674,-1.53881 -1.27549,0.7883 -0.0809,1.95814 2.82594,2.76716 7.29258,2.0298 7.44723,1.97082 3.2208,-1.22835 z m -118.8533,-5.19852 c 2.66792,-0.11251 2.52734,-0.48627 -0.6741,-1.79275 -4.77441,-1.94837 -8.21457,0.48265 -5.92512,4.18702 1.2102,1.95812 1.81063,2.00186 2.41917,0.17623 0.44521,-1.3356 2.32619,-2.49232 4.18005,-2.5705 z m 25.06491,-3.07737 c -0.70612,-3.694 -1.48495,-4.46051 -2.63742,-2.59579 -0.90337,1.46166 -0.67106,3.80801 0.51894,5.24188 3.00998,3.62677 3.25834,3.31656 2.11848,-2.64609 z m 94.57127,-3.84603 c 2.26148,-1.39766 1.66437,-8.22197 -0.9256,-10.57807 -0.95116,-0.86527 -0.95155,-0.20839 -9.6e-4,1.46466 1.46813,2.58393 1.23215,2.63518 -1.59227,0.34584 -2.42126,-1.96261 -4.29926,-2.1156 -6.96087,-0.56709 -2.0048,1.16634 -2.50747,2.1483 -1.11707,2.18212 3.95275,0.0962 2.9631,6.1248 -1.0112,6.15957 -2.86844,0.0251 -2.99692,0.37419 -0.67798,1.84208 2.87992,1.82295 8.60238,1.42746 12.28595,-0.84911 z m -71.75045,-8.73065 c -1.13395,-2.91996 -1.72132,-2.68372 -4.04285,1.62602 -2.01363,3.73812 -2.11408,5.41443 -0.38843,6.48097 3.0523,1.88641 6.12733,-3.7394 4.43128,-8.10699 z m 25.25659,5.82063 c 0,-3.5305 6.63345,-7.65652 10.61748,-6.60408 2.79005,0.73705 1.55654,-7.16052 -1.5168,-9.71116 -2.09591,-1.73945 -3.03356,-1.81598 -3.03356,-0.24763 0,1.2485 -1.3971,2.27 -3.10469,2.27 -2.52481,0 -2.68126,0.79127 -0.83759,4.23611 2.06473,3.85802 1.84541,4.10635 -2.45682,2.78232 -2.59814,-0.79958 -4.07341,-0.76604 -3.27831,0.0745 0.79509,0.84058 0.59958,3.10914 -0.43441,5.04125 -1.8681,3.49053 -0.86607,6.0671 2.3594,6.0671 0.92696,0 1.6853,-1.7588 1.6853,-3.90845 z m 90.32707,-1.65306 c -0.50504,-0.83423 0.41223,-2.74716 2.03839,-4.25096 2.51585,-2.32649 3.12248,-2.10032 4.0684,1.51677 0.80534,3.07981 2.71812,4.25097 6.94286,4.25097 6.43011,0 7.44806,-2.20763 2.79769,-6.06711 -1.66847,-1.3847 -3.03355,-1.92779 -3.03355,-1.20688 0,0.72091 -2.73022,-0.10109 -6.06712,-1.82668 -3.78054,-1.95498 -6.06712,-2.31067 -6.06712,-0.94376 0,1.20651 -0.83235,1.67925 -1.84963,1.05052 -1.01728,-0.62873 -2.31055,1.1e-4 -2.8739,1.39742 -0.56334,1.39731 -1.09607,0.49291 -1.18392,-2.00977 -0.12809,-3.65119 -1.33492,-4.55033 -6.10741,-4.55033 -6.31891,0 -9.94592,-3.00911 -5.69349,-4.72353 1.53268,-0.61792 1.13654,-1.08759 -0.99854,-1.18392 -1.94655,-0.0878 -3.53916,0.66521 -3.53916,1.67338 0,1.00817 -1.83365,1.35352 -4.07481,0.76746 -3.01201,-0.78767 -3.77339,-0.28013 -2.91915,1.94592 0.75919,1.97846 -0.43255,3.42681 -3.47421,4.22222 -7.17107,1.87527 -1.8161,5.53132 9.17816,6.26631 7.11873,0.4759 9.37948,-0.0772 9.37948,-2.29461 0,-2.08401 1.88436,-1.43652 6.57272,2.25843 6.85546,5.40292 8.44824,6.25837 6.90431,3.70815 z M 147.6329,161.4908 c 0,-1.1123 -1.41877,-2.02237 -3.15287,-2.02237 -1.7341,0 -2.59048,0.91007 -1.90304,2.02237 1.61726,2.61676 5.05591,2.61676 5.05591,0 z m 24.26846,-1.13054 c 0,-0.49051 -1.41883,-0.89183 -3.15293,-0.89183 -1.73409,0 -2.58125,0.92491 -1.88261,2.05536 1.15438,1.86782 5.03554,0.97103 5.03554,-1.16353 z M 43.16141,158.81185 c 0.73189,0.73189 1.33069,0.32267 1.33069,-0.90937 0,-3.85309 -3.94571,-4.8891 -6.9975,-1.8373 -3.36999,3.37002 -1.65036,6.38429 1.94159,3.40325 1.31696,-1.093 2.99332,-1.38846 3.72522,-0.65658 z m 45.8228,-0.35461 c 0,-1.66845 -0.91008,-3.03355 -2.02236,-3.03355 -1.11228,0 -2.02235,1.3651 -2.02235,3.03355 0,1.66846 0.91007,3.03356 2.02235,3.03356 1.11228,0 2.02236,-1.3651 2.02236,-3.03356 z m 69.33832,-1.04269 c -1.21049,-4.6289 -4.62252,-7.50518 -4.62252,-3.89671 0,1.38193 -1.6938,1.93465 -4.0447,1.31987 -4.98534,-1.30369 -5.3211,1.66396 -0.50561,4.46873 6.09104,3.54772 10.36479,2.66626 9.17283,-1.89189 z m 50.36067,-5.39474 c -1.45991,-0.5842 -3.2042,-0.51235 -3.87621,0.15966 -0.67202,0.67202 0.52243,1.15001 2.65435,1.06219 2.35597,-0.097 2.83512,-0.57625 1.22186,-1.22185 z m -59.02789,-4.68559 c 0,-1.1123 -0.96382,-2.02237 -2.14172,-2.02237 -1.17796,0 -1.57928,0.91007 -0.89184,2.02237 1.60156,2.59143 3.03356,2.59143 3.03356,0 z m -13.77739,-1.38151 c -1.45991,-0.58421 -3.20419,-0.51236 -3.87621,0.15966 -0.67201,0.67202 0.52243,1.15 2.65436,1.06219 2.35591,-0.097 2.83512,-0.57626 1.22185,-1.22185 z M 44.4921,140.03955 c 0,-0.43714 -1.36508,-0.79481 -3.03356,-0.79481 -1.66842,0 -3.03355,0.8815 -3.03355,1.9589 0,1.07739 1.36513,1.43506 3.03355,0.79481 1.66848,-0.64024 3.03356,-1.52175 3.03356,-1.9589 z m 140.38924,2.02237 c 3.27932,-1.25838 4.60771,-5.2454 1.44398,-4.33395 -0.96517,0.27807 -3.59111,-1.74006 -5.83525,-4.48474 -3.50449,-4.28599 -4.54125,-4.60785 -7.34575,-2.28034 -4.55031,3.77643 -4.08596,5.61504 1.7906,7.08996 2.78075,0.69792 5.05591,2.16168 5.05591,3.25279 0,2.31773 0.58551,2.40827 4.89051,0.75628 z M 50.93842,139.8856 c -1.45991,-0.5842 -3.20419,-0.51235 -3.87621,0.15966 -0.67202,0.67202 0.52243,1.15 2.65435,1.06219 2.35592,-0.097 2.83518,-0.57626 1.22186,-1.22185 z m 75.67793,-8.22474 c 4.34017,-5.71746 3.64873,-9.14986 -1.22951,-6.10336 -2.22456,1.38928 -4.0447,4.1272 -4.0447,6.08424 0,4.5205 1.85211,4.52721 5.27421,0.0191 z m -19.77511,-4.38528 c 0.59104,-4.0101 0.18848,-4.26871 -3.53916,-2.27374 -5.1074,2.73339 -5.58954,8.01715 -0.66689,7.30819 1.94654,-0.28033 3.83929,-2.54584 4.20605,-5.03445 z m -72.46096,0.72678 c 0,-1.7341 -0.92493,-2.58128 -2.05539,-1.88263 -1.13046,0.69865 -1.53178,2.11746 -0.89184,3.15291 1.7337,2.80511 2.94723,2.28206 2.94723,-1.27028 z m 19.42314,-2.36647 c -0.67201,-0.67202 -1.14998,0.52244 -1.06219,2.65435 0.0971,2.35595 0.57629,2.83516 1.22185,1.22185 0.58423,-1.4599 0.51236,-3.20419 -0.15966,-3.8762 z m 11.92359,1.47464 c -0.6875,-1.1123 -2.78881,-2.00844 -4.66974,-1.9914 -2.94711,0.0267 -3.00052,0.30191 -0.38623,1.9914 3.96057,2.5595 6.63777,2.5595 5.05597,0 z m 37.41378,-7.94611 c 0,-2.08528 -1.16451,-1.67843 -4.04471,1.4131 -5.16936,5.54866 -5.16936,7.26963 0,4.0413 2.22462,-1.38929 4.04471,-3.84377 4.04471,-5.4544 z m 58.64869,-0.14337 c 0,-1.1123 -1.59261,-2.00843 -3.5391,-1.9914 -3.02456,0.0265 -3.09806,0.31602 -0.50561,1.9914 3.81662,2.46651 4.04471,2.46651 4.04471,0 z M 46.51445,114.85696 c 0,-1.17794 -0.91001,-1.57927 -2.02235,-0.89183 -2.59144,1.60159 -2.59144,3.03356 0,3.03356 1.11234,0 2.02235,-0.96378 2.02235,-2.14173 z m 97.87249,-12.35854 c -0.98323,-1.5909 -0.35978,-1.94297 1.90305,-1.07466 3.48772,1.33836 4.54355,-1.949555 1.81756,-5.659955 -2.09428,-2.85055 -9.51348,-2.39693 -13.38789,0.81853 -4.70344,3.903505 -4.04155,5.873565 2.29581,6.833605 3.05883,0.46337 6.2978,0.97886 7.19763,1.14551 0.89989,0.16667 0.97812,-0.7617 0.17384,-2.06303 z m -33.15668,-5.723435 c 0,-1.1123 -0.91002,-2.02236 -2.02235,-2.02236 -1.11228,0 -2.02236,0.91006 -2.02236,2.02236 0,1.11231 0.91008,2.02237 2.02236,2.02237 1.11233,0 2.02235,-0.91006 2.02235,-2.02237 z m -62.6934,-3.80886 c 0,-1.9347 -8.35634,-4.68789 -9.81157,-3.23266 -0.67726,0.67725 5.50788,3.92798 9.30597,4.89097 0.27807,0.0705 0.5056,-0.67574 0.5056,-1.65831 z m 65.81892,-10.396929 c 6.40703,-3.42892 6.45577,-6.48497 0.0647,-4.05509 -3.58441,1.3628 -5.54559,1.08397 -7.30743,-1.03897 -1.32451,-1.59592 -3.21517,-2.40295 -4.20139,-1.7934 -2.97705,1.83991 -2.0255,4.56802 2.04374,5.85956 2.14217,0.6799 3.61035,2.75001 3.32384,4.68661 -0.28229,1.907839 -0.14739,2.462849 0.29968,1.233359 0.44708,-1.229489 3.04667,-3.430919 5.77684,-4.892069 z m 32.74287,-8.54586 c -0.37864,-6.09094 -3.1231,-7.63106 -9.3676,-5.25689 -10.78153,4.09914 -8.4994,9.33262 4.21466,9.66508 4.41024,0.11533 5.38244,-0.71638 5.15294,-4.40819 z m 9.63492,2.52796 c 0.68744,-1.1123 -0.67764,-2.02236 -3.03356,-2.02236 -2.35586,0 -3.72099,0.91006 -3.03356,2.02236 1.60162,2.59144 4.46556,2.59144 6.06712,0 z m 45.50331,-6.18646 c 0,-1.17794 -0.91007,-1.57927 -2.02235,-0.89183 -2.59144,1.6016 -2.59144,3.03356 0,3.03356 1.11228,0 2.02235,-0.96378 2.02235,-2.14173 z M 68.76051,68.461826 c 0,-1.1123 -0.91002,-2.02237 -2.02236,-2.02237 -1.11228,0 -2.02235,0.91007 -2.02235,2.02237 0,1.1123 0.91007,2.02237 2.02235,2.02237 1.11234,0 2.02236,-0.91007 2.02236,-2.02237 z m 42.46975,0 c 0,-1.1123 -0.96376,-2.02237 -2.14172,-2.02237 -1.17796,0 -1.57928,0.91007 -0.89184,2.02237 1.60162,2.59143 3.03356,2.59143 3.03356,0 z m 2.50252,-18.63059 c 1.21031,-3.63095 -0.67849,-11.70494 -2.73827,-11.70494 -0.98262,0 -1.7866,-0.91007 -1.7866,-2.02237 0,-1.11231 0.68254,-1.9146 1.5168,-1.78288 0.83421,0.13172 2.88184,0.11778 4.55031,-0.031 2.48851,-0.22186 2.5391,-0.58374 0.28173,-2.01398 -3.10756,-1.9689 -10.39355,-0.62157 -10.39355,1.92197 0,0.91693 0.81969,2.17374 1.8215,2.79292 1.00186,0.61918 1.5253,4.31315 1.16326,8.20883 -0.45568,4.90295 0.17672,7.08306 2.05466,7.08306 1.49216,0 3.08072,-1.10324 3.53016,-2.45164 z m 63.0767,0.1901 c -0.84389,-1.3654 -8.95288,-0.0398 -8.95288,1.46357 0,0.41396 2.20959,0.56979 4.91015,0.34629 2.70056,-0.22351 4.5198,-1.03795 4.04273,-1.80986 z m -37.26605,-9.87267 c 0,-2.62577 -5.45549,-2.62577 -7.07827,0 -0.68743,1.1123 0.62396,2.02236 2.9142,2.02236 2.29023,0 4.16407,-0.91006 4.16407,-2.02236 z" />
</svg>
