<?xml version="1.0" encoding="UTF-8" standalone="no"?>
<!-- Created with Inkscape (http://www.inkscape.org/) -->

<svg
   xmlns:dc="http://purl.org/dc/elements/1.1/"
   xmlns:cc="http://creativecommons.org/ns#"
   xmlns:rdf="http://www.w3.org/1999/02/22-rdf-syntax-ns#"
   xmlns:svg="http://www.w3.org/2000/svg"
   xmlns="http://www.w3.org/2000/svg"
   xmlns:sodipodi="http://sodipodi.sourceforge.net/DTD/sodipodi-0.dtd"
   xmlns:inkscape="http://www.inkscape.org/namespaces/inkscape"
   version="1.0"
   width="228.99995"
   height="309.04742"
   id="svg2"
   inkscape:version="0.91 r13725"
   sodipodi:docname="deciduous_tree.svg">
  <metadata
     id="metadata4148">
    <rdf:RDF>
      <cc:Work
         rdf:about="">
        <dc:format>image/svg+xml</dc:format>
        <dc:type
           rdf:resource="http://purl.org/dc/dcmitype/StillImage" />
        <dc:title></dc:title>
      </cc:Work>
    </rdf:RDF>
  </metadata>
  <sodipodi:namedview
     pagecolor="#ffffff"
     bordercolor="#666666"
     borderopacity="1"
     objecttolerance="10"
     gridtolerance="10"
     guidetolerance="10"
     inkscape:pageopacity="0"
     inkscape:pageshadow="2"
     inkscape:window-width="1600"
     inkscape:window-height="881"
     id="namedview4146"
     showgrid="false"
     fit-margin-top="0"
     fit-margin-left="0"
     fit-margin-right="0"
     fit-margin-bottom="0"
     inkscape:zoom="0.95794375"
     inkscape:cx="68.564514"
     inkscape:cy="89.868002"
     inkscape:window-x="0"
     inkscape:window-y="19"
     inkscape:window-maximized="0"
     inkscape:current-layer="svg2" />
  <defs
     id="defs4" />
  <path
     inkscape:connector-curvature="0"
     id="path3033"
     style="fill:#000000"
     d="m 120.5938,0.0161798 c -2.11,0.10998 -4.2223,0.77621 -5.4688,1.9375 -1.7595,1.63923 -2.493,1.80915 -3.6562,0.84375 -1.1686,-0.96987 -1.4688,-0.89901 -1.4688,0.40625 0,0.98324 -0.8169,1.625 -2.0937,1.625 -1.462,0 -1.9307,0.45916 -1.5313,1.5 0.432,1.12574 -0.1782,1.499995 -2.4062,1.499995 -1.6328,0 -2.9688,0.45 -2.9688,1 0,1.5796802 -1.8375,1.1832002 -4.875,-1.0625 -1.5401,-1.138665 -4.679,-2.204225 -6.9687,-2.374995 -2.2898,-0.17077 -4.795,-0.86836 -5.5938,-1.53125 -0.7987,-0.6629 -1.9555,-0.87515 -2.5625,-0.5 -0.7337,0.45348 -0.5157,1.15609 0.6875,2.09375 1.6647,1.29727 1.5999,1.37504 -0.9375,0.96875 -1.5172,-0.24293 -3.7672,-0.71778 -5,-1.03125 l -2.25,-0.5625 2.25,1.15625 c 3.3222,1.709965 2.9049,4.7689952 -0.75,5.4999952 -3.1223,0.62445 -3.9006,1.81971 -1.75,2.6875 0.6875,0.27742 0.2375,0.55031 -1,0.59375 -2.7024,0.0948 -2.8563,0.9154 -0.5,2.65625 2.4548,1.81363 0.5576,3.41421 -4.2187,3.59376 -2.5368,0.0954 -4.2211,-0.39198 -5.0313,-1.5 -1.3407,-1.8336 -3.5,-2.26536 -3.5,-0.68751 0,0.55001 -0.45,1.00002 -1,1.00001 -0.55,0 -1,-0.69378 -1,-1.56251 0,-1.274 -0.6285,-1.43658 -3.25,-0.8125 -1.7875,0.42555 -4.9375,0.68265 -7,0.5625 -3.4944,-0.20354 -4.2938,0.41026 -3.875,3.06251 0.0651,0.4125 -0.55,0.75001 -1.375,0.75 -0.825,0 -1.5,0.45001 -1.5,1 0,0.55 -0.7875,1.01377 -1.75,1.03125 -1.6114,0.0293 -1.5992,0.163 0.125,1.46875 1.6725,1.26659 1.2187,1.39678 -4.25,1.15625 -3.3674,-0.14809 -6.125,0.0806 -6.125,0.53125 0,0.45069 -0.9167,0.81251 -2.0625,0.8125 -1.2222,0 -1.9319,0.51667 -1.6875,1.25 0.2292,0.6875 0.8396,1.27283 1.3438,1.28125 0.5041,0.008 1.4645,0.37333 2.1562,0.8125 0.7416,0.4708 1.9217,0.14079 2.8438,-0.78125 2.0218,-2.02181 3.0502,-2.01849 1.375,0 -1.0921,1.31585 -0.9239,1.6691 1.125,2.25 2.1121,0.59882 1.9054,0.73786 -1.5938,1.25 -3.8931,0.56979 -3.9332,0.63254 -1.5,1.71875 1.375,0.61382 2.05,1.17307 1.5,1.25 -3.3201,0.46448 -4.6239,0.96764 -5.9375,2.28125 -0.8098,0.8098 -1.1842,1.75325 -0.8437,2.09375 0.3404,0.34048 0.0559,0.59376 -0.625,0.59375 -0.681,0 -1.9097,0.69091 -2.75,1.53125 -1.1935,1.1935 -1.2671,1.85626 -0.3438,2.96875 0.6501,0.78327 0.8887,2.34234 0.5313,3.46875 -0.7736,2.4371 0.2734,2.6705 1.9062,0.4375 1.063,-1.45374 1.2935,-1.45376 2.5,0 1.1175,1.34649 1.0487,1.59376 -0.375,1.59375 -0.9248,0 -1.3816,0.46429 -1.0312,1.03125 1.1371,1.8399 1.3359,8.44189 0.2812,9.09375 -0.6849,0.4233 -0.6002,1.41299 0.2188,3 l 1.2187,2.375 -2.375,-2.46875 -2.375,-2.5 -0.3125,2.25 c -0.3264,2.28182 -3.4203,4.67343 -4.5625,3.53125 -0.3473,-0.34732 -0.625,0.14951 -0.625,1.125 0,1.14854 -0.5181,1.5835 -1.4687,1.21875 -2.6075,-1.00058 -2.9202,1.62485 -0.4375,3.65625 l 2.4062,1.96875 -2.2812,-0.71875 c -2.067,-0.64377 -2.2389,-0.44606 -1.6563,1.875 0.4661,1.85687 0.2227,2.71106 -0.9375,3.15625 -0.8833,0.33897 -1.625,1.32276 -1.625,2.15625 0,1.24437 -0.2797,1.2887 -1.5312,0.25 -1.7777,-1.47536 -1.6567,-1.58961 -3.3438,3.34375 -1.3001,3.80182 -0.7561,6.31928 0.8125,3.78125 0.6697,-1.08352 0.9705,-1.09025 1.625,-0.0312 0.47,0.76048 0.3148,1.45761 -0.375,1.6875 -1.5647,0.52158 -1.5208,3.92364 0.0625,4.5625 0.9013,0.36368 0.9212,0.5368 0.0625,0.59375 -0.655,0.0434 -1.4726,-0.38749 -1.8125,-0.9375 -0.9417,-1.52363 -2.5,-1.19251 -2.5,0.53125 0,0.84226 0.675,1.80843 1.5,2.125 2.3217,0.89093 1.77,2.228245 -0.6562,1.593745 -1.5368,-0.401865 -1.9453,-0.215915 -1.4063,0.65625 0.416,0.67311 0.7813,2.71528 0.7813,4.53125 0,2.02821 0.8508,4.24356 2.2187,5.71875 1.2247,1.32083 2.0579,2.92014 1.8438,3.5625 -0.2142,0.64235 0.5218,2.08438 1.6562,3.21875 1.1344,1.13437 2.0625,2.79517 2.0625,3.6875 0,1.2833 0.2902,1.39496 1.4063,0.46875 0.9645,-0.80051 1.6195,-0.84183 2.0625,-0.125 0.3564,0.57671 1.0622,1.03126 1.5625,1.03125 1.0754,0 0.0282,-3.20434 -1.3438,-4.125 -1.2544,-0.84177 0.0502,-2.87499 1.8438,-2.875 0.808,0 1.1879,0.62194 0.875,1.4375 -1.0695,2.78686 6.1935,7.8741 7.7187,5.40625 0.5826,-0.94263 1.2462,-0.79246 2.8125,0.625 1.137,1.02892 2.4042,1.53325 2.8125,1.125 0.4083,-0.40826 -0.1207,-1.37624 -1.1875,-2.15625 -1.0668,-0.78003 -1.4352,-1.43749 -0.8125,-1.4375 0.6227,0 1.443,0.4958 1.8125,1.09375 0.3695,0.59791 1.5473,0.8756 2.625,0.59375 1.8065,-0.47241 1.8373,-0.34919 0.5,1.65625 -1.2008,1.80075 -2.2017,2.1176 -5.9375,1.84375 -2.5176,-0.18456 -4.8148,0.14701 -5.1875,0.75 -0.3674,0.59447 -2.0075,1.06251 -3.625,1.0625 -1.6175,0 -2.9375,0.47079 -2.9375,1.03125 0,0.57231 1.2056,0.79488 2.75,0.5 l 2.75,-0.53125 -2.625,1.0625 c -1.9985,0.79665 -2.5333,1.56368 -2.125,3.125 0.4833,1.8481 0.3139,1.94389 -1.625,0.90625 -2.8681,-1.53497 -4.8281,-0.33125 -2.4375,1.5 1.6271,1.24636 1.4843,1.32726 -1.4375,0.78126 -2.0557,-0.38417 -3.25,-0.223 -3.25,0.46875 0,0.60148 -0.5674,0.8677 -1.2812,0.59375 -0.7139,-0.27395 -2.3806,0.64006 -3.6875,2.03125 l -2.375,2.53125 3.0937,0 c 1.7066,0 3.8,-0.67499 4.625,-1.5 1.9771,-1.97711 4.7587,-1.9771 4,0 -0.3166,0.825 -1.4395,1.50001 -2.5,1.5 -1.5879,0 -1.7479,0.33368 -0.9062,1.90625 1.0883,2.03355 -0.1572,2.35718 -2.7813,0.71875 -2.5044,-1.56367 -2.6319,0.54007 -0.1562,2.53125 2.4381,1.96096 2.4378,1.98159 0.125,0.84375 -3.7484,-1.84411 -4.8158,0.32762 -1.4688,3 2.4753,1.97637 2.5365,2.16907 0.5625,1.5625 -1.6704,-0.51328 -2.25,-0.28863 -2.25,0.875 0,0.86207 -0.675,1.56251 -1.5,1.5625 -1.0068,0 -1.5,1.00662 -1.5,3.0625 0,2.36002 0.4016,3.00308 1.75,2.78125 2.0304,-0.33403 4.25,0.838 4.25,2.25 0,0.6059 -0.6638,0.65237 -1.75,0.0937 C 2.2932,162.00977 0,162.5155 0,163.95369 c 0,0.51778 1.2375,1.42928 2.75,2.03125 l 2.75,1.09375 -2.75,0.96875 c -3.2259,1.13098 -3.4738,2.32624 -0.8437,3.96875 1.5857,0.99032 1.7009,1.57527 0.7812,3.59375 -0.9498,2.08464 -0.7414,2.68211 1.375,4.28125 1.6161,1.22108 2.7841,1.49451 3.4375,0.84375 0.655,-0.65235 0.4974,-1.27793 -0.4687,-1.875 -0.8045,-0.49719 -1.1466,-1.22841 -0.75,-1.625 1.0402,-1.04021 1.9372,0.15089 2.25,3 0.1494,1.36159 0.5781,2.98108 0.9375,3.5625 0.9826,1.58994 3.5312,1.2443 3.5312,-0.46875 0,-1.49177 1.1731,-1.91094 4,-1.5 0.8687,0.12628 0.4666,-0.58177 -0.9375,-1.71875 -1.629,-1.3191 -2.0101,-2.16714 -1.2187,-2.65625 0.6392,-0.3951 1.1562,-0.2941 1.1562,0.25 0,0.63912 1.1338,0.66047 3.2188,0.0625 3.307,-0.94844 6.7812,-0.40911 6.7812,1.03125 0,0.44418 -1.3842,1.06436 -3.0937,1.40625 -2.2267,0.44533 -2.9445,1.04809 -2.5313,2.125 0.3351,0.87329 0.0224,1.50001 -0.75,1.5 -0.7313,0 -2.4058,2.02501 -3.7187,4.5 -1.4389,2.71219 -3.1005,4.50001 -4.1563,4.5 -0.9634,0 -1.75,0.48005 -1.75,1.0625 0,0.58246 -0.45,0.77743 -1,0.4375 -0.55,-0.33992 -1,-0.0882 -1,0.53125 0,0.62113 0.8085,0.87123 1.7813,0.5625 1.112,-0.35295 2.2156,0.18145 3,1.4375 0.813,1.30188 0.8849,1.96876 0.1875,1.96875 -0.5872,0 -0.8257,0.39865 -0.5313,0.875 0.2944,0.47633 -0.8318,0.72182 -2.4687,0.53125 -3.7671,-0.43861 -3.7471,0.51219 0.0937,4.53125 2.3335,2.44179 2.8325,3.52818 2,4.53125 -0.8209,0.98909 -0.7048,1.47516 0.5,1.9375 2.3811,0.91371 3.6375,0.72632 2.9375,-0.40625 -0.3399,-0.55 0.0559,-0.99999 0.875,-1 1.1734,0 1.3224,0.64611 0.6563,2.96875 -0.6052,2.11008 -0.4705,3.25709 0.5,4.0625 0.7456,0.61888 1.064,1.89022 0.7187,2.8125 -0.547,1.46097 -0.4075,1.47698 1.0625,0.28125 1.4536,-1.18243 1.6875,-1.14781 1.6875,0.25 0,0.89234 0.5109,1.62501 1.125,1.625 0.6152,0 0.875,-0.86211 0.5938,-1.9375 -0.2808,-1.07363 0.0271,-2.14547 0.6562,-2.375 0.8397,-0.30634 0.7989,-0.96712 -0.125,-2.53125 -1.1226,-1.90059 -1.0207,-2.15624 0.875,-2.15625 1.7037,0 2.0131,-0.44617 1.5625,-2.25 -0.5021,-2.00977 -0.3354,-1.94526 1.75,0.625 2.5146,3.09924 4.5625,2.82555 4.5625,-0.625 0,-2.54584 1.463,-1.29993 2.5,2.125 0.6215,2.05268 0.428,2.23843 -1.4062,1.65625 -2.668,-0.84676 -2.6992,0.61384 -0.0625,3 1.7364,1.57147 1.8374,1.97399 0.5625,2.6875 -0.823,0.46052 -1.2485,1.50201 -0.9375,2.3125 0.4494,1.17116 -0.421,1.47585 -4.2813,1.5 -3.8872,0.0243 -4.5104,0.25149 -3.0625,1.09375 1.6768,0.97541 1.6037,1.22345 -1,3.46875 -1.545,1.33239 -3.335,2.24006 -3.9687,2 -2,-0.75751 -2.3704,0.66513 -0.5625,2.125 1.5907,1.28458 1.5322,1.34913 -0.5313,0.78125 -2.8935,-0.79624 -2.8935,0.79489 0,2.9375 l 2.25,1.65625 -2.6875,-0.53125 c -3.1616,-0.64416 -4.4026,0.70817 -2.2812,2.46875 1.6079,1.33449 2.0398,4.96876 0.5937,4.96875 -0.4858,0 -1.1514,-0.97404 -1.4687,-2.1875 -0.3174,-1.21348 -0.8961,-1.88521 -1.2813,-1.5 -0.7931,0.79312 2.6861,7.68751 3.875,7.6875 0.4249,0 1.7513,-0.97008 2.9688,-2.1875 l 2.2187,-2.21875 0.5938,2.46875 c 0.6598,2.79533 3.6511,3.43997 3.1875,0.6875 -0.1725,-1.02396 0.2476,-1.65415 1,-1.5 2.1999,0.45072 2.7224,2.09867 1.0625,3.3125 -0.9681,0.70785 -1.2745,1.63939 -0.7813,2.4375 0.6259,1.01277 1.1273,0.884 2.25,-0.59375 1.3282,-1.74816 1.4034,-1.64416 0.7813,1.34375 -0.3957,1.90002 -0.2865,3.25001 0.2812,3.25 1.2721,0 2.3688,-4.38648 1.5938,-6.40625 -0.3334,-0.8687 -0.175,-1.59374 0.375,-1.59375 0.55,0 1.2771,0.67501 1.5937,1.5 0.7911,2.0615 2.6233,1.89097 2.6875,-0.25 0.044,-1.46914 0.3074,-1.38888 1.625,0.5 1.5068,2.16003 4.0828,3.30545 2.8125,1.25 -0.3399,-0.55 0.2818,-0.99999 1.375,-1 2.3235,0 5.4188,-2.72756 4.5938,-4.0625 -0.3126,-0.50566 -0.0883,-0.93749 0.5312,-0.9375 0.6713,0 0.8783,0.80802 0.5,2 -0.805,2.53649 -0.0365,2.5365 2.5,0 2.6139,-2.61392 2.5314,-3.95037 -0.25,-4.09375 -2.0386,-0.10511 -2.0621,-0.1796 -0.25,-0.625 1.1,-0.27038 2.4877,-0.88442 3.0938,-1.375 0.6551,-0.5303 2.4105,-0.44424 4.3125,0.21875 1.7595,0.61337 3.5218,0.78885 3.9062,0.375 0.3844,-0.41389 0.125,-0.97323 -0.5625,-1.21875 -2.7572,-0.98472 -1.1202,-2.3872 2,-1.71875 4.3127,0.92394 4.4298,1.12379 1.9063,3.3125 -1.1882,1.0305 -2.1563,2.3421 -2.1563,2.90625 0,1.52748 2.8212,2.30068 3.625,1 0.4365,-0.70634 1.0351,-0.26949 1.5625,1.15625 0.5339,1.44318 1.3749,2.07851 2.3125,1.71875 0.8603,-0.33014 1.9003,0.22318 2.5,1.34375 1.1308,2.11297 4,1.69083 4,-0.59375 0,-0.76615 0.4215,-1.40624 0.9375,-1.40625 0.5161,0 0.8536,1.2038 0.75,2.65625 -0.1072,1.50393 0.4205,2.8442 1.2188,3.125 1.0026,0.35274 1.2601,-0.0895 0.875,-1.5625 -0.4024,-1.53865 -0.1538,-1.89948 0.9687,-1.46875 1.4932,0.57298 1.3895,-0.42645 -0.5625,-5.75 -0.478,-1.30371 -0.3229,-1.29188 1.1875,-0.0625 1.5416,1.25471 1.8104,1.16998 2.3125,-0.75 0.3113,-1.19045 1.119,-2.18749 1.8125,-2.1875 0.6935,0 1.7846,-0.61962 2.4375,-1.40625 0.95,-1.14467 0.7685,-1.66622 -0.9062,-2.5625 -1.151,-0.61596 -1.79,-1.58589 -1.4375,-2.15625 0.4379,-0.70868 0.9757,-0.68049 1.7187,0.0625 1.5289,1.52893 2.6875,1.32636 2.6875,-0.4375 0,-0.825 0.5,-1.49999 1.0938,-1.5 0.6812,0 0.8377,-1.19881 0.4375,-3.25 l -0.625,-3.25 3.0312,3.5 c 1.6743,1.925 3.5227,5.30001 4.0938,7.5 0.571,2.2 2.5315,7.60001 4.375,12 5.9819,14.27757 6.9625,34.17355 2.5,51.25 -0.6999,2.67808 -1.2985,5.46052 -1.625,7.46875 l 24.9375,0 c -0.2395,-1.16179 -0.4796,-2.33899 -0.7813,-3.71875 -2.0807,-9.51664 -1.0522,-51.63088 1.5313,-62.625 1.6354,-6.95937 1.913,-7.41603 6.0312,-9.59375 3.2663,-1.72723 4.6342,-2.00444 5.6563,-1.15625 0.9954,0.82605 1.3437,0.82838 1.3437,0 0,-1.43956 3.677,-1.46397 4.5625,-0.0312 0.4838,0.78285 0.9671,0.78283 1.75,0 0.5979,-0.59792 1.5487,-1.09374 2.0938,-1.09375 0.5452,0 0.1492,0.62612 -0.875,1.375 -1.0242,0.74891 -2.6816,1.13803 -3.6875,0.875 -1.2455,-0.32569 -1.8438,0.0854 -1.8438,1.25 0,0.94064 0.9474,1.95019 2.0938,2.25 1.4253,0.3727 1.7041,0.76886 0.875,1.28125 -0.6669,0.41221 -0.9029,1.28559 -0.5,1.9375 0.5149,0.83321 1.1559,0.58437 2.1562,-0.84375 1.7821,-2.54434 4.375,-1.69131 4.375,1.4375 0,1.2837 0.45,2.59759 1,2.9375 0.55,0.33992 1,1.3 1,2.125 0,0.825 -0.441,1.22046 -1,0.875 -0.559,-0.34546 -0.7929,-1.026 -0.5,-1.5 0.2929,-0.47399 0.0902,-1.12327 -0.4687,-1.46875 -0.5589,-0.34546 -1.0084,0.1613 -1,1.15625 0.0393,4.63949 5.5993,5.91093 6.5625,1.5 1.1755,-5.38243 1.3551,-5.63778 2.7812,-3.6875 1.3259,1.81319 3.625,1.36136 3.625,-0.71875 0,-0.61173 -0.7429,-1.92833 -1.6562,-2.9375 -1.7862,-1.97372 -1.0257,-3.93191 0.8125,-2.09375 1.5784,1.57838 3.8437,0.41908 3.8437,-1.96875 0,-1.83956 0.2069,-1.8051 2.0938,0.59375 2.3084,2.9347 4.5236,2.67834 2.9062,-0.34375 -0.5515,-1.03046 -0.9595,-2.27008 -0.9375,-2.71875 0.0221,-0.44866 0.7107,0.42501 1.5313,1.9375 0.8205,1.5125 2.0137,2.75001 2.6562,2.75 0.8676,0 0.8698,-0.28645 0.0313,-1.125 -0.8385,-0.83852 -0.4274,-2.16716 1.5625,-5.21875 5.25946,-8.06583 7.45136,-9.54634 8.46866,-5.65625 0.644,2.46278 2.6731,2.64995 2.7188,0.25 0.0279,-1.46971 0.3527,-1.35212 2,0.625 1.0788,1.29479 1.7107,2.75727 1.4062,3.25 -0.8156,1.31972 0.9809,1.08165 2.375,-0.3125 0.9333,-0.93333 1.1875,-0.8222 1.1875,0.5 0,0.935 0.45,1.68751 1,1.6875 0.55,0 1,-0.89999 1,-2 0,-1.1 0.5077,-1.99999 1.125,-2 0.7756,0 0.7351,-0.46363 -0.125,-1.5 -0.9998,-1.20473 -0.9684,-1.49999 0.0938,-1.5 1.0285,0 1.0583,-0.25415 0.125,-1.1875 -1.7756,-1.77563 -1.4887,-2.46391 1.0312,-2.375 1.297,0.0458 2.1441,-0.46694 2,-1.1875 -0.1482,-0.74093 0.8184,-1.24999 2.3438,-1.25 3.3677,0 2.9804,-3.42222 -0.4063,-3.59375 -1.2668,-0.0642 -2.8491,-0.65658 -3.5,-1.3125 -0.9141,-0.92125 -0.7736,-1.04458 0.6563,-0.5 1.112,0.4235 2.1806,0.20694 2.6562,-0.5625 0.5905,-0.95547 1.071,-0.74816 1.9063,0.8125 0.6578,1.22908 2.5693,2.3644 4.625,2.75 1.9244,0.36102 3.7298,1.04363 4.0312,1.53125 0.8681,1.4046 2.4375,1.01859 2.4375,-0.59375 0,-0.80744 -1.2375,-2.11693 -2.75,-2.9375 -1.8625,-1.01043 -2.2078,-1.50413 -1.0625,-1.53125 0.93,-0.022 1.9859,0.42096 2.3438,1 0.3579,0.57903 1.1296,0.88383 1.7187,0.6875 1.541,-0.51367 1.8462,-4.02785 0.4375,-5.03125 -0.8749,-0.62317 -0.8642,-0.99984 -0.0312,-1.34375 1.4597,-0.60281 -2.1763,-8.36058 -3.9375,-8.40625 -0.7215,-0.0187 -0.4981,-0.56239 0.5312,-1.34375 0.9625,-0.73064 1.75,-2.26185 1.75,-3.40625 0,-1.1444 0.3839,-2.30959 0.8438,-2.59375 1.3013,-0.80423 0.6846,-4.68067 -0.9063,-5.6875 -2.2874,-1.44753 -3.3007,-1.06796 -1.8437,0.6875 1.1638,1.40226 1.0822,1.57874 -0.625,1.25 -1.0836,-0.20869 -2.7493,-2.06613 -3.7188,-4.125 -1.658,-3.52111 -3.75,-5.02278 -3.75,-2.6875 0,1.74904 -2.0587,-0.0786 -3.0625,-2.71875 -0.515,-1.35467 -1.391,-2.16957 -1.9687,-1.8125 -0.7195,0.44469 -0.6771,1.096 0.125,2.0625 2.2822,2.74984 -0.3839,1.36639 -5.375,-2.8125 -3.1753,-2.65852 -5.2102,-3.7759 -5.4688,-3 -0.2267,0.68004 -1.2584,1.21876 -2.3125,1.21875 -1.0542,0 -1.9375,0.45001 -1.9375,1 0,1.92986 -3.5281,0.97272 -6.4687,-1.75 -1.63346,-1.5125 -3.43916,-2.80094 -3.99996,-2.875 -0.5609,-0.0741 -1.5938,-0.18656 -2.2813,-0.25 -2.5906,-0.23906 -1.098,-1.7038 1.9688,-1.9375 1.7587,-0.13401 3.39036,-0.42166 3.62496,-0.65625 0.2345,-0.23459 1.2366,0.56713 2.25,1.78125 1.8988,2.27488 2.6171,1.3251 0.9687,-1.28125 -0.5902,-0.93318 -0.5344,-1.91787 0.1563,-2.75 1.5733,-1.89572 0.0389,-2.89817 -2.25,-1.46875 -2.60636,1.62772 -2.46976,0.85327 0.4062,-2.25 2.8341,-3.0581 3.625,-3.2071 3.625,-0.625 0,1.06754 0.45,2.22259 1,2.5625 0.5694,0.35191 1,-0.50928 1,-2 0,-1.50295 0.4218,-2.35732 1,-2 0.5539,0.34231 1.2766,-0.0486 1.5938,-0.875 0.7445,-1.94004 -1.862,-7.20129 -3.4063,-6.875 -0.6508,0.1375 -1.1875,-0.45008 -1.1875,-1.3125 0,-1.29789 0.517,-1.20557 3,0.5625 1.65,1.1749 3,2.57997 3,3.125 0,0.54501 0.4992,0.71119 1.0938,0.34375 0.6069,-0.37508 0.8119,-1.8299 0.4687,-3.3125 -0.4583,-1.97925 -0.3545,-2.28043 0.4063,-1.15625 0.5583,0.825 1.0292,2.40001 1.0625,3.5 0.0502,1.66073 0.2807,1.56473 1.2812,-0.65625 1.0243,-2.27366 1.3727,-2.46105 2.4688,-1.25 1.0629,1.17432 1.0189,1.40626 -0.25,1.40625 -0.8466,0 -1.5313,0.45001 -1.5313,1 0,0.55 0.4707,1.00001 1.0313,1 0.6029,0 0.7371,1.08881 0.3437,2.65625 -0.4679,1.86439 -0.3064,2.43588 0.5,1.9375 0.6971,-0.43086 1.1369,-0.007 1.1563,1.09375 0.0297,1.68776 0.1301,1.686 1.5,-0.125 1.4534,-1.92151 1.4684,-1.92153 1.5,0 0.0315,1.92151 0.0466,1.92149 1.5,0 0.8075,-1.06762 1.4687,-2.76914 1.4687,-3.78125 0,-1.01214 0.675,-2.08966 1.5,-2.40625 0.825,-0.31659 1.5,-1.18864 1.5,-1.9375 0,-0.7995 0.6193,-1.11921 1.5,-0.78125 1.7615,0.67595 1.8904,-0.47919 0.4688,-4.21875 -0.9062,-2.38344 -0.8454,-2.55398 0.5,-1.4375 0.8425,0.69923 1.5312,2.09236 1.5312,3.125 0,1.03266 0.45,1.87501 1,1.875 1.2984,0 1.2984,-2.69756 0,-3.5 -1.5488,-0.95724 -1.1594,-2.49975 0.4688,-1.875 1.1246,0.43155 1.3685,-0.26429 1.1875,-3.09375 -0.1282,-2.00478 -0.6564,-3.93172 -1.1875,-4.3125 -0.5311,-0.38075 -1.5785,-1.49365 -2.3438,-2.46876 -1.2199,-1.55426 -1.1891,-1.70846 0.25,-1.15625 1.0694,0.41038 1.625,0.12725 1.625,-0.84375 0,-0.8197 -0.9384,-1.76038 -2.0937,-2.0625 -1.1567,-0.30248 -1.8007,-1.00605 -1.4375,-1.59375 0.4124,-0.66728 -0.5875,-1.115 -2.6563,-1.1875 -1.8199,-0.0638 -2.525,-0.34221 -1.5625,-0.59375 0.9625,-0.25152 1.75,-1.12038 1.75,-1.9375 0,-0.81713 0.4058,-1.21547 0.9063,-0.90625 0.5003,0.30924 1.7155,0.24798 2.6875,-0.125 1.6455,-0.63147 1.638,-0.73459 -0.1563,-1.4375 -3.0583,-1.19807 -4.4375,-1.02198 -4.4375,0.59375 0,0.825 -0.3375,1.47138 -0.75,1.40625 -0.4125,-0.0651 -0.975,-0.0485 -1.25,0.0625 -2.0167,0.81375 -5,0.50383 -5,-0.53125 0,-0.68725 -0.3375,-1.45682 -0.75,-1.6875 -0.4125,-0.23069 -0.075,-0.21599 0.75,0.0312 5.3737,1.61054 5.331,1.64201 4.8438,-0.90625 -0.2584,-1.35179 0.003,-2.90082 0.5937,-3.4375 1.5805,-1.43643 4.5613,-0.58219 3.9063,1.125 -0.3034,0.79054 -0.0464,1.43751 0.5625,1.4375 0.6089,0 1.1082,-0.56249 1.125,-1.25 0.0169,-0.69372 0.4968,-0.4712 1.0625,0.5 1.1678,2.00501 3.3651,2.39736 2.625,0.46875 -0.7888,-2.05555 4.1289,-1.30878 5.7812,0.875 1.4046,1.85646 1.438,1.83891 1.4688,0.0312 0.0263,-1.55022 0.2893,-1.65565 1.5312,-0.625 1.2385,1.02788 1.5,0.9498 1.5,-0.53125 0,-0.98654 -0.715,-2.59138 -1.5937,-3.5625 -1.7341,-1.91608 -1.1474,-3.90624 1.1562,-3.90625 0.7926,0 1.4375,-0.44999 1.4375,-1 0,-0.55 -0.3375,-0.99893 -0.75,-1 -0.4125,-0.001 -0.8429,-1.43621 -0.9687,-3.21875 -0.1258,-1.78252 -0.6883,-3.40656 -1.25,-3.59375 -1.9238,-0.64127 -1.0338,-1.99242 0.9687,-1.46875 1.1029,0.28841 2,0.0428 2,-0.5625 0,-0.60367 -1.0789,-1.38558 -2.4062,-1.71875 -1.4377,-0.36083 -2.6704,-1.562305 -3.0313,-2.999995 -0.3331,-1.32734 -1.0089,-2.43749 -1.5312,-2.4375 -0.5222,0 -0.6786,-0.68985 -0.3438,-1.5625 0.5091,-1.32659 -0.1105,-1.54628 -3.7812,-1.28125 -3.3526,0.24207 -4.4063,-0.0257 -4.4063,-1.15625 0,-0.81422 0.6027,-1.36366 1.3125,-1.21875 0.7098,0.14493 2.1641,-0.23137 3.25,-0.8125 1.5382,-0.82322 2.1012,-0.70228 2.5625,0.5 0.983,2.56148 3.1734,1.72553 3.875,-1.46875 0.4532,-2.06324 1.2729,-2.99999 2.5938,-3 2.0434,0 2.5708,-1.47122 0.9062,-2.5 -1.5343,-0.94826 -1.1838,-2.49999 0.5625,-2.5 0.8575,0 1.2735,-0.42507 0.9375,-0.96875 -0.3503,-0.56686 0.0788,-0.74777 0.9688,-0.40625 0.8535,0.32754 1.5312,0.13428 1.5312,-0.4375 0,-0.57178 -0.9,-1.33837 -2,-1.6875 -1.1,-0.34913 -2,-1.26263 -2,-2.03125 0,-0.76858 -0.8423,-1.85356 -1.875,-2.40625 -2.3218,-1.24259 -3.296,-5.65503 -1.5625,-7.09375 0.9896,-0.82128 1.1654,-0.58863 0.75,1 -0.3893,1.48861 -0.0598,2.03126 1.1875,2.03125 1.0867,0 1.5035,-0.53248 1.1563,-1.4375 -0.303,-0.78946 -0.137,-1.57699 0.3437,-1.75 1.1486,-0.41349 -1.4392,-3.86759 -3.1562,-4.21875 -0.7337,-0.15005 -2.0188,-0.53161 -2.8438,-0.84375 -0.825,-0.31214 -2.7375,-0.85606 -4.25,-1.1875 -1.5125,-0.33142 -2.7664,-1.13548 -2.7812,-1.8125 -0.0148,-0.67702 -1.8148,-2.33941 -4,-3.6875 -2.1852,-1.34807 -3.9688,-2.83132 -3.9688,-3.28125 0,-1.11092 5.3173,0.25879 6.1875,1.59375 1.2514,1.91954 2.261,-0.4057 1.0313,-2.375 -0.9744,-1.5603 -0.9388,-1.8072 0.1875,-1.375 2.2703,0.87118 2.8229,-1.41751 0.625,-2.59375 -1.3656,-0.73088 -2.0313,-0.7596 -2.0313,-0.0625 0,1.9025 -1.4838,1.0628 -2.6875,-1.53125 -0.9205,-1.98351 -0.9205,-2.34797 0,-1.59375 1.103,0.90379 4.1267,1.55139 5.9688,1.28125 1.8594,-0.2727 -1.7952,-4.45122 -6.3438,-7.25 -5.0778,-3.1244 -6.2672,-4.42709 -3.1875,-3.46875 0.9625,0.29951 2.425,0.1312 3.25,-0.40625 1.3333,-0.8686 1.3333,-1.09347 0,-1.96875 -0.825,-0.54158 -2.0202,-0.99158 -2.6562,-1 -0.662,-0.009 -0.9244,-0.8863 -0.625,-2.03125 0.5835,-2.2313 -0.6669,-2.61432 -2.5,-0.78125 -1.2727,1.27275 -1.6314,0.2685 -1.25,-3.46875 0.1031,-1.0103 -0.8266,-2.15421 -2.1563,-2.6875 -1.2729,-0.51049 -1.9173,-0.96517 -1.4375,-1 1.959,-0.14232 -1.7957,-3.0625 -3.9375,-3.06251 -1.2752,0 -2.5963,-0.44799 -2.9375,-1 -0.3411,-0.55202 -1.7212,-0.71164 -3.0625,-0.375 -1.5865,0.3982 -2.4375,0.16849 -2.4375,-0.625 0,-0.81994 -1.0652,-1.04981 -3.25,-0.6875 -1.78746,0.29639 -4.14996,0.15906 -5.24996,-0.3125 -1.1,-0.47152 -1.4375,-0.86761 -0.75,-0.90625 0.6875,-0.0387 1.25,-0.57254 1.25,-1.15625 0,-0.97481 -5.1672,-0.71067 -11.5937,0.59375 -1.1486,0.23313 -2.9486,-0.21673 -4,-1.03125 -1.4885,-1.15308 -1.5217,-1.3578802 -0.2188,-0.90625 1.0719,0.37153 2.069,-0.16923 2.7813,-1.5000002 0.8923,-1.667285 0.8097,-2.093745 -0.375,-2.093745 -0.8119,0 -1.7449,0.4667 -2.0938,1.031245 -0.3489,0.56459 -1.1665,0.95349 -1.8125,0.84375 C 157.1729,8.4463448 152,10.933585 152,11.922375 c 0,0.41588 0.5625,0.98222 1.25,1.28125 0.6875,0.29901 0.0114,0.31252 -1.5,0 -2.1914,-0.45314 -3.341,0.0528 -5.6562,2.53125 -3.2797,3.51098 -4.0938,3.81171 -4.0938,1.5 0,-1.2514 -0.6003,-1.46917 -2.7187,-0.9375 -2.693,0.67588 -2.6841,0.65857 -0.8438,-1.375 1.8249,-2.01642 1.8105,-2.05353 -0.5312,-2.9375 -1.3134,-0.49577 -2.7438,-0.71165 -3.1563,-0.46875 -0.4125,0.24288 -0.75,-0.0907 -0.75,-0.75 0,-0.65933 -0.7875,-1.8005902 -1.75,-2.5312502 -1.6531,-1.254905 -1.6438,-1.344945 0.125,-1.374995 1.452,-0.0247 1.6137,-0.33435 0.75,-1.375 -1.3211,-1.59185 -0.4777,-2.65625 2.0625,-2.65625 2.0415,0 2.4889,-1.59746 0.625,-2.21875 -0.6573,-0.21912 -2.7948,0.16704 -4.75,0.84375 -2.8479,0.9857 -3.8608,0.96253 -5.0625,-0.0625 -1.2113,-1.03318 -3.2963,-1.48498 -5.4062,-1.375 z m -92.25,44.2187552 c 0.4295,-0.0515 0.8971,0.17451 1.1562,0.59375 0.3455,0.55898 -0.08,1.00001 -0.9375,1 -1.7565,0 -2.012,-0.58028 -0.625,-1.4375 0.128,-0.0791 0.2631,-0.13909 0.4063,-0.15625 z m -7.9375,3.9375 c -0.1196,0.0231 -0.2688,0.0713 -0.4063,0.15625 -0.55,0.33992 -1,1.075 -1,1.625 0,0.55 0.45,0.71493 1,0.375 0.55,-0.33992 1,-1.04374 1,-1.59375 0,-0.4125 -0.2352,-0.63178 -0.5937,-0.5625 z m 199.12496,33 c 0.8163,0 1.4687,0.6104 1.4687,1.34375 0,1.68354 -0.4466,1.68352 -1.8437,0 -0.8376,-1.00925 -0.7484,-1.34372 0.375,-1.34375 z m -3.875,4.0625 c 1.1699,-0.14115 3.6514,0.63388 4.8125,1.71875 0.6,0.56059 0.6,0.836 0,0.75 -3.8471,-0.55148 -5.4688,-1.1392 -5.4688,-2 0,-0.2729 0.2663,-0.4217 0.6563,-0.46875 z m -9.4688,5.8125 c 0.1995,-0.0726 0.5516,0.11403 1,0.5625 0.6509,0.65083 0.9405,1.43458 0.6563,1.71875 -0.6674,0.66739 -1.8438,-0.50899 -1.8438,-1.84375 0,-0.23498 0.0678,-0.39393 0.1875,-0.4375 z M 143,94.828685 c 0.55,0 1,0.19497 1,0.4375 0,0.24254 -0.45,0.72259 -1,1.0625 -0.55,0.33991 -1,0.14496 -1,-0.4375 0,-0.58246 0.45,-1.06249 1,-1.0625 z m -29.9062,2.5625 c 0.6157,-0.0219 1.3914,0.31077 1.9375,0.96875 0.6796,0.81894 0.9661,1.46876 0.6562,1.46875 -0.3099,0 -0.842,-0.44103 -1.1875,-1 -0.3454,-0.55897 -1.0505,-0.75395 -1.5625,-0.4375 -0.512,0.31643 -0.9375,0.3375 -0.9375,0.0625 0,-0.67738 0.478,-1.0406 1.0938,-1.0625 z m 104.99996,8.562495 c 0.3474,-0.0143 0.7327,0.0743 1.0937,0.21875 0.7977,0.31922 0.5713,0.54575 -0.5937,0.59375 -1.0541,0.0434 -1.6448,-0.19892 -1.3125,-0.53125 0.1661,-0.16614 0.4651,-0.26694 0.8125,-0.28125 z m -0.25,3.9375 c 0.2942,-0.082 0.9887,0.18335 2.0312,0.84375 0.7545,0.47797 1.2088,1.37353 1,2 -0.2296,0.68869 -1.0775,0.34837 -2.125,-0.875 -1.0105,-1.18014 -1.2846,-1.86336 -0.9062,-1.96875 z M 2.6563,110.98493 c -0.1219,0.0317 -0.223,0.098 -0.3125,0.1875 -0.2935,0.29349 -0.2376,1.00717 0.125,1.59375 0.8147,1.31822 2.5312,1.40298 2.5312,0.125 0,-1.03238 -1.4906,-2.1284 -2.3437,-1.90625 z m 30.5312,1.84375 c 0.5219,0 0.2938,0.67501 -0.5312,1.5 -1.9495,1.94942 -3.2742,1.94943 -1.6563,0 0.6847,-0.825 1.6656,-1.49999 2.1875,-1.5 z m -9,1 c 0.7872,0 2.189,0.56251 3.0938,1.25 1.3143,0.99874 1.4022,1.55153 0.4375,2.75 -1.6425,2.04037 -3.4133,2.24207 -4.0938,0.46875 -0.3099,-0.80761 -0.0688,-1.46874 0.5313,-1.46875 0.7197,0 0.6649,-0.51052 -0.1563,-1.5 -1.0079,-1.21451 -0.9714,-1.49999 0.1875,-1.5 z m -12.7812,1.34375 c 0.2721,-0.0721 0.6525,0.38234 0.9375,1.125 0.6761,1.76211 0.111,2.06422 -0.875,0.46875 -0.3626,-0.58659 -0.4497,-1.26909 -0.1875,-1.53125 0.0327,-0.0328 0.0861,-0.0522 0.125,-0.0625 z m 10.1875,0.71875 c 0.2482,0 0.4062,0.47717 0.4062,1.4375 0,0.825 -0.436,1.50001 -0.9687,1.5 -0.5328,0 -0.6916,-0.67499 -0.375,-1.5 0.3685,-0.96033 0.6892,-1.4375 0.9375,-1.4375 z m 192.87496,0 c 0.276,0 0.6352,0.29681 1.0312,0.9375 0.3399,0.55 0.145,1.00001 -0.4375,1 -0.5824,0 -1.0625,-0.44999 -1.0625,-1 0,-0.64069 0.1927,-0.9375 0.4688,-0.9375 z m 5.7187,2.03125 c 0.93,-0.0387 1.9726,0.35626 2.3125,0.90625 0.7107,1.14988 0.6759,1.14989 -2,0 -1.6304,-0.70061 -1.691,-0.84897 -0.3125,-0.90625 z M 87.4688,119.89118 c 0.276,0 0.6352,0.29681 1.0312,0.9375 0.3399,0.55 0.145,1.00001 -0.4375,1 -0.5825,0 -1.0625,-0.44999 -1.0625,-1 0,-0.64069 0.1927,-0.9375 0.4688,-0.9375 z m 13.1562,2.125 c 0.7075,-0.0971 0.3579,2.78112 -0.7812,5.28125 -0.7902,1.73423 -1.7294,2.39486 -2.875,2.03125 C 94.6553,128.5944 92,129.75042 92,131.48493 c 0,1.15084 -0.3952,1.20701 -2.125,0.28125 -1.7448,-0.93382 -2.3285,-0.84289 -3.0625,0.46875 -0.4967,0.88751 -1.5112,1.59376 -2.25,1.59375 -1.7821,0 -2.9002,-3.03736 -1.5937,-4.34375 0.7103,-0.71037 1.0312,-0.51304 1.0312,0.65625 0,2.7709 2.0281,1.92362 3.1563,-1.3125 0.5749,-1.64935 1.4893,-2.70988 2.0312,-2.375 0.5419,0.33489 2.9767,0.72207 5.4063,0.875 3.1904,0.20082 4.4409,-0.0911 4.5312,-1.09375 0.2469,-2.74185 0.3858,-3.22959 1.125,-3.96875 0.1452,-0.14523 0.2739,-0.23613 0.375,-0.25 z m 115.68746,0.0625 c -0.2664,-0.0173 -0.3125,0.33764 -0.3125,1.0625 0,1.84586 3.5556,4.09949 5.0313,3.1875 0.5386,-0.3329 0.9687,0.11009 0.9687,1 0,0.88992 0.45,1.33993 1,1 0.55,-0.33992 1,-1.52039 1,-2.625 0,-1.57646 -0.4364,-1.85988 -2.0625,-1.34375 -1.3234,0.42 -2.7683,0.021 -4,-1.09375 -0.8629,-0.78095 -1.3586,-1.17019 -1.625,-1.1875 z M 96.3438,122.23493 c 0.4295,-0.0515 0.8971,0.17452 1.1562,0.59375 0.3455,0.55897 -0.08,1.00001 -0.9375,1 -1.7565,0 -2.0121,-0.58028 -0.625,-1.4375 0.128,-0.0791 0.2631,-0.13909 0.4063,-0.15625 z m -82.7813,0.90625 c -0.7718,-3.1e-4 -1.3572,1.04342 -0.9062,2.21875 0.3098,0.80738 0.9776,1.46876 1.4687,1.46875 1.0261,0 1.203,-2.32822 0.25,-3.28125 -0.2667,-0.26669 -0.5552,-0.40615 -0.8125,-0.40625 z m 58.625,1.4375 c 0.165,-0.14883 0.5116,0.50197 0.875,1.71875 0.4845,1.62236 0.7201,3.09239 0.5313,3.28125 -0.5331,0.5331 -1.596,-2.7002 -1.5,-4.5625 0.0118,-0.22938 0.0387,-0.38789 0.0937,-0.4375 z m 8.2813,1.3125 c 0.276,0 0.6352,0.29681 1.0312,0.9375 0.3399,0.55 0.145,1.00001 -0.4375,1 -0.5825,0 -1.0625,-0.44999 -1.0625,-1 0,-0.64069 0.1927,-0.9375 0.4688,-0.9375 z m 26.0937,3.28125 c 1.9384,0 1.8595,1.30099 -0.125,2.0625 -2.2286,0.85521 -2.4215,0.7868 -1.8437,-0.71875 0.2814,-0.73334 1.1674,-1.34372 1.9687,-1.34375 z M 9,132.82868 c -0.55,0 -1,0.45001 -1,1 0,0.55 0.45,1.00001 1,1 0.55,0 1,-0.44999 1,-1 0,-0.55 -0.45,-0.99999 -1,-1 z m 199.09376,16.12501 c 0.3474,-0.0143 0.7327,0.0743 1.0937,0.21875 0.7977,0.31922 0.5713,0.54575 -0.5937,0.59375 -1.0541,0.0434 -1.6448,-0.19892 -1.3125,-0.53125 0.1661,-0.16614 0.4651,-0.26694 0.8125,-0.28125 z m -3.625,1.34375 c 0.0602,0.0225 0.1181,0.10938 0.1875,0.28125 0.2774,0.6875 0.2773,1.81251 0,2.5 -0.2774,0.6875 -0.5001,0.12501 -0.5,-1.25 0,-1.03125 0.1316,-1.59863 0.3125,-1.53125 z m -2.5,4.5625 c 0.525,0 1.1313,0.3218 1.5312,0.96875 0.3399,0.55 -0.08,1.00001 -0.9375,1 -0.8574,0 -1.5625,-0.44999 -1.5625,-1 0,-0.64696 0.4437,-0.96875 0.9688,-0.96875 z m -20.2188,0.0625 c 1.0558,0.0476 1.2578,0.28821 0.5,0.59375 -0.691,0.27855 -0.9984,0.9032 -0.6875,1.40625 0.6566,1.06237 0.0986,1.22369 -0.875,0.25 -1.22196,-1.22193 -0.70816,-2.32991 1.0625,-2.25 z m 26.25,0.90625 c -0.55,0 -1,0.70505 -1,1.5625 0,0.85746 0.45,1.27743 1,0.9375 1.2939,-0.79968 1.2939,-2.49999 0,-2.5 z m -53.93746,10.46875 c 0.6336,-0.0832 0.2364,0.80063 -1.2187,2.6875 -3.7216,4.82595 -6.8697,4.79315 -6.8125,-0.0625 0.0264,-2.23724 0.1798,-2.35929 1.0625,-0.84375 1.2292,2.11037 3.7764,2.31072 4.5312,0.34375 0.3003,-0.78248 1.2301,-1.69983 2.0938,-2.03125 0.1327,-0.0509 0.2532,-0.0819 0.3437,-0.0937 z M 137,167.82869 c 0.55,0 1,0.19497 1,0.4375 0,0.24254 -0.45,0.72259 -1,1.0625 -0.55,0.33992 -1,0.14497 -1,-0.4375 0,-0.58246 0.45,-1.06249 1,-1.0625 z m 3.4688,0.5 c 0.0576,-0.005 0.119,0.0808 0.1875,0.25 0.274,0.67703 0.2847,2.02705 0.0312,3 -0.2535,0.97297 -0.4797,0.40001 -0.5,-1.25 -0.0153,-1.2375 0.1083,-1.98438 0.2813,-2 z m -126.2813,0.5 c 0.4583,0 0.8125,0.67501 0.8125,1.5 0,0.825 -0.3542,1.50001 -0.8125,1.5 -0.4583,0 -0.8437,-0.67499 -0.8437,-1.5 0,-0.825 0.3854,-1.49999 0.8437,-1.5 z m 111.2188,1.34375 c 0.3585,-0.0603 0.5937,0.15691 0.5937,0.59375 0,0.58246 -0.45,1.06251 -1,1.0625 -1.2814,0 -1.2814,-0.70805 0,-1.5 0.1375,-0.085 0.2867,-0.13615 0.4063,-0.15625 z m -92.9063,1 c 0.7766,0 1.1895,0.3854 0.9063,0.84375 -0.6516,1.05421 -1.1298,1.0542 -1.7813,0 -0.2833,-0.45834 0.0984,-0.84372 0.875,-0.84375 z m 100.75,0.53125 c 2.1762,-0.0171 2.75,0.32586 2.75,1.21875 0,0.67915 -1.1125,0.82082 -3,0.40625 -1.7176,-0.37725 -3,-0.24056 -3,0.3125 0,0.53127 -1.35,1.16408 -3,1.40625 -1.65,0.24217 -3,0.0916 -3,-0.34375 0,-1.23144 3.1935,-2.64768 6.5,-2.875 1.1187,-0.0769 2.0246,-0.1193 2.75,-0.125 z m -115.4375,2.15625 c 1.2876,-0.009 2.0321,0.41113 1.6875,0.96875 -0.7432,1.2025 -0.6393,1.20251 -2.5,0 -1.2068,-0.77988 -1.0451,-0.95643 0.8125,-0.96875 z m 4.4375,0 c 0.9625,-0.008 1.75,0.41876 1.75,0.96875 0,1.21961 -0.1128,1.21962 -2,0 -1.2819,-0.82843 -1.2456,-0.95566 0.25,-0.96875 z m 6.3438,0.625 c 0.4535,-0.0372 1.0507,0.39847 1.9062,1.34375 1.3859,1.5314 1.4695,2.01161 0.4063,2 -2.3055,-0.0251 -3.8568,-1.44558 -3.0313,-2.78125 0.2161,-0.34956 0.4466,-0.54018 0.7188,-0.5625 z M 104,175.89119 c 0.825,-0.0111 2.1597,0.39459 2.9688,0.90625 2.4445,1.54599 0.7162,1.98595 -1.9688,0.5 -1.4485,-0.80164 -1.8696,-1.39461 -1,-1.40625 z m 14.125,0.40625 c 1.5827,0.021 2.875,0.36758 2.875,0.78125 0,0.4137 -0.627,0.75001 -1.4062,0.75 -0.7791,0 -1.5648,0.47581 -1.75,1.03125 -0.1851,0.55543 -0.8504,0.17769 -1.4688,-0.8125 -0.9862,-1.57918 -0.7741,-1.78357 1.75,-1.75 z M 95,176.82869 c 0.55,0 1,0.19497 1,0.4375 0,0.24254 -0.45,0.72259 -1,1.0625 -0.55,0.33992 -1,0.14497 -1,-0.4375 0,-0.58246 0.45,-1.06249 1,-1.0625 z m 19.1875,1 c 0.6416,0 0.8619,0.29434 0.5,0.65625 -0.3619,0.3619 -0.175,1.26188 0.4375,2 0.7003,0.84375 0.7635,1.34376 0.125,1.34375 -0.5585,0 -1.2912,-0.6925 -1.625,-1.5625 -0.8345,-2.17476 -0.7754,-2.43749 0.5625,-2.4375 z m -12.75,0.34375 c 0.3267,-0.0242 0.5625,0.23778 0.5625,0.71875 0,0.67026 0.7128,0.89333 1.6563,0.53125 1.2973,-0.49781 1.3952,-0.32873 0.5,0.75 -0.623,0.75069 -0.8307,1.63808 -0.4688,2 0.3619,0.36189 -0.0834,0.65626 -1,0.65625 -0.9167,0 -1.7079,-0.11249 -1.75,-0.25 -0.6325,-2.06682 -0.5731,-3.83046 0.1563,-4.28125 0.1252,-0.0774 0.2348,-0.11692 0.3437,-0.125 z m 109.90626,1.125 c -0.4078,0.0878 -0.4197,0.58746 0.125,1.46875 0.3625,0.58659 1.4137,1.04875 2.3437,1.03125 1.4847,-0.0279 1.4731,-0.18876 -0.2187,-1.46875 -1.0276,-0.77738 -1.8422,-1.11901 -2.25,-1.03125 z m 4,22.9375 c 0.4288,-0.0656 0.8834,0.14051 1.125,0.53125 0.322,0.52097 0.1459,1.20929 -0.375,1.53125 -0.521,0.32198 -1.2093,0.14594 -1.5313,-0.375 -0.322,-0.52097 -0.1772,-1.20928 0.3438,-1.53125 0.1302,-0.0805 0.2945,-0.13438 0.4375,-0.15625 z m 5.1875,0.375 c -0.6858,0.12813 -0.7099,1.29223 0.5,2.75 0.6643,0.80045 1.6327,1.19856 2.1562,0.875 0.5332,-0.32957 0.1588,-1.45467 -0.8437,-2.5625 -0.7563,-0.83565 -1.4011,-1.13938 -1.8125,-1.0625 z m -208.34376,0.4375 c 0.1995,-0.0726 0.5515,0.11403 1,0.5625 0.6508,0.65084 0.9404,1.43459 0.6563,1.71875 C 13.1764,205.99608 12,204.8197 12,203.48494 c 0,-0.23498 0.0678,-0.39393 0.1875,-0.4375 z m -6,2 C 6.0678,205.09104 6,205.24996 6,205.48494 c 0,0.56834 0.3208,1.32087 0.6875,1.6875 0.3667,0.36667 0.8721,0.44042 1.1563,0.15625 0.2841,-0.28416 -0.005,-1.0679 -0.6563,-1.71875 -0.4485,-0.44848 -0.8005,-0.63511 -1,-0.5625 z m 28.0938,1.90625 c 0.0843,-0.0843 0.3499,0.13487 0.8437,0.625 0.6834,0.67834 0.9954,1.47334 0.6875,1.78125 -0.3079,0.30789 -0.8745,-0.23254 -1.25,-1.21875 -0.2713,-0.7126 -0.3656,-1.10317 -0.2812,-1.1875 z m 180.65616,0.875 c 0.5825,0 1.0625,0.45001 1.0625,1 0,1.28138 -0.7081,1.28139 -1.5,0 -0.3399,-0.55 -0.145,-0.99999 0.4375,-1 z m -98.53116,4.09375 c 0.1644,-0.0601 0.5259,0.0634 1.0937,0.28125 0.9306,0.35709 2.7698,0.91773 4.0938,1.25 2.6161,0.65659 3.3464,3.37501 0.9062,3.375 -0.825,0 -1.5,0.66101 -1.5,1.46875 0,0.92752 -0.5648,1.25784 -1.5625,0.875 -1.2536,-0.48105 -1.5116,-0.0102 -1.25,2.28125 0.1956,1.71332 -0.2975,3.36077 -1.1875,4.0625 -1.2165,0.95919 -1.2528,1.42067 -0.2187,2.46875 1.0147,1.02847 1.6882,1.06902 3.25,0.0937 1.943,-1.21344 1.9239,-1.20878 0.0625,3 -1.0339,2.33778 -2.7244,7.1031 -3.75,10.59375 -1.8375,6.25299 -1.8874,6.33272 -3.6875,4.34375 -2.7489,-3.03756 -6.9399,-17.38104 -5.375,-18.375 1.4543,-0.92369 2.5826,-1.10281 5.0625,-0.84375 1.5464,0.16154 1.7238,-0.33094 1.25,-3.3125 -0.5233,-3.29309 -0.3485,-3.60433 2.9062,-4.78125 1.9112,-0.69112 3.1569,-1.5085 2.75,-1.8125 -0.4069,-0.30402 -1.3519,-1.62027 -2.0937,-2.9375 -0.7546,-1.33962 -1.0242,-1.931 -0.75,-2.03125 z m -76.5313,1.90625 c 0.55,0 1.2851,0.45001 1.625,1 0.3399,0.55 0.175,1.00001 -0.375,1 -0.55,0 -1.2851,-0.44999 -1.625,-1 -0.3399,-0.55 -0.175,-0.99999 0.375,-1 z m 172.87496,3.5625 c -0.9219,0.21918 -1.1063,1.73745 -0.0625,2.78125 1.1212,1.12122 2.3125,0.75149 2.3125,-0.71875 0,-0.76616 -0.675,-1.65215 -1.5,-1.96875 -0.2819,-0.10818 -0.5373,-0.14433 -0.75,-0.0937 z m -14.4687,4.40625 c 0.3239,-0.0265 0.7153,0.23146 1.0937,0.84375 0.2712,0.43876 0.1562,1.38605 -0.2812,2.09375 -0.5799,0.93825 -0.9464,0.70744 -1.3438,-0.8125 -0.3287,-1.25706 -0.009,-2.08075 0.5313,-2.125 z m -61.03126,4.1875 c 0.4258,-0.031 0.75,0.16335 0.75,0.65625 0,0.53699 -0.6916,1.25955 -1.5625,1.59375 -0.974,0.37373 -1.4311,0.13702 -1.1875,-0.59375 0.3114,-0.93428 1.2904,-1.60464 2,-1.65625 z m 34.6875,1.84375 c 0.5825,0 1.0625,0.45001 1.0625,1 0,1.28138 -0.7081,1.28139 -1.5,0 -0.3399,-0.55 -0.145,-0.99999 0.4375,-1 z m -62.25,0.25 c -2.2038,0.11963 -2.3594,1.77003 0.3125,2.46875 1.1,0.28766 2,0.9204 2,1.40625 0,0.48585 0.4742,0.87501 1.0625,0.875 0.5882,0 0.9257,-0.96245 0.75,-2.15625 -0.2221,-1.50859 -1.1511,-2.27852 -3.0625,-2.53125 -0.3964,-0.0524 -0.7477,-0.0796 -1.0625,-0.0625 z m -28.625,7.84375 c 0.1535,0 0.8078,0.4998 2.1563,1.46875 1.4952,1.07439 2.7327,2.27501 2.75,2.6875 0.0595,1.42113 -1.746,0.2073 -3.9688,-2.6875 -0.744,-0.96896 -1.091,-1.46875 -0.9375,-1.46875 z m 71.125,2.90625 c -0.5262,0 -1.2041,0.93108 -1.5,2.0625 -0.3422,1.30858 -0.0888,1.93558 0.6563,1.6875 1.4383,-0.47887 2.1713,-3.74999 0.8437,-3.75 z m -78.5312,3.25 c 0.2476,-0.0942 0.336,0.36286 0.3437,1.5 0.008,1.2375 -0.45,2.25001 -1,2.25 -1.2529,0 -1.2529,-1.06123 0,-3 0.294,-0.45486 0.5077,-0.69349 0.6563,-0.75 z" />
</svg>
