<?xml version="1.0" encoding="UTF-8" standalone="no"?>
<!-- Created with Inkscape (http://www.inkscape.org/) -->

<svg
   xmlns:dc="http://purl.org/dc/elements/1.1/"
   xmlns:cc="http://creativecommons.org/ns#"
   xmlns:rdf="http://www.w3.org/1999/02/22-rdf-syntax-ns#"
   xmlns:svg="http://www.w3.org/2000/svg"
   xmlns="http://www.w3.org/2000/svg"
   xmlns:sodipodi="http://sodipodi.sourceforge.net/DTD/sodipodi-0.dtd"
   xmlns:inkscape="http://www.inkscape.org/namespaces/inkscape"
   width="53.200096mm"
   height="103.1125mm"
   viewBox="0 0 188.50428 365.35923"
   id="svg4432"
   version="1.1"
   inkscape:version="0.91 r13725"
   sodipodi:docname="leaf.svg">
  <defs
     id="defs4434">
    <inkscape:path-effect
       effect="spiro"
       id="path-effect5302"
       is_visible="true" />
    <inkscape:path-effect
       effect="spiro"
       id="path-effect5298"
       is_visible="true" />
    <inkscape:path-effect
       effect="spiro"
       id="path-effect5185"
       is_visible="true" />
    <inkscape:path-effect
       effect="spiro"
       id="path-effect5180"
       is_visible="true" />
    <inkscape:path-effect
       effect="spiro"
       id="path-effect5175"
       is_visible="true" />
    <inkscape:path-effect
       effect="spiro"
       id="path-effect5171"
       is_visible="true" />
    <inkscape:path-effect
       effect="spiro"
       id="path-effect5167"
       is_visible="true" />
    <inkscape:path-effect
       effect="spiro"
       id="path-effect5163"
       is_visible="true" />
    <inkscape:path-effect
       effect="spiro"
       id="path-effect5159"
       is_visible="true" />
    <inkscape:path-effect
       effect="spiro"
       id="path-effect5155"
       is_visible="true" />
    <inkscape:path-effect
       effect="spiro"
       id="path-effect5151"
       is_visible="true" />
    <inkscape:path-effect
       effect="spiro"
       id="path-effect5185-7"
       is_visible="true" />
    <inkscape:path-effect
       effect="spiro"
       id="path-effect5185-7-9"
       is_visible="true" />
    <inkscape:path-effect
       effect="spiro"
       id="path-effect5185-2"
       is_visible="true" />
    <inkscape:path-effect
       effect="spiro"
       id="path-effect5185-7-8"
       is_visible="true" />
    <inkscape:path-effect
       effect="spiro"
       id="path-effect5185-7-9-9"
       is_visible="true" />
    <inkscape:path-effect
       effect="spiro"
       id="path-effect5185-7-9-9-7"
       is_visible="true" />
  </defs>
  <sodipodi:namedview
     id="base"
     pagecolor="#ffffff"
     bordercolor="#666666"
     borderopacity="1.0"
     inkscape:pageopacity="0.0"
     inkscape:pageshadow="2"
     inkscape:zoom="0.49497475"
     inkscape:cx="13.162218"
     inkscape:cy="187.37816"
     inkscape:document-units="px"
     inkscape:current-layer="layer1"
     showgrid="false"
     fit-margin-top="0"
     fit-margin-left="0"
     fit-margin-right="0"
     fit-margin-bottom="0"
     inkscape:window-width="1600"
     inkscape:window-height="881"
     inkscape:window-x="0"
     inkscape:window-y="19"
     inkscape:window-maximized="0" />
  <metadata
     id="metadata4437">
    <rdf:RDF>
      <cc:Work
         rdf:about="">
        <dc:format>image/svg+xml</dc:format>
        <dc:type
           rdf:resource="http://purl.org/dc/dcmitype/StillImage" />
        <dc:title></dc:title>
      </cc:Work>
    </rdf:RDF>
  </metadata>
  <g
     inkscape:label="Capa 1"
     inkscape:groupmode="layer"
     id="layer1"
     transform="translate(-395.69987,-597.79297)">
    <path
       style="fill:#000000;fill-opacity:1;fill-rule:evenodd;stroke:none;stroke-width:1px;stroke-linecap:butt;stroke-linejoin:miter;stroke-opacity:1"
       d="m 489.94336,597.79297 c 0,0 -118.83752,181.80339 -89.62109,273.75195 16.3139,51.34232 59.7525,67.6105 92.41153,67.67969 0.3728,7.9e-4 1.64375,-0.15557 1.64375,-0.15557 9.25181,16.80927 10.37414,17.87254 15.19276,22.57549 3.25587,3.17772 7.61215,1.01915 8.02052,-3.5543 0.367,-4.10999 -2.24199,-14.51026 -6.83781,-20.70224 26.09923,-6.66435 57.46381,-30.2204 68.81339,-65.84307 29.27555,-91.88661 -89.62305,-273.75195 -89.62305,-273.75195 z m 0.0898,19.23242 c 0.27496,-0.009 0.57222,0.0973 0.89453,0.33008 13.44115,9.70564 -3.7403,74.21282 11.34571,46.54687 3.36521,-6.17139 7.0576,-22.75026 10.75586,-17.24414 3.56721,5.311 -11.27599,21.84591 -14.44141,35.28321 -8.91173,37.83059 -13.08256,85.51917 13.14844,45.32617 6.89872,-10.57071 15.31554,-41.23663 21.89844,-29.7793 6.02753,10.49072 -8.33595,13.79082 -14.17579,37.49024 -4.89188,19.85234 -24.30591,9.37357 -24.59375,28.10546 -1.25615,81.74799 2.26938,76.78809 39.55665,32.53321 11.93061,-14.01462 18.87404,-37.75977 28.00781,-17.13672 7.66709,17.31146 -52.43233,61.18802 -57.4668,78.02344 -7.98137,26.6899 -2.26323,71.20375 0.23968,76.25307 16.57671,33.44153 9.39226,39.52833 -9.46624,-0.4562 -1.10386,-2.34045 -1.10705,-5.48177 -16.75586,-27.28906 -19.71743,-27.4771 -75.82735,-84.89826 -67.93555,-103.24024 9.48905,-22.05428 26.59946,30.39133 39.3086,44.87305 54.05925,80.38234 32.45416,-13.97891 26.84375,-36.3418 -8.50624,-33.90558 -49.74316,-64.27506 -44.46094,-77.33593 6.47519,-16.01062 19.86776,18.04773 29.15625,27.38672 12.72572,12.79491 16.51848,32.53858 21.3164,4.10742 7.20355,-42.68637 -2.41842,-44.40367 -8.40625,-69.10938 -4.11223,-16.96696 -13.35614,-20.799 -8.83203,-27.53515 4.69065,-6.98411 10.16972,12.83799 13.64063,21.87109 15.3094,39.84301 1.89808,-72.38018 10.42187,-72.66211 z"
       id="path5071"
       inkscape:connector-curvature="0"
       sodipodi:nodetypes="csscsscsccsssssssscsssssscsssssssc" />
  </g>
</svg>
