<?xml version="1.0" encoding="UTF-8" standalone="no"?>
<!-- Created with Inkscape (http://www.inkscape.org/) -->

<svg
   xmlns:dc="http://purl.org/dc/elements/1.1/"
   xmlns:cc="http://creativecommons.org/ns#"
   xmlns:rdf="http://www.w3.org/1999/02/22-rdf-syntax-ns#"
   xmlns:svg="http://www.w3.org/2000/svg"
   xmlns="http://www.w3.org/2000/svg"
   xmlns:sodipodi="http://sodipodi.sourceforge.net/DTD/sodipodi-0.dtd"
   xmlns:inkscape="http://www.inkscape.org/namespaces/inkscape"
   width="380.50702"
   height="120.00009"
   viewBox="0 0 380.50698 120.0001"
   id="svg2"
   version="1.1"
   inkscape:version="0.91 r13725"
   sodipodi:docname="mouse.svg"
   inkscape:export-filename="/home/malditobarbudo/Documentos/00_Trabajo/01_Proyectos_personales/ggpic/inst/pics/rainbow_building.png"
   inkscape:export-xdpi="90"
   inkscape:export-ydpi="90">
  <defs
     id="defs4" />
  <sodipodi:namedview
     id="base"
     pagecolor="#ffffff"
     bordercolor="#666666"
     borderopacity="1.0"
     inkscape:pageopacity="0.0"
     inkscape:pageshadow="2"
     inkscape:zoom="5.6"
     inkscape:cx="187.21124"
     inkscape:cy="51.852075"
     inkscape:document-units="px"
     inkscape:current-layer="layer1"
     showgrid="false"
     fit-margin-top="0"
     fit-margin-left="0"
     fit-margin-right="0"
     fit-margin-bottom="0"
     inkscape:window-width="1600"
     inkscape:window-height="881"
     inkscape:window-x="0"
     inkscape:window-y="19"
     inkscape:window-maximized="0"
     units="px" />
  <metadata
     id="metadata7">
    <rdf:RDF>
      <cc:Work
         rdf:about="">
        <dc:format>image/svg+xml</dc:format>
        <dc:type
           rdf:resource="http://purl.org/dc/dcmitype/StillImage" />
        <dc:title></dc:title>
      </cc:Work>
    </rdf:RDF>
  </metadata>
  <g
     inkscape:label="Capa 1"
     inkscape:groupmode="layer"
     id="layer1"
     transform="translate(-20.001815,-127.55124)">
    <g
       id="g21677"
       transform="matrix(-3.2184632,0,0,3.2184632,886.95432,-416.07559)">
      <path
         sodipodi:nodetypes="caac"
         inkscape:connector-curvature="0"
         id="path14408"
         d="m 268.0816,195.21906 c 0,0 -9.89521,4.89399 -15.08881,4.2884 -5.17922,-0.60381 -8.45177,-7.35902 -13.65934,-7.62382 -5.47096,-0.27827 -15.08881,6.51201 -15.08881,6.51201"
         style="fill:none;fill-rule:evenodd;stroke:#f5d4d4;stroke-width:2.54127336px;stroke-linecap:round;stroke-linejoin:miter;stroke-opacity:1" />
      <path
         sodipodi:nodetypes="sscaaas"
         inkscape:connector-curvature="0"
         id="path14373"
         d="m 225.28488,203.08989 c -4.96275,4.048 -69.14248,4.22792 -72.77652,0 -2.96087,-3.44469 13.09223,-14.60012 26.45907,-18.64532 6.32193,-6.77961 17.61217,-14.6507 28.34796,-15.49669 4.43848,-0.34967 9.11971,1.68894 12.57864,4.49221 3.55161,2.8785 6.16345,7.22484 7.18781,11.6802 1.34886,5.86679 2.86778,14.16481 -1.79696,17.9696 z"
         style="fill:#b4b1b1;fill-opacity:1;fill-rule:evenodd;stroke:none;stroke-width:1px;stroke-linecap:butt;stroke-linejoin:miter;stroke-opacity:1" />
      <path
         sodipodi:nodetypes="aaaaaaaaa"
         inkscape:connector-curvature="0"
         id="path14375"
         d="m 169.34206,179.17676 c 1.09938,-3.21191 6.45966,-3.32856 9.80522,-2.7527 2.92198,0.50164 5.77413,2.56668 7.26669,5.12854 1.19903,2.05767 1.69546,4.94329 0.7061,7.10972 -1.25976,2.7583 -4.56865,6.25128 -7.43028,5.24824 -1.46565,-0.51359 -0.37341,-3.22513 -1.29422,-4.47595 -0.96817,-1.3146 -2.9798,-1.49833 -4.08977,-2.69603 -0.89151,-0.96187 -1.20025,-2.33696 -1.91043,-3.43962 -0.92604,-1.43759 -3.60706,-2.50442 -3.05331,-4.1222 z"
         style="fill:#ffd7d7;fill-opacity:1;fill-rule:evenodd;stroke:none;stroke-width:1px;stroke-linecap:butt;stroke-linejoin:miter;stroke-opacity:1" />
      <path
         sodipodi:nodetypes="aaaaa"
         inkscape:connector-curvature="0"
         id="path14378"
         d="m 173.47955,192.48846 c -0.10597,0.86378 -1.21419,1.57254 -2.08463,1.57254 -0.87041,0 -2.07281,-0.70215 -2.08463,-1.57254 -0.0153,-1.08055 1.45973,-2.13873 2.53388,-2.02158 0.86164,0.094 1.741,1.16111 1.63538,2.02158 z"
         style="color:#000000;clip-rule:nonzero;display:inline;overflow:visible;visibility:visible;opacity:1;isolation:auto;mix-blend-mode:normal;color-interpolation:sRGB;color-interpolation-filters:linearRGB;solid-color:#000000;solid-opacity:1;fill:#484948;fill-opacity:1;fill-rule:nonzero;stroke:none;stroke-width:0.67500001;stroke-linecap:round;stroke-linejoin:round;stroke-miterlimit:10;stroke-dasharray:none;stroke-dashoffset:0;stroke-opacity:1;color-rendering:auto;image-rendering:auto;shape-rendering:auto;text-rendering:auto;enable-background:accumulate" />
      <path
         sodipodi:nodetypes="aaaaaaa"
         inkscape:connector-curvature="0"
         id="path14405"
         d="m 154.53172,199.78243 c -0.96896,-0.19822 -2.3274,-0.0407 -2.85893,0.79414 -0.34612,0.54307 -0.0272,1.36213 0.31766,1.90596 0.44835,0.70698 1.22979,1.37025 2.06478,1.42946 0.59044,0.0407 1.11849,-0.43404 1.5883,-0.79414 0.50601,-0.3878 1.32458,-0.79415 1.27063,-1.42947 -0.0859,-1.01346 -1.38608,-1.70189 -2.38244,-1.90595 z"
         style="fill:#000000;fill-opacity:1;fill-rule:evenodd;stroke:#000000;stroke-width:0.76238203;stroke-linecap:butt;stroke-linejoin:miter;stroke-miterlimit:4;stroke-dasharray:none;stroke-opacity:1" />
    </g>
  </g>
</svg>
