<?xml version="1.0" encoding="UTF-8" standalone="no"?>
<!-- Created with Inkscape (http://www.inkscape.org/) -->

<svg
   xmlns:dc="http://purl.org/dc/elements/1.1/"
   xmlns:cc="http://creativecommons.org/ns#"
   xmlns:rdf="http://www.w3.org/1999/02/22-rdf-syntax-ns#"
   xmlns:svg="http://www.w3.org/2000/svg"
   xmlns="http://www.w3.org/2000/svg"
   xmlns:sodipodi="http://sodipodi.sourceforge.net/DTD/sodipodi-0.dtd"
   xmlns:inkscape="http://www.inkscape.org/namespaces/inkscape"
   version="1.0"
   width="131.33414"
   height="251.64626"
   id="svg2"
   inkscape:version="0.91 r13725"
   sodipodi:docname="pine_tree.svg">
  <metadata
     id="metadata4148">
    <rdf:RDF>
      <cc:Work
         rdf:about="">
        <dc:format>image/svg+xml</dc:format>
        <dc:type
           rdf:resource="http://purl.org/dc/dcmitype/StillImage" />
        <dc:title></dc:title>
      </cc:Work>
    </rdf:RDF>
  </metadata>
  <sodipodi:namedview
     pagecolor="#ffffff"
     bordercolor="#666666"
     borderopacity="1"
     objecttolerance="10"
     gridtolerance="10"
     guidetolerance="10"
     inkscape:pageopacity="0"
     inkscape:pageshadow="2"
     inkscape:window-width="1600"
     inkscape:window-height="881"
     id="namedview4146"
     showgrid="false"
     fit-margin-top="0"
     fit-margin-left="0"
     fit-margin-right="0"
     fit-margin-bottom="0"
     inkscape:zoom="0.95794375"
     inkscape:cx="-24.024971"
     inkscape:cy="2.3710394"
     inkscape:window-x="0"
     inkscape:window-y="19"
     inkscape:window-maximized="0"
     inkscape:current-layer="svg2" />
  <defs
     id="defs4" />
  <path
     inkscape:connector-curvature="0"
     id="path3444"
     style="fill:#000000"
     d="m 63.617323,244.62395 c 0.2183,-3.86228 0.0827,-9.95561 -0.3012,-13.54074 -0.6568,-6.13292 -0.8262,-6.47358 -2.864197,-5.75983 -1.1913,0.41723 -3.4035,0.72515 -4.916,0.68426 -1.5125,-0.0409 -2.75,0.22435 -2.75,0.58944 0,0.36508 -1.3342,0.57142 -2.965,0.45852 -2.1454,-0.14854 -3.1315,0.31935 -3.5674,1.69269 -0.6968,2.19548 -3.4676,2.58418 -3.4676,0.48644 0,-1.47179 -1.6175,-1.5836 -3.7385,-0.25842 -0.8355,0.52197 -1.0539,0.29246 -0.6711,-0.70516 0.425,-1.1074 -0.0175,-1.3689 -1.7614,-1.04085 -1.281,0.24097 -1.7665,0.17064 -1.079,-0.1563 1.7198,-0.81781 1.5858,-2.49383 -0.1462,-1.82919 -0.7708,0.29576 -2.1148,-0.48998 -3,-1.75389 l -1.6038,-2.28968 0,2.2225 c 0,1.22238 -0.45,2.22251 -1,2.22251 -0.55,0 -1,-0.3876 -1,-0.86133 0,-0.47373 -1.125,-0.64627 -2.5,-0.38342 -1.4593,0.27897 -2.5,0.0131 -2.5,-0.63867 0,-0.61412 0.8449,-1.11658 1.8776,-1.11658 1.0326,0 2.4137,-0.64607 3.0691,-1.43572 0.6553,-0.78965 2.5052,-1.72427 4.1109,-2.07694 4.6952,-1.03124 4.2233,-2.1212 -0.9319,-2.15206 -2.622,-0.0157 -5.9822,-0.33344 -7.4671,-0.70611 -1.5117,-0.37943 -3.6596,-0.16381 -4.8813,0.49003 -1.6379,0.87655 -2.2772,0.88103 -2.5649,0.018 -0.2108,-0.6323 -0.7871,-0.9 -1.2808,-0.5949 -1.3172,0.81407 -8.0028004,-0.61802 -7.4045004,-1.58608 0.2802,-0.45347 1.9638004,-0.58896 3.7412004,-0.30107 2.8549,0.46241 3.3585,0.18665 4.3191,-2.36528 0.9577,-2.54409 0.8592,-2.90591 -0.8256,-3.03283 -1.4816,-0.11161 -1.6647,0.15508 -0.8119,1.18266 0.8336,1.00439 0.6744,1.49053 -0.6553,2.00078 -0.966,0.3707 -1.915,0.19825 -2.1089,-0.38322 -0.1938,-0.58148 -0.8832,-1.05723 -1.5319,-1.05723 -0.6488004,0 -1.6238004,-1.0125 -2.1667004,-2.25 -0.619,-1.41095 -1.9194,-2.29044 -3.4871,-2.35843 -5.34630003,-0.23188 -5.51850003,-0.3401 -3.1645,-1.98891 2.0007,-1.4013 2.091,-1.73879 0.736,-2.75 -0.8495,-0.63396 -1.83190003,-2.61516 -2.18300003,-4.40266 -0.7927,-4.03486 1.18530003,-4.39698 4.53600003,-0.83041 3.3178,3.53163 7.3966004,5.01409 9.9848004,3.62897 2.1663,-1.15941 2.8422,-3.04856 1.0907,-3.04856 -0.55,0 -0.8875,-0.5625 -0.75,-1.25 0.1375,-0.6875 -0.3125,-1.1375 -1,-1 -0.6875,0.1375 -1.25,-0.15787 -1.25,-0.65638 0,-0.49851 -0.9192,-0.66601 -2.0426,-0.37223 -1.1234004,0.29378 -1.9278004,0.13915 -1.7875004,-0.34362 0.1402,-0.48277 -0.3114,-1.89957 -1.0037,-3.14844 -1.636,-2.95136 -0.8832,-4.00419 3.4436004,-4.8159 2.28,-0.42774 3.1954,-1.00826 2.5723,-1.63137 -0.6232,-0.62312 -1.6939,-0.57853 -3.009,0.1253 -2.5452004,1.36215 -4.1731004,1.39829 -4.1731004,0.0926 0,-0.55 0.8734,-1 1.941,-1 3.3393004,0 3.3437004,-1.97684 0.008,-3.37959 l -3.1925,-1.34236 2.872,-0.72264 2.8720004,-0.72264 -2.7500004,-2.36842 c -1.5125,-1.30263 -2.75,-2.60375 -2.75,-2.89138 0,-0.57139 5.5950004,0.25191 8.0000004,1.1772 0.825,0.3174 1.8,0.61596 2.1667,0.66346 0.3666,0.0475 1.0041,0.42387 1.4166,0.83637 1.5523,1.5523 10.4167,0.38932 10.4167,-1.36663 0,-0.48585 -1.0125,-0.89114 -2.25,-0.90065 -1.2375,-0.01 -3.2871,-1.11095 -4.5546,-2.44766 -1.4316,-1.50974 -2.9179,-2.19505 -3.9236,-1.80912 -1.2704,0.48748 -1.4612,0.20701 -0.8862,-1.30233 0.5671,-1.48843 0.4626,-1.65536 -0.4621,-0.7379 -1.4201,1.40914 -3.2635,-0.0309 -4.3264,-3.37963 -0.4497,-1.41688 -1.2633,-1.94462 -2.4996004,-1.62132 -1.3548,0.35428 -1.9617,-0.19427 -2.3266,-2.10272 -0.4895,-2.56062 0.5414,-3.50381 1.7291,-1.58204 0.9471,1.53251 4.4907004,1.18769 5.1384004,-0.5 0.3166,-0.825 1.2024,-1.5 1.9686,-1.5 0.7661,0 1.393,-0.45 1.393,-1 0,-0.55 -0.675,-1 -1.5,-1 -0.825,0 -1.5,-0.45 -1.5,-1 0,-0.55 -0.7301,-1 -1.6224,-1 -1.2439,0 -1.3626,-0.31311 -0.5087,-1.34201 1.422,-1.71337 0.2322,-2.98676 -1.4704,-1.57372 -0.9791004,0.81251 -1.2496004,0.58852 -1.1345004,-0.9394 0.0832,-1.10347 0.6203,-1.77912 1.1936004,-1.50143 0.5733,0.27768 0.2549,-0.14061 -0.7076004,-0.92953 -0.9625,-0.78892 -1.75,-1.72229 -1.75,-2.07415 0,-1.35998 2.3142004,-0.51966 6.5000004,2.36024 2.3982,1.65 4.6168,3 4.9302,3 1.5197,0 0.2544,-2.94289 -2.4582,-5.71748 -2.1021,-2.15005 -2.6373,-3.26626 -1.75,-3.65015 0.7029,-0.30415 0.0405,-0.29708 -1.472,0.0157 -2.0959,0.43345 -2.75,0.18615 -2.75,-1.03968 0,-0.97792 0.882,-1.63936 2.25,-1.68736 1.2375,-0.0434 1.6875,-0.30592 1,-0.58333 -0.6875,-0.27741 -1.25,-1.21689 -1.25,-2.08772 0,-0.87083 0.3016,-1.28175 0.6702,-0.91316 0.3686,0.3686 1.7157,-0.0149 2.9936,-0.8522 1.3737,-0.9001 4.0192,-1.41247 6.4721,-1.2535 2.6764,0.17345 4.3088,-0.18582 4.6001,-1.01239 0.2483,-0.70469 0.0718,-1.2139 -0.3923,-1.13158 -0.464,0.0823 -1.5187,0.0895 -2.3437,0.0159 -1.3333,-0.11888 -1.3333,-0.24144 0,-1.10311 1.2853,-0.83063 1.2522,-0.97157 -0.2309,-0.98469 -1.807,-0.016 -3.4362,-4.12692 -2.339,-5.90213 0.3642,-0.58943 2.6919,0.28855 5.6653,2.13692 4.1927,2.60633 5.2017,2.89302 5.9605,1.69366 1.3237,-2.09209 1.1497,-3.54936 -0.2559,-2.14376 -0.66,0.66 -1.8401,1.2 -2.6224,1.2 -1.1391,0 -1.1791,-0.2933 -0.2007,-1.47212 0.9806,-1.18158 0.8796,-1.8142 -0.5115,-3.20536 -1.1158,-1.11579 -1.3293,-1.86788 -0.5993,-2.11121 0.6236,-0.20789 1.1339,-0.8208 1.1339,-1.36203 0,-0.54831 -0.9411,-0.68537 -2.1252,-0.30953 -1.4302,0.4539 -1.9015,0.31241 -1.441,-0.43262 0.3885,-0.62867 0.0105,-1.10713 -0.8748,-1.10713 -0.8574,0 -1.559,-0.42344 -1.559,-0.94098 0,-1.9835 2.0062,-2.02588 5.1583,-0.10896 2.9413,1.78875 3.5077,1.84357 5.5077,0.53314 1.2261,-0.80336 2.8823,-1.21004 3.6805,-0.90375 0.7981,0.30629 1.7483,0.0762 2.1114,-0.51128 0.3631,-0.58749 0.1836,-1.06817 -0.3989,-1.06817 -0.5824,0 -1.0733,-0.78749 -1.0908,-1.74999 -0.0288,-1.58346 -0.1715,-1.56527 -1.5,0.19113 -1.7484,2.31163 -1.9321,1.31189 -0.3227,-1.75687 1.1404,-2.17442 1.1358,-2.17559 -1.0211,-0.26013 -2.1629,1.92076 -2.1688,1.9186 -3.3625,-1.24401 -0.7191,-1.90518 -1.807,-3.07086 -2.7289,-2.92412 -0.9467,0.15069 -1.6617,-0.66625 -1.8696,-2.136151 -0.2959,-2.09242 -0.0335,-2.30408 2.1705,-1.7509 3.5474,0.89033 6.0583,-0.19144 4.5797,-1.97301 -0.6255,-0.75376 -0.8721,-2.06162 -0.548,-2.90635 0.4768,-1.2425 0.2242,-1.34044 -1.3224,-0.51274 -3.1251,1.67254 -4.1358,1.24037 -3.4538,-1.47685 0.4009,-1.59734 0.2059,-2.5 -0.54,-2.5 -0.6421,0 -0.8771,-0.469711 -0.5223,-1.043801 0.3548,-0.574102 0.0466,-1.811602 -0.6849,-2.750002 -0.7315,-0.93841 0.6922,0.10773 3.1639,2.32475 2.4716,2.217033 5.9507,4.631743 7.7312,5.366053 1.7805,0.73431 2.9914,1.73288 2.691,2.21905 -0.3005,0.48617 -0.1823,0.91431 0.2627,0.95143 0.4449,0.0371 2.2715,0.25833 4.059,0.49158 1.9518,0.25469 3.25,-0.0147 3.25,-0.67448 0,-0.60421 0.583,-0.87486 1.2955,-0.60145 0.7769,0.29812 1.0457,0.7183 1.1379,-0.5046 0.1156,-1.53585 0.2848,-0.19933 -0.5806,-0.68263 -1.7446,-0.97433 -4.8528,0.27271 -4.8528,-1.09591 0,-0.55 -0.7999,-1 -1.7775,-1 -0.9776,0 -2.7185,-0.6591 -3.8686,-1.46468 -1.1502,-0.80559 -2.3753,-1.18059 -2.7225,-0.83334 -0.3473,0.34725 -0.6314,-0.11864 -0.6314,-1.035301 0,-0.916672 0,-2.004172 0,-2.416672 0,-1.68282 6.7792,-0.71616 10.75,1.53287 l 4.25,0.747182 0,-1.028652 c 0,-1.84764 -0.6256,-2.85224 -2,-3.21165 -2.0478,-0.53552 -2.8074,-2.28975 -0.9915,-2.28975 0.628,0 0.5761,-0.69231 -0.1376,-1.83504 -1.207,-1.93284 -5.9885,-1.86326 -5.5844,0.0813 0.1174,0.56487 -1.024,1.37663 -2.5365,1.80392 -1.7303,0.48881 -2.75,0.39274 -2.75,-0.25907 0,-0.65081 -0.5246,-0.6006 -1.411,0.13504 -0.9601,0.79684 -1.6172,0.83733 -2.0564,0.1267 -0.3549,-0.57437 0.3925,-1.46533 1.661,-1.97992 8.9642,-3.63645 10.7905,-4.58915 11.2894,-5.88918 0.438,-1.14136 0.2601,-1.21539 -0.8021,-0.33383 -0.7507,0.62302 -1.6575,0.84018 -2.0151,0.48257 -0.3576,-0.35761 -2.99,-0.56739 -5.8498,-0.46617 -5.0608,0.17912 -6.3099,-0.49823 -2.1028,-1.14028 3.299,-0.50347 5.327,-2.72011 4.8574,-5.30946 -0.3747,-2.06677 -0.2056,-2.20553 1.4377,-1.17931 1.0243,0.63969 1.7103,1.4105 1.5245,1.71292 -0.1859,0.30242 1.221,0.66426 3.1263,0.8041 1.9053,0.13983 3.2345,-0.11743 2.9537,-0.5717 -0.2807,-0.45427 0.0991,-2.00077 0.844,-3.43665 1.1539,-2.22404 1.1463,-2.53081 -0.0512,-2.07131 -0.9334,0.35818 -1.4056,-0.16844 -1.4056,-1.5676 0,-1.15885 -0.6225,-2.10699 -1.3834,-2.10699 -0.7608,0 -1.6002,-0.82943 -1.8653,-1.84318 -0.4528,-1.7315 -0.2528,-1.71763 3.3009,0.22893 2.0806,1.13965 3.6388,2.30658 3.4628,2.59317 -0.1761,0.2866 1.2456,0.63603 3.1593,0.77652 3.1682,0.2326 3.3384,0.11441 1.9026,-1.32142 -0.8673,-0.86728 -1.5769,-1.88488 -1.5769,-2.26134 0,-0.37645 -1.3525,-1.28315 -3.0057,-2.01489 -1.6771,-0.74236 -2.7146,-1.80136 -2.3472,-2.39582 0.3622,-0.58596 0.0272,-1.55961 -0.7443,-2.16367 -0.7716,-0.60407 -1.916,-2.53385 -2.5433,-4.28841 -1.0749,-3.00647 -1.0311,-3.12172 0.7618,-2.00206 1.0463,0.65343 1.73,1.63898 1.5193,2.19011 -0.2108,0.55113 0.9089,1.09644 2.4881,1.2118 1.9195,0.14022 2.8713,-0.26374 2.8713,-1.21861 0,-0.93865 0.5883,-1.20263 1.7158,-0.76996 1.3882,0.53271 1.3192,0.23273 -0.3616,-1.57133 -2.5088,-2.69292 -2.5803,-6.70992 -0.1159,-6.51604 0.9354,0.0736 1.9718,-0.72044 2.3032,-1.76452 0.3314,-1.04408 0.988997,-1.65945 1.461397,-1.36749 0.4724,0.29196 1.1215,0.10589 1.4425,-0.41348 0.321,-0.51938 -0.3229,-1.23204 -1.4309,-1.5837 -1.107997,-0.35166 -2.014497,-1.37406 -2.014497,-2.272 0,-1.26981 0.2667,-1.36594 1.2,-0.43261 1.633197,1.63321 2.799997,1.50819 2.799997,-0.3 0,-0.825 0.4915,-1.5 1.0923,-1.5 0.6007,0 2.2775,-0.93229 3.7261,-2.07176 1.4485,-1.13946 2.7852,-1.61759 2.9702,-1.0625 0.466,1.39811 -3.6439,5.34171 -4.8136,4.6188 -0.5261,-0.32513 -0.6856,0.10599 -0.3566,0.96352 0.3276,0.85357 0.0974,1.55194 -0.5114,1.55194 -0.6089,0 -1.107,0.90915 -1.107,2.02032 0,2.00883 0.0242,2.00816 4.25,-0.11651 2.3375,-1.17526 4.9928,-2.78872 5.9007,-3.58547 1.1831,-1.03825 1.849,-1.12782 2.3506,-0.31618 0.4116,0.66587 -0.1519,1.35521 -1.3676,1.67312 -1.1371,0.29736 -2.3398,1.39861 -2.6726,2.44721 -0.3328,1.0486 -0.9755,1.6776 -1.4283,1.39777 -0.9428,-0.58265 -2.1536,1.89133 -2.6072,5.32721 -0.1705,1.29111 -1.1228,2.94182 -2.1162,3.66824 -2.6724,1.95408 -1.1573,2.63684 2.1006,0.94662 1.5502,-0.80428 3.4076,-1.46233 4.1276,-1.46233 0.7199,0 2.6935,-1.165 4.3857,-2.58889 2.9005,-2.44063 3.0767,-2.47312 3.0767,-0.56739 0,1.13633 -0.8669,2.29664 -1.9797,2.64983 -1.0888,0.34558 -1.8763,1.14295 -1.75,1.77194 0.1263,0.62898 -0.4391,1.16405 -1.2566,1.18905 -1.5148,0.0463 -2.8386,3.55053 -1.337,3.5393 0.4528,-0.003 2.1278,-0.68644 3.7221,-1.51789 1.5943,-0.83145 3.1318,-1.27867 3.4166,-0.99384 0.2849,0.28484 -0.1196,0.52478 -0.8987,0.5332 -1.0312,0.0111 -1.0909,0.22242 -0.2195,0.7764 1.9078,1.21283 -0.166,3.45829 -3.194,3.45829 -2.5358,0 -2.6864,0.23354 -2.1766,3.375 0.4853,2.99079 0.293,3.375 -1.6895,3.375 -1.2304,0 -2.7168,-0.47974 -3.3032,-1.06609 -0.7548,-0.75478 -1.2328,-0.42839 -1.6372,1.11777 -0.5381,2.05768 -0.3291,2.14601 3.6161,1.52902 2.303,-0.36016 5.8551,-1.47202 7.8937,-2.4708 3.2035,-1.56952 3.579,-1.59842 2.7669,-0.21293 -1.5641,2.66834 -4.7404,6.10303 -5.6439,6.10303 -1.6894,0 -6.4886,5.24093 -5.6067,6.12278 1.3846,1.38462 9.4968,-1.81707 13.2199,-5.2176 2.3541,-2.15018 3.6366,-2.72587 4.3913,-1.97119 0.7547,0.75468 0.6983,1.06601 -0.193,1.06601 -0.6925,0 -0.9667,0.47307 -0.6093,1.05127 0.3573,0.5782 -0.4806,2.09875 -1.862,3.37902 -1.9261,1.78508 -2.2387,2.60574 -1.3407,3.52016 0.6441,0.65582 0.721,1.07111 0.171,0.92285 -2.2392,-0.60359 -5.5,1.34558 -5.5,3.28771 0,1.18523 -0.8301,2.24331 -2,2.54924 -1.1,0.28766 -2,0.9064 -2,1.375 0,0.46859 -0.7488,0.56463 -1.664,0.21343 -1.1447,-0.43924 -1.4305,-0.26067 -0.9159,0.57206 1.3179,2.13241 5.2915,0.0393 12.094,-6.37074 1.1674,-1.1 2.9635,-2.675 3.9914,-3.5 1.6948,-1.36022 1.8078,-1.33693 1.2131,0.25 -0.3607,0.9625 -0.2244,1.75 0.303,1.75 0.5274,0 0.2004,0.88578 -0.7266,1.9684 -2.4795,2.89591 -2.8181,7.02385 -0.5792,7.06201 1.5938,0.0272 1.5707,0.15413 -0.2158,1.1896 -1.1,0.63755 -2.1038,0.96137 -2.2307,0.71959 -0.127,-0.24178 -0.94,0.5729 -1.8067,1.8104 -0.9032,1.2894 -2.6191,2.250002 -4.0193,2.250002 -3.1533,0 -3.1277,1.367161 0.0527,2.816241 1.6764,0.76379 3.3184,0.82463 5,0.18527 1.5274,-0.5807 2.504,-0.58936 2.504,-0.0222 0,0.51138 1.1045,-0.17475 2.4545,-1.52475 1.35,-1.350001 3.0976,-2.454553 3.8834,-2.454553 0.7859,0 1.6642,-0.9 1.9518,-2 0.6654,-2.54432 1.8893,-2.54432 3.478207,0 1.0709,1.71466 0.9982,2.00218 -0.5094,2.01531 -1.473807,0.0128 -1.520207,0.16601 -0.286507,0.946212 1.254307,0.79323 1.208807,1.031871 -0.3075,1.613731 -0.9787,0.37556 -1.5477,1.28674 -1.2645,2.02485 0.2833,0.7381 -0.1443,2.00134 -0.9502,2.80719 -0.9678,0.96786 -1.1066,1.68676 -0.4089,2.11797 1.3407,0.82862 -0.6875,3.47473 -2.6633,3.47473 -0.7577,0 -1.3776,0.477591 -1.3776,1.061291 0,0.69617 1.6341,0.82411 4.75,0.37187 2.612507,-0.37917 4.399507,-0.31872 3.971107,0.13434 -0.7625,0.8063 -1.651907,1.05583 -6.721107,1.88553 -1.375,0.22505 -2.725,0.49001 -3,0.58878 -0.275,0.0988 -1.625,0.15873 -3,0.13324 -1.9312,-0.0358 -2.0611,0.0773 -0.5707,0.49716 3.1943,0.8999 4.4831,2.68606 2.9628,4.10625 -0.7192,0.67185 -2.0568,1.22154 -2.9723,1.22154 -1.2792,0 -1.4068,0.31074 -0.5509,1.34201 0.6126,0.7381 0.8282,1.62751 0.4793,1.97646 -0.349,0.34895 0.1024,0.9172 1.0029,1.26278 0.9006,0.34557 1.3884,1.03117 1.0841,1.52353 -1.5523,2.51172 12.511107,-1.35628 14.564807,-4.0059 0.8713,-1.12408 6.1579,-4.27431 6.5369,-3.89528 0.1999,0.19986 -0.2016,1.47332 -0.8922,2.82989 -0.816,1.60278 -1.9366,2.3518 -3.2002,2.13894 -1.8903,-0.31843 -1.8887,-0.28444 0.0555,1.2182 1.6759,1.29523 1.7337,1.55092 0.357,1.57757 -1.769,0.0342 -3.2206,2.63448 -2.3012,4.12204 0.3092,0.50037 -0.3558,0.90976 -1.4777,0.90976 -1.3495,0 -2.2553,0.85803 -2.6762,2.53491 -0.3499,1.3942 -1.918007,3.19775 -3.484707,4.00789 -1.844,0.95357 -2.6465,1.99912 -2.2758,2.96509 0.3149,0.82066 0.7702,1.49211 1.0118,1.49211 1.6871,0 15.216207,-7.17217 16.751807,-8.8806 1.9561,-2.17628 5.595,-2.90432 5.595,-1.1194 0,0.55 -1.0125,1.00689 -2.25,1.01531 -1.6437,0.0112 -1.8843,0.24703 -0.893,0.87516 1.4971,0.94862 0.6963,5.10953 -0.9834,5.10953 -0.5454,0 -0.7135,0.45 -0.3736,1 0.3399,0.55 0.1149,1 -0.5,1 -0.6149,0 -0.8598,0.41783 -0.5442,0.92851 0.3156,0.51067 -0.4453,1.07317 -1.691,1.25 -1.2456,0.17682 -2.2648,0.99649 -2.2648,1.82149 0,0.89299 -1.1128,1.62805 -2.75,1.81642 -1.5125,0.17403 -2.75,0.90665 -2.75,1.62803 0,0.72138 -1.0125,2.01789 -2.25,2.88113 -1.953607,1.36278 -2.011707,1.57643 -0.441,1.62197 0.995,0.0289 1.5569,0.46048 1.2486,0.95919 -0.8702,1.40805 3.6378,0.001 6.5968,-2.05884 1.4599,-1.01635 2.9524,-1.8479 3.3167,-1.8479 0.3643,0 2.1668,-1.14753 4.0057,-2.55007 3.2938,-2.51234 5.0947,-2.10286 3.9437,0.89669 -0.3223,0.8399 -1.1488,1.31114 -1.8366,1.0472 -0.6878,-0.26393 -1.2506,0.21448 -1.2506,1.06315 0,0.84867 0.7125,1.57856 1.5834,1.62198 0.9444,0.0471 1.1015,0.27493 0.3895,0.56461 -0.6566,0.26711 -0.9259,1.18393 -0.5984,2.03738 0.5012,1.30614 0.2549,1.36948 -1.5562,0.40021 -2.1749,-1.16399 -3.1602,0.17745 -1.0763,1.46537 1.5877,0.9813 -2.6321,4.56078 -4.5218,3.83563 -0.8544,-0.32787 -1.5535,-0.0839 -1.5535,0.54225 0,0.6261 0.6466,1.38649 1.4369,1.68974 0.7902,0.30326 1.1931,1.18655 0.8952,1.96288 -0.2979,0.77632 -0.9445,1.16252 -1.4369,0.85822 -0.4924,-0.3043 -0.8952,0.14828 -0.8952,1.00574 0,2.80801 2.4915,1.6447 7.5376,-3.51944 5.3134,-5.43762 10.0073,-8.46697 10.8946,-7.03118 0.3002,0.48566 -0.1243,1.43911 -0.9432,2.11878 -1.9456,1.6147 -1.9037,5.87512 0.0793,8.06633 1.3251,1.46421 1.3642,2.05979 0.252,3.84058 -0.7239,1.1592 -1.8796,1.89143 -2.5682,1.62718 -0.6887,-0.26425 -1.2521,-0.0587 -1.2521,0.45677 0,0.51548 -0.675,0.67821 -1.5,0.36163 -1.8224,-0.69931 -1.9636,0.74787 -0.25,2.56078 1.0291,1.08867 0.8755,1.13024 -0.8685,0.23518 -2.4293,-1.24673 -3.3815,-0.65049 -3.3815,2.11748 0,1.60646 -0.4749,1.83144 -2.75,1.30296 -1.8267,-0.42432 -2.2873,-0.33039 -1.3719,0.27979 1.7466,1.1642 0.5567,3.24625 -1.4215,2.48717 -1.0244,-0.39312 -1.2989,-0.0976 -0.8926,0.96117 0.5244,1.36665 0.9765,1.36916 4.2613,0.0237 2.0211,-0.82783 5.5524,-3.32521 7.8473,-5.54972 l 4.1726,-4.04457 -0.5726,4.38223 c -0.3148,2.41022 -0.9645,4.53538 -1.4436,4.72257 -1.5955,0.6234 -3.8801,6.01006 -2.8253,6.66192 0.548,0.33867 0.9963,0.98675 0.9963,1.44017 0,1.23177 -5.3538,2.04574 -6.45,0.98063 -1.3654,-1.3267 -2.55,-1.13663 -2.55,0.40915 0,0.73272 1.6201,1.82944 3.6002,2.43715 4.0216,1.23427 8.0685,0.23528 10.1498,-2.50553 1.1319,-1.49053 1.25,-1.45684 1.25,0.35647 0,1.10141 -0.9175,2.98742 -2.039,4.19113 -1.1214,1.20371 -1.6839,2.19881 -1.25,2.21133 0.434,0.0125 -0.6672,0.74068 -2.447,1.61813 -1.7798,0.87744 -2.9888,1.99538 -2.6866,2.48429 0.8485,1.37287 -2.4383,2.23518 -3.8989,1.02293 -0.9624,-0.79866 -1.7435,-0.5531 -3.0336,0.95362 -0.9556,1.11609 -2.7292,1.94997 -3.9412,1.85307 -3.4925,-0.27924 -4.372,0.11771 -2.2037,0.9947 1.2055,0.48758 3.2674,0.29118 5.1905,-0.49441 2.6935,-1.10031 3.3776,-1.07798 4.3912,0.14335 0.6604,0.79569 1.9246,1.22922 2.8095,0.96339 0.8848,-0.26582 2.8502,-0.69688 4.3674,-0.95791 1.5172,-0.26103 3.7154,-0.7783 4.8849,-1.14949 1.9787,-0.62799 1.9382,-0.42814 -0.5818,2.87583 -1.585,2.07796 -3.2808,3.33101 -4.0886,3.02103 -1.8588,-0.7133 -4.9731,1.72817 -4.9731,3.8987 0,0.9625 -0.2996,1.6375 -0.6659,1.5 -0.3662,-0.1375 -1.5798,0.80382 -2.6969,2.09182 -1.1171,1.288 -2.4738,2.06816 -3.015,1.73369 -1.6844,-1.04099 -2.5158,1.66355 -0.8792,2.86019 1.2085,0.88372 0.1444,1.11217 -4.8473,1.04064 -5.4949,-0.0787 -6.3957,0.15852 -6.3957,1.68462 0,1.16806 -0.5136,1.57918 -1.5,1.20067 -0.825007,-0.31659 -2.287507,-0.23555 -3.250007,0.18007 -0.9625,0.41562 -2.7625,0.65656 -4,0.53542 -3.6385,-0.35617 -2.5767,1.62998 1.5,2.80582 l 3.75,1.08162 -4.75,-0.46315 c -2.753,-0.26843 -4.75,-0.0508 -4.75,0.51772 0,0.53948 1.0125,1.0125 2.25,1.05116 2.1377,0.0668 2.1502,0.11101 0.25,0.88652 -1.4759,0.60235 -2.6695,0.19086 -4.5547,-1.57028 -2.5881,-2.4177 -4.5774,-3.21827 -3.4453,-1.38653 0.3399,0.55 0.1415,1 -0.441,1 -2.4373,0 -0.8056,1.80224 2.191,2.42004 2.847,0.58695 3.0255,0.79883 1.4393,1.70868 -0.9959,0.57125 -2.5709,0.70454 -3.5,0.2962 -0.9291,-0.40834 -1.9939,-0.68195 -2.3663,-0.60803 -0.3723,0.0739 -1.2696,-1.20463 -1.9941,-2.84124 -1.642,-3.7096 -2.6033,-3.78161 -3.0125,-0.22565 -0.2119,1.84179 -0.8118,2.63435 -1.8164,2.39983 -5.5538,-1.29651 -6.0009,-1.05449 -5.9802,3.23768 0.0194,4.01805 1.415,15.37648 2.5634,20.8625 0.5495,2.62468 0.3997,2.75 -3.2864,2.75 l -3.8622,0 0.3968,-7.02231 z M 47.785926,223.64427 c 0.9638,-0.10018 1.0732,-0.32953 0.3062,-0.64158 -0.6566,-0.26711 -0.916,-1.20971 -0.5764,-2.09466 0.4862,-1.267 0.2085,-1.44528 -1.3062,-0.83877 -3.2015,1.28191 -4.8614,1.36959 -6.1736,0.32612 -0.8373,-0.66586 -1.25,-0.64767 -1.25,0.0551 0,0.57702 -0.7875,1.23857 -1.75,1.47013 -1.5108,0.36344 -1.4506,0.54436 0.4401,1.32332 1.922,0.79184 5.2865,0.92249 10.3099,0.40034 z m -25,-16.26058 c 0,-0.48416 -0.675,-0.2053 -1.5,0.6197 -0.825,0.825 -1.4857,2.09465 -1.4682,2.82143 0.0351,1.4598 2.9682,-1.9406 2.9682,-3.44113 z m 14,-4.8002 c 0,-0.51548 -0.4981,-0.93724 -1.107,-0.93724 -0.6198,0 -0.8387,-0.77022 -0.4975,-1.75 0.5643,-1.6205 0.5064,-1.61758 -0.7821,0.0395 -1.1421,1.4686 -1.6356,1.55825 -2.7525,0.5 -1.5835,-1.50035 -8.8609,-2.09035 -8.8609,-0.71838 0,0.5109 -0.675,0.92891 -1.5,0.92891 -2.0863,0 -1.8859,1.77413 0.25,2.21264 3.91,0.80276 15.25,0.59797 15.25,-0.2754 z m 10,0.0628 c 0,-1.29391 -1.7003,-1.29391 -2.5,0 -0.3399,0.55 0.0835,1 0.941,1 0.8574,0 1.559,-0.45 1.559,-1 z m 14.492897,-1.98855 c 0.3504,-0.56686 -0.051,-0.7345 -0.940997,-0.39301 -1.7324,0.66479 -2.0493,1.38156 -0.6109,1.38156 0.5175,0 1.2159,-0.44485 1.551897,-0.98855 z m 42.507107,-2.01145 c 0,-0.55 -0.675,-1 -1.5,-1 -0.825,0 -1.5,0.45 -1.5,1 0,0.55 0.675,1 1.5,1 0.825,0 1.5,-0.45 1.5,-1 z m -82.000004,-1.38337 c 0,-0.21085 -0.9006,-0.61888 -2.0014,-0.90674 -1.1007,-0.28785 -1.7492,-0.11534 -1.441,0.38337 0.5383,0.87091 3.4424,1.31244 3.4424,0.52337 z m 82.500004,-1.61663 c -0.7919,-1.28138 -1.5,-1.28138 -1.5,0 0,0.55 0.4766,1 1.059,1 0.5825,0 0.7809,-0.45 0.441,-1 z m -78.000004,-4 c 0.3446,-0.55763 -0.4034,-0.99323 -1.691,-0.98469 -1.8576,0.0123 -2.0158,0.20481 -0.809,0.98469 1.8607,1.2025 1.7568,1.2025 2.5,0 z m 4.5,-1.05902 c 0,-0.58246 -0.45,-0.7809 -1,-0.44098 -1.2814,0.79194 -1.2814,1.5 0,1.5 0.55,0 1,-0.47656 1,-1.05902 z m -16.2424,-1.0986 c 0.8418,-0.84175 1.5174,-0.85906 2.476,-0.0635 0.9712,0.80603 2.2076,0.66347 4.6954,-0.54138 1.8573,-0.89954 2.843,-1.81353 2.1904,-2.03107 -0.6527,-0.21755 -1.8808,0.18057 -2.7292,0.8847 -1.2402,1.0292 -1.6957,1.03261 -2.3231,0.0174 -0.6152,-0.99548 -1.694,-1.01684 -5.0956,-0.10089 -3.1782,0.8558 -3.9405004,1.39904 -2.8933,2.06182 1.8641,1.17983 2.2993,1.15297 3.6794,-0.22711 z m 102.580704,-3.78068 c 0.9583,-0.95827 -0.9804,-1.00931 -6.5883,-0.17348 -0.4125,0.0615 -0.75,0.5888 -0.75,1.17182 0,1.30488 5.828,0.51201 7.3383,-0.99834 z m -97.845404,-4.05025 c 0.3504,-0.56686 -0.051,-0.7345 -0.941,-0.39301 -1.7324,0.66479 -2.0493,1.38156 -0.6109,1.38156 0.5175,0 1.2159,-0.44485 1.5519,-0.98855 z m 5.0071,-14.01145 c -0.7919,-1.28138 -1.5,-1.28138 -1.5,0 0,0.55 0.4766,1 1.059,1 0.5825,0 0.7809,-0.45 0.441,-1 z m 1.3781,-4.90351 c 1.7896,-1.1335 0.3912,-3.41381 -1.6202,-2.64198 -0.8468,0.32497 -2.6437,-0.13249 -3.993,-1.01659 -1.5363,-1.00666 -3.3966,-1.37071 -4.9771,-0.97402 -3.0506,0.76566 -2.4564,1.48485 3.0286,3.66548 5.0287,1.99924 5.7804,2.09537 7.5617,0.96711 z m 100.121904,-5.16792 c 0,-1.7346 -3.1011,-4.37309 -3.8408,-3.26781 -0.3625,0.54182 -1.4467,1.27568 -2.4092,1.6308 -3.1345,1.15647 -1.8452,2.70844 2.25,2.70844 2.2,0 4,-0.48214 4,-1.07143 z m -94.812504,-3.61168 c -0.7219,-0.28887 -1.5844,-0.25335 -1.9167,0.0789 -0.3323,0.3323 0.2584,0.56864 1.3125,0.52522 1.165,-0.048 1.4019,-0.28494 0.6042,-0.60416 z m 4.8125,-12.31689 c -1.2442,-0.80407 -1.159,-0.9746 0.5,-1 1.6198,-0.0248 1.7212,-0.20693 0.5335,-0.95811 -0.9153,-0.57894 -1.9153,-0.55494 -2.6609,0.0639 -0.7404,0.61449 -1.4163,0.63258 -1.7778,0.0476 -0.3208,-0.51907 0.0891,-1.2018 0.9109,-1.51717 0.8219,-0.31537 1.4874,-1.15002 1.479,-1.85479 -0.0102,-0.85372 -0.2605,-0.92329 -0.75,-0.20844 -1.1066,1.61611 -4.0897,2.47073 -4.7718,1.36707 -0.3306,-0.53495 -1.02,-0.71374 -1.532,-0.3973 -0.512,0.31643 -0.9309,0.10407 -0.9309,-0.4719 0,-0.57598 -1.0125,-0.94004 -2.25,-0.80902 -1.6082,0.17026 -2.2104,-0.261 -2.1111,-1.51179 0.0807,-1.01655 -0.548,-1.74358 -1.5,-1.73469 -7.3871,0.069 -2.3546,6.65819 6.5441,8.56839 7.5248,1.61528 10.3946,1.75892 8.317,0.4163 z m 57.999997,-12 c 0,-0.55 -0.45,-1 -1,-1 -0.55,0 -1,0.45 -1,1 0,0.55 0.45,1 1,1 0.55,0 1,-0.45 1,-1 z m -61.999997,-1 c 1.213,-0.78387 1.0694,-0.9723 -0.75,-0.98469 -1.2375,-0.008 -2.25,0.43469 -2.25,0.98469 0,1.25292 1.0612,1.25292 3,0 z m 11.5539,-13.08713 c 1.0305,-1.66742 -1.2873,-3.57951 -2.6668,-2.2 -1.1539,1.15392 -0.4317,3.28713 1.1129,3.28713 0.4851,0 1.1843,-0.48921 1.5539,-1.08713 z m 4.9461,-1.91287 c -0.7919,-1.28138 -1.5,-1.28138 -1.5,0 0,0.55 0.4766,1 1.059,1 0.5825,0 0.7809,-0.45 0.441,-1 z m 40.499997,-5.99999 c 0,-0.55 -0.4766,-1 -1.059,-1 -0.5825,0 -0.7809,0.45 -0.441,1 0.7919,1.28138 1.5,1.28138 1.5,0 z m -39.499997,-3.99999 c 0.3399,-0.55 0.168,-1 -0.382,-1 -0.55,0 -1.2781,0.45 -1.618,1 -0.3399,0.55 -0.168,1 0.382,1 0.55,0 1.2781,-0.45 1.618,-1 z m -5.75,-1.25 c -0.4719,-1.41567 -2.08,-1.26005 -2.5833,0.25 -0.1834,0.55 0.4166,1 1.3333,1 0.9167,0 1.4792,-0.5625 1.25,-1.25 z m -3.75,-1.80761 c 0,-1.592111 -2.233,-2.183801 -3.0965,-0.820531 -1.3637,2.153071 -1.0697,2.734361 1.0965,2.167891 1.1,-0.28766 2,-0.89397 2,-1.34736 z m 45.049697,-6.468091 c 3.7144,-1.92082 3.707,-2.23899 -0.0395,-1.68913 -1.6444,0.24135 -2.7627,0.80624 -2.4852,1.25532 0.2776,0.44907 -0.5145,1.01239 -1.7602,1.25181 -1.5862,0.30488 -1.7255,0.47612 -0.4651,0.5715 0.9898,0.0749 3.1273,-0.55038 4.75,-1.3895 z m -12.0497,-11.033333 c 0,-0.24254 -0.7016,-0.44098 -1.559,-0.44098 -0.8575,0 -1.2764,0.45734 -0.9309,1.01631 0.5708,0.92358 2.4899,0.48015 2.4899,-0.57533 z M 59.785926,68.319486 c 0,-0.93361 -0.9631,-1.17747 -3.25,-0.82289 -3.1468,0.4879 -3.1706,0.52688 -0.75,1.22712 3.7093,1.07305 4,1.04367 4,-0.40423 z m -39.7292,155.722634 c 0.3323,-0.33229 1.1948,-0.36781 1.9167,-0.0789 0.7977,0.31922 0.5608,0.55618 -0.6042,0.60416 -1.0541,0.0434 -1.6448,-0.19292 -1.3125,-0.52522 z m 17.7794,-161.302074 c -1.2464,-2.32888 -1.3183,-3.09375 -0.2907,-3.09375 1.3079,0 3.2663,3.86604 2.2702,4.48165 -0.5111,0.3159 -1.4019,-0.30865 -1.9795,-1.3879 z m 14.9498,-30.23242 c 0,-0.47373 0.4132,-0.86133 0.9182,-0.86133 0.505,0 1.63,-0.27315 2.5,-0.60699 0.87,-0.33384 1.5818,-0.1613 1.5818,0.38342 0,0.54473 -1.125,1.20547 -2.5,1.46832 -1.375,0.26285 -2.5,0.0903 -2.5,-0.38342 z m 8.872397,-7.54856 c -1.217497,-1.49675 -1.146597,-1.60937 0.6276,-0.99755 1.9201,0.66214 1.926,0.63223 0.1462,-0.74891 -1.705097,-1.3232 -1.565097,-1.42367 1.7455,-1.25246 1.9796,0.10238 3.6014,0.29865 3.6038,0.43615 0.007,0.39855 -3.9558,4.25 -4.3731,4.25 -0.2076,0 -0.9951,-0.75925 -1.75,-1.68723 z m -0.3017,-7.01999 c -1.667297,-2.28528 -1.701197,-2.55686 -0.249997,-1.99996 0.923597,0.35442 1.679297,0.20852 1.679297,-0.32422 0,-0.53273 0.5051,-0.96861 1.1224,-0.96861 0.8003,0 0.8167,0.36848 0.0572,1.28354 -1.3234,1.59467 -0.3151,3.32633 2.3204,3.98479 1.6474,0.41158 1.5593,0.51459 -0.5,0.58425 -1.6138,0.0546 -3.1839,-0.85282 -4.4293,-2.55979 z m 0.5894,-6.53271 c -1.563897,-1.5638498 -1.462897,-2.7600698 0.2329,-2.7600698 1.5847,0 2.9325,2.6808098 1.7234,3.4280498 -0.4379,0.27065 -1.3183,-0.0299 -1.9563,-0.66798 z m 0.5394,-8.1007498 c -0.2829,-0.73738 -0.113,-1.97489 0.3777,-2.75000998 0.6493,-1.02567 0.8963,-0.66071 0.9075,1.34068998 0.0166,2.98623 -0.4737,3.52394 -1.2852,1.40932 z" />
</svg>
