<?xml version="1.0" encoding="UTF-8" standalone="no"?>
<!-- Created with Inkscape (http://www.inkscape.org/) -->

<svg
   xmlns:dc="http://purl.org/dc/elements/1.1/"
   xmlns:cc="http://creativecommons.org/ns#"
   xmlns:rdf="http://www.w3.org/1999/02/22-rdf-syntax-ns#"
   xmlns:svg="http://www.w3.org/2000/svg"
   xmlns="http://www.w3.org/2000/svg"
   xmlns:sodipodi="http://sodipodi.sourceforge.net/DTD/sodipodi-0.dtd"
   xmlns:inkscape="http://www.inkscape.org/namespaces/inkscape"
   version="1.0"
   width="225.81758"
   height="388.21884"
   id="svg2"
   inkscape:version="0.91 r13725"
   sodipodi:docname="pine_tree_2.svg">
  <metadata
     id="metadata4148">
    <rdf:RDF>
      <cc:Work
         rdf:about="">
        <dc:format>image/svg+xml</dc:format>
        <dc:type
           rdf:resource="http://purl.org/dc/dcmitype/StillImage" />
        <dc:title></dc:title>
      </cc:Work>
    </rdf:RDF>
  </metadata>
  <sodipodi:namedview
     pagecolor="#ffffff"
     bordercolor="#666666"
     borderopacity="1"
     objecttolerance="10"
     gridtolerance="10"
     guidetolerance="10"
     inkscape:pageopacity="0"
     inkscape:pageshadow="2"
     inkscape:window-width="1600"
     inkscape:window-height="881"
     id="namedview4146"
     showgrid="false"
     fit-margin-top="0"
     fit-margin-left="0"
     fit-margin-right="0"
     fit-margin-bottom="0"
     inkscape:zoom="0.95794375"
     inkscape:cx="70.336092"
     inkscape:cy="146.51941"
     inkscape:window-x="0"
     inkscape:window-y="19"
     inkscape:window-maximized="0"
     inkscape:current-layer="svg2" />
  <defs
     id="defs4" />
  <path
     inkscape:connector-curvature="0"
     id="path2652"
     style="fill:#000000"
     d="m 102.8992,0 -0.125,2.4375 c -0.0546,1.34121 -0.16707,5.38575 -0.25,9 L 102.3992,18 98.711696,14.1875 c -4.2635,-4.43741 -4.83162,-4.61457 -4.8125,-1.5625 0.008,1.2375 1.74612,4.14351 3.84375,6.46875 3.359404,3.72395 3.831154,4.89747 4.031254,9.84375 0.15108,3.73434 -0.14207,5.40242 -0.84375,4.96875 -0.58033,-0.35866 -1.031244,-1.30121 -1.031254,-2.09375 0,-0.79254 -0.44999,-1.4375 -1,-1.4375 -0.55,0 -0.99999,-1.74234 -1,-3.875 0,-4.43839 -2.51772,-7.54011 -4.09375,-5.0625 -0.50231,0.78964 -0.70998,1.96551 -0.46875,2.625 0.53282,1.45676 -2.34518,0.50716 -4.28124,-1.40625 -0.72678,-0.71827 -1.89815,-1.28125 -2.625,-1.28125 -2.70466,0 -2.26166,2.82097 1.03125,6.59375 3.91666,4.48747 4.12852,5.38329 1.53125,6.0625 -1.27609,0.33371 -1.71398,1.1099 -1.375,2.40625 0.56267,2.15168 3.24596,2.5353 5.06249,0.71875 1.36143,-1.36143 1.39605,-1.28988 1.625,2.46875 0.19109,3.13691 0.0176,3.20723 -3.40625,1.25 -3.35211,-1.91624 -3.99998,-1.86827 -3.99999,0.40625 0,1.06014 1.46251,3.06958 3.25,4.46875 2.43855,1.90879 2.70973,2.41421 1.12499,2 -1.37968,-0.36061 -2.32256,-10e-4 -2.71874,1.03125 -0.86093,2.24354 -1.55737,2.05797 -8.21875,-2.28125 -3.2693,-2.12961 -6.43732,-3.69629 -7.03125,-3.46875 -2.08177,0.79759 -0.76008,4.6139 2.15625,6.21875 l 2.9375,1.59375 -2.6875,0.3125 c -1.46595,0.17504 -2.90066,0.94006 -3.1875,1.6875 -0.56101,1.46196 1.93924,2.89471 3.4375,1.96875 0.50037,-0.30924 0.93751,-0.0825 0.9375,0.5 0,0.58246 0.78751,1.08158 1.75,1.125 1.2708,0.0573 1.35988,0.2226 0.34375,0.625 -1.06011,0.41983 -0.85158,0.98658 0.90625,2.3125 l 2.34375,1.75 -4.1875,0.71875 c -4.30823,0.72787 -5.28963,2.3351 -2.71875,4.46875 0.96882,0.80405 1.99107,0.8846 3.125,0.25 1.88602,-1.05546 5.43751,-0.46535 5.4375,0.90625 0,0.48585 0.90001,0.90625 2,0.90625 1.1,0 2.00001,-0.45 2,-1 0,-0.55 1.01251,-0.98705 2.25,-0.96875 l 2.24999,0.0312 -2.46874,2.03125 c -1.91796,1.59625 -2.15666,2.21807 -1.09375,2.875 1.50106,0.92771 4.09288,0.24939 5.37499,-1.40625 0.46389,-0.59903 0.58496,0.15216 0.25,1.6875 -0.4996,2.29008 -0.27513,2.75 1.40625,2.75 1.11048,0 2.05031,-0.5625 2.09375,-1.25 0.0539,-0.85303 0.24634,-0.80009 0.625,0.15625 0.40502,1.02296 0.91016,0.74449 1.843754,-1 l 1.28125,-2.40625 1.25,2.75 c 0.6873,1.50847 0.9326,3.06739 0.53125,3.46875 -0.40135,0.40136 -3.986264,0.89264 -7.968754,1.09375 -6.6637,0.3365 -7.62953,0.13522 -12.03124,-2.65625 -4.38276,-2.77947 -7.59374,-3.24416 -7.59375,-1.09375 0,0.47359 1.23751,1.57699 2.75,2.4375 l 2.75,1.5625 -3.5,-0.65625 c -3.46205,-0.63356 -9.28644,-3.63348 -11.84375,-6.125 -0.72678,-0.70808 -2.18929,-1.28125 -3.25,-1.28125 -2.03781,0 -2.56623,1.93377 -0.96875,3.53125 0.59998,0.6 -0.93715,1.08394 -4.1875,1.28125 -2.83054,0.17182 -5.52678,0.53937 -5.96875,0.8125 -3.28811,2.03217 4.81437,5.72269 10.6875,4.875 l 4.03125,-0.5625 -2.8125,1.59375 c -1.70292,0.96641 -2.70334,2.25981 -2.5,3.28125 0.48673,2.44487 4.8074,1.6256 7.5625,-1.4375 1.28212,-1.42543 3.01587,-2.35924 4,-2.125 1.38002,0.32846 1.20134,0.66075 -0.90625,1.53125 -3.40529,1.40648 -4.4385,3.0519 -2.375,3.84375 0.89147,0.34209 1.39689,1.19774 1.125,1.90625 -0.27188,0.70851 0.17845,1.54049 0.96875,1.84375 0.79027,0.30325 1.43751,0.15609 1.4375,-0.3125 0,-0.81747 3.23127,-2.21837 5.65625,-2.46875 0.63793,-0.0659 2.1004,-0.9909 3.25,-2.03125 1.14956,-1.04035 2.09376,-1.55578 2.09375,-1.15625 0,1.03803 -2.18533,3.07946 -4.78125,4.46875 -1.22615,0.65621 -2.21874,1.63959 -2.21875,2.1875 0,1.88621 3.07898,2.17896 4.96875,0.46875 1.80421,-1.63279 1.8651,-1.61871 1.34375,0.375 -0.76304,2.91787 1.28374,2.62754 3.3125,-0.46875 1.26901,-1.93675 1.89121,-2.24095 2.53125,-1.25 0.69492,1.07593 0.97909,1.06647 1.68749,-0.0312 0.47425,-0.7349 1.71174,-1.22568 2.75,-1.09375 4.03492,0.51272 9.339444,-3.09377 9.500004,-6.46875 0.0866,-1.82054 0.18598,-1.76622 0.8125,0.40625 0.59526,2.06399 0.10421,3.06547 -2.84375,5.71875 -1.963884,1.76757 -6.346314,4.67281 -9.750004,6.46875 l -6.18749,3.25 -4.8125,-2.40625 c -2.64629,-1.32168 -5.37499,-2.49433 -6.0625,-2.625 -1.78447,-0.33915 -1.54368,1.59252 0.5,4 1.57463,1.85491 1.56645,1.90544 0.0312,0.71875 -0.93841,-0.72537 -2.08647,-1.07545 -2.5625,-0.78125 -0.47603,0.2942 -2.12034,-0.1094 -3.65625,-0.90625 -3.68326,-1.9109 -4.83226,-1.817 -4.15625,0.3125 0.44816,1.41179 -0.0223,1.72803 -2.4375,1.65625 -1.64658,-0.0489 -3.22752,-0.35251 -3.53125,-0.65625 -1.21743,-1.21742 -4.43749,0.57531 -4.4375,2.46875 0,1.537 0.48602,1.88917 2.09375,1.46874 2.00746,-0.52496 2.02014,-0.4774 0.34375,1.375 -1.81024,2.00029 -1.51332,2.27577 2.28125,1.96875 1.74426,-0.14113 2.10602,0.19626 1.59375,1.53125 -0.54045,1.40838 -0.19553,1.64581 1.875,1.25 2.06955,-0.39562 2.4243,-0.15922 2.03125,1.34375 -0.5343,2.04317 0.0991,2.26341 2.59375,0.9375 2.45174,-1.30312 5.547,2.83575 3.53125,4.71875 -1.12788,1.05361 -1.46998,1.01189 -1.90625,-0.125 -0.29916,-0.7796 -2.07106,-1.4263 -4.03125,-1.5 -1.92263,-0.0723 -3.26718,0.2672 -2.96875,0.75 0.29839,0.48281 -0.33676,0.6316 -1.4375,0.34375 -2.52548,-0.66043 -2.60364,0.85833 -0.125,2.40625 1.31205,0.81939 1.7188,1.9202 1.375,3.71875 -0.60485,3.16411 -0.7572,3.19051 -4.4375,0.0937 -1.63409,-1.375 -3.62344,-2.5 -4.40625,-2.5 -1.67608,0 -1.76141,0.49082 -0.46875,2.90625 1.0494,1.96082 0.39107,2.00804 -7.1875,0.5625 -2.46973,-0.47108 -3.74999,-0.33998 -3.75,0.375 0,1.29468 5.19254,4.15625 7.5625,4.15625 1.36703,0 1.44723,0.25211 0.4375,1.46875 -0.99351,1.1971 -0.95843,1.61078 0.21875,2.0625 0.80488,0.30886 1.88042,0.46749 2.375,0.375 2.08882,-0.39062 3.38976,0.17624 3.15625,1.34375 -0.15349,0.76743 0.81166,1.22169 2.5,1.1875 2.11595,-0.0428 2.75566,0.41828 2.78125,2 0.0319,1.97445 0.11101,1.95497 2,-0.3125 1.56122,-1.87403 1.96876,-2.01301 1.96875,-0.6875 0,0.91839 0.44895,1.40305 1,1.0625 0.55103,-0.34055 1.42803,0.54657 1.96875,1.96875 0.54072,1.42219 1.66676,2.83651 2.5,3.15625 0.83326,0.31975 1.53126,1.2026 1.53125,1.96875 0,0.76615 0.72313,1.40625 1.625,1.40625 0.90186,0 2.2078,0.76357 2.90625,1.71875 1.19712,1.63716 1.41888,1.62284 3.625,-0.25 l 2.34375,-1.96875 -1.78125,2.09375 c -1.07643,1.2782 -4.41137,2.73298 -8.625,3.75 -8.80662,2.12559 -10.93388,2.05888 -14.53125,-0.3125 -3.332,-2.19646 -4.95777,-1.78943 -4.0625,1.03125 0.50266,1.58373 0.12032,1.9375 -2.25,1.9375 -1.57707,0 -3.32292,-0.44794 -3.875,-1 -0.67166,-0.67166 -1.64355,-0.53992 -2.9375,0.40625 -1.85663,1.3576 -1.8116,1.48357 1.28125,3.25 2.33162,1.33168 3.06987,2.34326 2.65625,3.65625 -0.3686,1.17002 -0.0815,1.74269 0.78125,1.625 2.89539,-0.39492 4.01826,0.0993 3.46875,1.53125 -0.95939,2.50012 2.69127,3.69256 5.46875,1.78125 1.82197,-1.25378 2.0913,-1.3133 1.1875,-0.1875 -1.68881,2.10368 -0.0651,4.30272 2.5625,3.46875 3.78692,-1.20192 4.8075,0.72077 1.09375,2.0625 -4.77044,1.7235 -9.52913,1.68965 -11.3125,-0.0937 -1.9726,-1.9726 -5.03549,-1.99683 -4.28125,-0.0312 0.46675,1.21632 -0.22978,1.37891 -3.90625,0.875 -5.38007,-0.73742 -6.05392,0.92512 -1.09375,2.71875 2.40586,0.86997 3.25705,1.71566 2.9375,2.9375 -0.53398,2.04196 2.62435,3.17695 5.0625,1.8125 1.32643,-0.74231 1.65626,-0.45276 1.65625,1.53125 0,2.02742 0.36605,2.37439 2.15625,1.90625 1.76862,-0.4625 2.0262,-0.26518 1.46875,1.1875 -0.54646,1.42404 -0.26707,1.70247 1.34375,1.28125 1.10817,-0.2898 2.03126,-0.12351 2.03125,0.375 0,1.75232 2.11527,0.87395 4.78125,-1.96875 3.21123,-3.42413 5.11227,-4.18073 7.46875,-2.96875 2.73911,1.40877 2.05434,2.54747 -1.25,2.0625 -3.44393,-0.50546 -3.95158,1.01776 -1.46875,4.5625 1.45206,2.0731 1.44559,2.21875 -0.40625,2.21875 -1.0919,0 -2.67502,0.675 -3.5,1.5 -0.825,0.825 -2.16816,1.5 -3,1.5 -0.83183,0 -1.77525,0.42212 -2.09375,0.9375 -0.31852,0.51538 -2.33104,0.90451 -4.46875,0.875 -2.1377,-0.0295 -4.46963,0.30631 -5.1875,0.75 -0.7179,0.44369 -2.76305,0.71284 -4.53125,0.59375 -2.66267,-0.17932 -3.2637,0.17711 -3.53125,2.0625 -0.2324,1.63785 -1.01377,2.29699 -2.8125,2.375 -1.375,0.0596 -2.94999,0.2338 -3.5,0.375 -0.55,0.14119 -1.78749,0.1604 -2.75,0.0625 -0.9625,-0.0979 -1.74999,0.22152 -1.75,0.6875 0,1.32568 5.53412,4.28125 8.03125,4.28125 2.18735,0 2.2278,0.0563 0.46875,2 -1.76628,1.95171 -1.74778,2 0.8125,2 1.95944,0 2.47567,0.37303 2.03125,1.53125 -0.48509,1.26414 -0.0636,1.4285 2.28125,0.875 1.58206,-0.37346 3.10001,-0.66163 3.375,-0.65625 3.11869,0.0611 3.84364,0.40373 3.375,1.625 -1.04437,2.72158 1.54585,2.64529 3.03125,-0.0937 1.41403,-2.60741 1.4937,-2.64181 1.53125,-0.53125 0.022,1.2375 0.40001,2.28346 0.8125,2.34375 6.11032,0.89314 7.11274,0.59694 8.34375,-2.375 l 1.25,-3 0.875,2.375 0.875,2.40625 1.9375,-2.5 c 1.91799,-2.4965 1.91526,-2.49936 1.9375,-0.25 0.03,3.03432 1.8127,2.86196 2.59375,-0.25 0.3451,-1.375 1.07093,-2.5 1.59375,-2.5 0.52284,0 0.62629,0.48495 0.25,1.09375 -0.47799,0.77341 0.29621,0.90401 2.5625,0.40625 2.40632,-0.52851 3.15668,-0.40748 2.84375,0.53125 -0.61441,1.84324 -6.87754,4.96875 -9.96875,4.96875 -1.46224,0 -2.86137,0.5625 -3.125,1.25 -0.29461,0.76835 -2.24917,1.20541 -5.09375,1.15625 -2.54523,-0.044 -4.62499,0.2703 -4.625,0.6875 0,1.92465 3.47082,4.00698 6.21875,3.71875 1.63295,-0.17129 3.04354,0.0833 3.125,0.59375 0.26584,1.66552 -5.59698,2.60228 -19.84375,3.15625 -16.05514,0.6243 -22.49999,1.32743 -22.5,2.40625 0,0.41596 -1.12499,0.54409 -2.5,0.28125 -1.42007,-0.27146 -2.49999,-0.0205 -2.5,0.59375 0,1.40172 3.26703,3.15625 5.90625,3.15625 1.13616,0 2.09376,0.45 2.09375,1 0,0.55 -0.48951,1 -1.0625,1 -0.573,0 -2.0355,0.92922 -3.25,2.09375 l -2.1875,2.125 3.25,-0.4375 c 2.1498,-0.29378 3.25001,-0.0345 3.25,0.78125 0,0.74086 0.79848,1.03296 2,0.71875 1.11819,-0.29241 2.00001,-0.0306 2,0.59375 0,1.61501 2.54384,1.37957 4,-0.375 0.68469,-0.825 1.68207,-1.5 2.25,-1.5 0.5679,0 0.31652,0.80669 -0.59375,1.8125 -0.91025,1.00581 -1.65624,2.13081 -1.65625,2.5 0,1.0599 3.81398,0.79752 4.5,-0.3125 0.99,-1.60185 2.31432,-1.16041 3,1 0.80301,2.53007 1.94415,2.514 5.5625,-0.0625 l 2.90625,-2.0625 -0.625,3.0625 c -0.75302,3.76511 1.06414,4.06927 5.125,0.875 2.66767,-2.09838 2.74259,-2.09642 1.6875,-0.125 -1.24228,2.32122 -0.64457,3.42395 1.4375,2.625 0.77823,-0.29863 2.08824,0.009 2.90625,0.6875 1.03322,0.8575 1.50001,0.90479 1.5,0.125 0,-0.61734 0.67501,-1.12499 1.5,-1.125 0.825,0 1.50001,0.61877 1.5,1.40625 0,0.97077 0.88547,1.33615 2.75,1.125 10.40966,-1.17877 -3.05385,4.87453 -15.15625,6.8125 -7.9121,1.26698 -8.70599,1.21864 -11.3125,-0.5 -1.54048,-1.01573 -3.34374,-1.84012 -4.03125,-1.84375 -2.06842,-0.0109 -1.4081,1.9912 1,3.03125 1.65206,0.71351 1.05413,0.78987 -2.25,0.28125 -2.475,-0.38098 -5.62499,-0.6311 -7,-0.5625 -1.375,0.0686 -4.73148,-0.52456 -7.4375,-1.3125 -2.70604,-0.78795 -5.07068,-1.30429 -5.25,-1.125 -1.04338,1.04337 5.35871,5.16696 8.9375,5.75 l 4.25,0.6875 -3.75,0.125 c -2.61104,0.0872 -3.74999,0.5806 -3.75,1.625 0,0.825 0.78751,1.57249 1.75,1.65625 0.9625,0.0838 2.20001,0.24723 2.75,0.375 0.55,0.12779 1.64485,0.2803 2.4375,0.34375 1.06056,0.0849 0.92739,0.48754 -0.5,1.53125 -2.47116,1.80696 -1.2976,3.10551 1.46875,1.625 1.72122,-0.92117 2.09376,-0.82596 2.09375,0.53125 0,1.28252 0.71553,1.54389 3.25,1.1875 1.7875,-0.25136 4.15001,-0.7838 5.25,-1.1875 1.97142,-0.72353 1.94462,-0.71528 0.0312,0.84375 -1.94863,1.58775 -1.53104,1.95557 1.71875,1.625 0.99611,-0.10133 1.75001,0.51666 1.75,1.40625 0,2.13899 0.80972,1.96233 3.1875,-0.6875 l 2.03125,-2.25 -1.625,2.71875 c -0.88478,1.49315 -1.59374,3.16991 -1.59375,3.75 0,1.54588 4.9058,0.40454 7.25,-1.6875 1.9646,-1.75326 1.97952,-1.72077 1.21875,0.71875 -1.05711,3.38986 -2.28477,4.10608 -11.5,6.875 -7.65458,2.3 -8.11643,2.32864 -12.25,0.75 -4.50573,-1.72076 -10.71874,-2.21126 -10.71875,-0.84375 0,0.44 0.5232,1.36695 1.1875,2.03125 0.81209,0.81209 -0.52481,0.68487 -4.09375,-0.375 -2.91944,-0.86698 -5.99149,-1.32702 -6.84375,-1 -1.30693,0.50152 -1.18872,0.9988 0.75,3.0625 l 2.28125,2.4375 -3.375,-0.96875 c -4.3504704,-1.2477 -9.6360504,-1.24616 -10.4062504,0 -0.79490996,1.2862 5.8928,4.02498 9.8437504,4.03125 l 3.15625,0 -2.9375,2.34375 c -2.8995704,2.32013 -2.8718304,5.36401 0.0312,4.25 0.96566,-0.37056 1.40626,0.23335 1.40625,1.9375 0,1.77148 0.5223,2.46876 1.90625,2.46875 1.06072,0 2.62577,0.68828 3.46875,1.53125 1.27245,1.27245 1.8699,1.30705 3.5625,0.25 1.12131,-0.70027 2.06251,-1.61355 2.0625,-2.03125 0,-0.4177 0.78821,0.0375 1.78125,1 1.9148,1.85589 2.46048,4.25001 0.96875,4.25 -0.4908,0 -0.56378,0.48495 -0.1875,1.09375 0.47563,0.7696 -0.26479,0.9147 -2.4375,0.4375 -1.99399,-0.43796 -3.12499,-0.31376 -3.125,0.375 0,0.61269 -1.94584,1.09376 -4.5,1.09375 -4.68618,0 -5.5707,0.86649 -3,3 1.00147,0.83115 3.11712,1.05166 6.25,0.65625 l 4.75,-0.59375 -3.71875,1.96875 c -2.58242,1.36917 -3.53857,2.45343 -3.125,3.53125 0.37188,0.96909 1.20594,1.29421 2.21875,0.875 0.89153,-0.36901 2.30001,-0.7726 3.125,-0.90625 0.825,-0.13366 0.93751,-0.0489 0.25,0.1875 -2.53296,0.87093 -1.22477,2.47669 1.5,1.84375 1.96803,-0.45714 2.33396,-0.35471 1.28125,0.34375 -2.64558,1.75529 -0.296,2.26478 2.875,0.625 1.70111,-0.87968 3.09376,-1.17453 3.09375,-0.65625 0,0.51829 -0.56249,1.16071 -1.25,1.40625 -0.6875,0.24554 -0.90222,0.8183 -0.46875,1.28125 0.43349,0.46295 2.06883,0.34916 3.65625,-0.25 2.36433,-0.89243 2.81381,-0.83102 2.375,0.3125 -0.38612,1.00622 -0.0292,1.19344 1.3125,0.71875 1.56043,-0.55206 1.66001,-0.42131 0.5625,0.75 -1.02295,1.09173 -4.46619,1.35345 -15.75,1.1875 -8.73119,-0.1284 -14.4374904,0.16815 -14.4375004,0.75 0,0.52931 0.69823,0.96876 1.5625,0.96875 0.8642804,0 2.1971904,0.63466 2.9687504,1.40625 1.20383,1.20383 1.17906,1.48759 -0.15625,2 -0.85585,0.32842 -2.9762304,0.58533 -4.7187504,0.59375 -3.67397,0.0178 -6.19572,1.32093 -5.3125,2.75 1.09108,1.76541 6.05379,2.08636 10.1562504,0.65625 5.4695,-1.90666 5.76572,-1.79695 2.9375,1.03125 -3.52652,3.52651 -3.26958,5.65258 0.53125,4.5625 1.63209,-0.46807 3.43211,-1.14901 4,-1.5 0.56791,-0.35099 1.07245,0.19255 1.15625,1.1875 0.0838,0.99496 0.22049,2.32006 0.28125,2.96875 0.0607,0.64868 0.41382,1.5076 0.78125,1.875 0.78825,0.78826 6.81251,-2.58402 6.8125,-3.8125 0,-0.46388 0.40852,-0.57692 0.9375,-0.25 0.61572,0.38054 0.61572,1.50553 0,3.125 -0.52898,1.39134 -0.93749,2.9796 -0.9375,3.53125 0,1.32174 4.72566,-2.09988 9.46875,-6.84375 3.53811,-3.5387 4.04397,-2.93385 0.75,0.90625 -0.80804,0.94202 -1.16858,2.47839 -0.8125,3.40625 0.57515,1.49882 0.90495,1.4133 3.1875,-0.71875 l 2.59375,-2.375 -0.34375,2.5 c -0.31705,2.29553 -0.99804,2.59702 -8.34375,3.8125 -5.16211,0.85416 -8.54216,0.9858 -9.53125,0.375 -2.5067,-1.54799 -7.96874,-2.46703 -7.96875,-1.34375 0,0.55545 0.78751,1.22277 1.75,1.46875 0.9625,0.24598 -0.49999,0.24165 -3.25,0 -4.02026,-0.35326 -4.75505,-0.20195 -3.75,0.8125 1.91206,1.92992 1.4835,2.64755 -1.25,2.125 -3.2321804,-0.61787 -7.7691504,0.53673 -7.0000004,1.78125 0.32995,0.53387 1.62415,0.96876 2.875,0.96875 4.2745404,0 3.6740204,1.37633 -1.53125,3.46875 -8.87243,3.56656 -6.93647,6.21913 2.1875,3 4.6181004,-1.62936 6.4240704,-1.34701 3.0312504,0.46875 -1.1471104,0.61392 -2.0624904,1.82225 -2.0625004,2.6875 0,1.20616 0.60569,1.42092 2.6562504,0.90625 2.36002,-0.59233 2.53717,-0.49412 1.375,0.90625 -2.69464,3.24685 0.16298,3.25427 4.625,0 2.08287,-1.51909 2.16703,-1.50496 1.59375,0.71875 -0.53764,2.08547 -0.42952,2.18699 1.09375,0.9375 1.50387,-1.2336 1.60551,-1.17689 1,0.5 -0.59774,1.65528 -0.36164,1.60207 1.8125,-0.375 2.54742,-2.31653 4.1141,-2.12108 3.15625,0.375 -0.76394,1.99079 1.63304,1.72589 5.4375,-0.59375 1.81112,-1.10426 3.25001,-1.48448 3.25,-0.875 0,0.67729 1.04704,0.85403 2.75,0.46875 1.86079,-0.42098 2.26499,-0.33137 1.25,0.28125 -0.825,0.49795 -3.97499,1.40706 -7,2.03125 -6.51254,1.34382 -8.53501,2.43832 -7.53125,4.0625 0.68942,1.11551 2.03394,0.99433 8.03125,-0.625 1.53184,-0.41361 1.23926,0.22138 -1.25,2.625 -1.7875,1.726 -3.24999,3.34734 -3.25,3.625 0,0.99362 5.56004,-0.24069 8.75,-1.9375 3.50529,-1.86454 4.04468,-1.2939 1.71875,1.78125 -2.031,2.68521 -1.83585,3.869 0.53125,3.25 1.29986,-0.33992 2.00001,-0.008 2,0.90625 0,1.87049 0.91555,1.7689 3.25,-0.34375 1.84577,-1.6704 1.92889,-1.6596 1.59375,0.25 -0.53551,3.0512 5.0127,2.13124 7.96875,-1.3125 l 2.3125,-2.6875 -0.65625,3.25 c -0.86843,4.30094 1.6418,4.41369 5.53125,0.25 1.54133,-1.65 2.93314,-3.0004 3.125,-3 0.19183,3.8e-4 0.41726,1.1639 0.5,2.59375 0.22758,3.93207 1.85678,4.99264 3.9375,2.5625 1.64278,-1.91863 1.87818,-1.9557 3.09375,-0.375 1.20346,1.56495 1.33949,1.54112 1.90625,-0.46875 0.36659,-1.29999 1.15833,-1.96725 1.96875,-1.65625 0.86238,0.33092 1.60365,-0.45259 2.03125,-2.15625 0.46336,-1.84617 0.92881,-2.31109 1.46875,-1.4375 0.43203,0.69904 1.72158,1.41772 2.875,1.59375 1.62873,0.24856 2.58481,-0.66454 4.28125,-4.15625 2.19088,-4.5095 4.50243,-6.24913 3.3125,-2.5 -0.76874,2.42208 -0.19042,2.48593 3.03124,0.375 1.35565,-0.88826 2.49868,-2.57577 2.5625,-3.75 0.0928,-1.70828 0.22592,-1.78502 0.59375,-0.375 0.75977,2.91266 2.3112,0.89068 2.34375,-3.0625 0.0246,-2.99252 0.20488,-3.35633 1.03125,-1.9375 0.5606,0.9625 1.956474,1.75001 3.093754,1.75 1.97038,0 2.04723,0.36511 1.40625,7.75 -0.44787,5.16029 -1.49709,9.36956 -3.125,12.59375 -0.953144,1.88781 -1.753544,3.56885 -2.156254,4.5 l 24.875004,0 c 1.10289,-0.88294 0.60656,-2.43306 -0.53125,-5.15625 -1.77332,-4.24415 -2.45717,-12.9101 -1.0625,-13.375 0.54503,-0.18167 1.77222,1.00099 2.75,2.65625 1.82288,3.08588 4.06421,4.22313 3.03125,1.53125 -1.18115,-3.07801 0.67904,-1.3926 2.03125,1.84375 1.07922,2.58294 1.94351,3.35411 3.75,3.21875 1.29577,-0.0971 3.00434,0.29312 3.78125,0.875 1.01281,0.75853 1.52583,0.72642 1.8125,-0.125 0.26556,-0.78862 1.05706,-0.53669 2.34375,0.75 2.574,2.574 3.85552,2.45037 3.25,-0.3125 -0.28816,-1.31483 -0.14523,-1.81448 0.34375,-1.1875 1.15277,1.47817 4.34376,2.55385 4.34375,1.46875 0,-1.00947 5.51979,-0.65197 8.40625,0.53125 1.51919,0.62275 1.80012,0.42698 1.3125,-0.84375 -0.33959,-0.88495 -0.0941,-1.78946 0.5625,-2.03125 0.91184,-0.33578 0.92351,-0.76922 -0.0312,-1.78125 -2.26995,-2.40614 -1.32936,-2.717 2.40625,-0.8125 4.12951,2.10535 5.28163,1.79635 3.28125,-0.84375 -1.07017,-1.41242 -1.085,-1.52667 -0.0312,-0.59375 0.728,0.64452 1.9295,0.94711 2.6875,0.65625 0.75797,-0.29087 1.40626,-0.12873 1.40625,0.375 0,0.50372 0.60952,1.76565 1.375,2.8125 1.19919,1.63999 1.63867,1.71294 3.0625,0.53125 1.4354,-1.19127 1.83902,-1.04573 3.25,0.96875 l 1.625,2.3125 0.90625,-2.40625 c 0.83516,-2.23592 0.98947,-2.27985 2.1875,-0.65625 1.58291,2.14515 2.29039,2.17838 4.25,0.21875 1.21898,-1.21899 1.28725,-1.82551 0.3125,-3 -0.67196,-0.80967 -0.92417,-1.46874 -0.5625,-1.46875 0.36169,0 0.13837,-1.01249 -0.5,-2.25 -0.97143,-1.88324 -0.60648,-1.77341 2.21875,0.78125 6.22325,5.62725 6.63358,5.83517 8.40625,4.0625 0.88295,-0.88295 1.25187,-2.14608 0.84375,-2.84375 -0.41782,-0.71431 0.0959,-0.5952 1.1875,0.28125 5.28606,4.2443 10.63841,5.07961 7.03125,1.09375 -1.62853,-1.79951 -1.57422,-1.93981 1.03125,-2.59375 l 2.71875,-0.6875 -2.9375,-2.375 c -3.84113,-3.13982 -1.78722,-3.14758 3.71875,0 2.39364,1.36838 4.93751,2.49339 5.625,2.5 2.01834,0.0195 1.43581,-1.57525 -1,-2.75 -2.02506,-0.97664 -1.87185,-1.09534 1.78125,-1.15625 2.23238,-0.0372 4.93236,-0.72373 6,-1.53125 1.8468,-1.39685 1.82298,-1.46846 -1.03125,-1.5 -4.28299,-0.0474 -19.51545,-2.82054 -22.6875,-4.125 -3.88633,-1.5982 -4.62286,-4.0438 -0.78125,-2.59375 3.37051,1.27222 5.07511,0.22068 2.59375,-1.59375 -1.44024,-1.05312 -0.97605,-1.17879 2.84375,-0.875 4.87617,0.38782 5.91514,-0.84137 2.28125,-2.6875 -1.94677,-0.98903 -1.61659,-1.11413 2.625,-0.90625 5.7235,0.28052 7.33671,-1.60083 2.40625,-2.8125 l -3.28125,-0.8125 3.25,-0.375 c 3.80578,-0.45422 4.14164,-1.48304 1,-3.09375 -1.83798,-0.94233 -1.0597,-1.07045 4.25,-0.625 5.98489,0.50209 6.31853,0.42215 4.53125,-1 -1.06762,-0.8495 -2.7251,-1.53124 -3.6875,-1.53125 -0.96242,0 -2.03698,-0.4963 -2.40625,-1.09375 -0.42066,-0.68065 0.20732,-1.02967 1.6875,-0.90625 4.17833,0.3484 6.87501,0.0185 6.875,-0.875 0,-0.47893 -3.17008,-1.18201 -7.03125,-1.5625 -3.8612,-0.38047 -6.80586,-1.05561 -6.53125,-1.5 0.27464,-0.44438 3.15639,-1.40401 6.40625,-2.125 6.13001,-1.35994 10.01048,-3.39572 8.78125,-4.625 -0.62817,-0.62817 -6.19273,0.27854 -13.625,2.25 -2.28372,0.60577 -2.22561,0.41769 0.90625,-2.28125 5.15354,-4.44116 2.24496,-4.89789 -5.1875,-0.8125 -7.4628,4.10207 -11.73582,4.43703 -20,1.59375 -9.37751,-3.22634 -24.58663,-10.94718 -25.71875,-13.0625 -1.40188,-2.61944 -0.60517,-2.54173 1.9375,0.1875 1.12143,1.20371 2.06251,1.82105 2.0625,1.375 0,-0.44606 0.67501,-0.24718 1.5,0.4375 1.23935,1.02857 1.50001,0.9326 1.5,-0.5625 0,-1.50655 0.51186,-1.32032 3.125,1.125 l 3.125,2.9375 -0.59375,-3.21875 c -0.59881,-3.17345 -0.55858,-3.20518 2.125,-2.0625 1.49478,0.63648 3.39376,1.67751 4.21875,2.3125 3.87754,2.9845 4.32747,2.91846 3.625,-0.59375 -0.53065,-2.65325 -0.4271,-3.11457 0.53125,-2.15625 1.74015,1.74015 5.84376,1.54302 5.84375,-0.28125 0,-1.86345 1.61481,-1.95716 2.6875,-0.15625 0.43983,0.73842 2.05001,2.11891 3.5625,3.09375 2.26833,1.46198 2.75001,1.51678 2.75,0.3125 0,-0.80301 -0.89999,-2.2545 -2,-3.25 -1.1,-0.99549 -1.99999,-2.28734 -2,-2.84375 0,-0.55643 0.25325,-0.71546 0.59375,-0.375 0.34047,0.34048 1.32946,-0.0795 2.1875,-0.9375 1.08249,-1.08249 2.70771,-1.41187 5.3125,-1.0625 2.59115,0.34755 3.92605,0.0819 4.28125,-0.84375 0.39203,-1.02162 1.30181,-1.12631 3.8125,-0.40625 8.81958,2.52942 10.44293,-0.35395 1.9375,-3.4375 -5.74998,-2.08461 -6.4773,-3.13774 -1.09375,-1.59375 6.8419,1.96223 15.74166,0.47675 11.96875,-2 -0.825,-0.54158 -3.52499,-1.0515 -6,-1.125 -3.82102,-0.11347 -4.07101,-0.21364 -1.59375,-0.75 1.60463,-0.34743 3.11839,-1.26003 3.375,-2.03125 0.38981,-1.17152 -1.18819,-1.30413 -9.6875,-0.71875 -10.00775,0.68928 -10.16807,0.68924 -8.9375,-1.28125 1.83152,-2.93273 0.57314,-3.44056 -4.40625,-1.75 -2.69214,0.91401 -6.14741,1.29785 -8.84375,0.96875 -5.78087,-0.70557 -24.90861,-7.11506 -27.15625,-9.09375 -2.34923,-2.06814 -2.21688,-3.5017 0.25,-2.71875 1.12148,0.35594 2.00001,0.17467 2,-0.40625 0,-1.08449 1.49786,-0.77267 6.5,1.40625 1.65,0.71873 5.27171,1.3286 8.0625,1.34375 2.79078,0.0151 5.49076,0.12137 6,0.21875 2.34079,0.4476 2.5875,-0.23585 0.84375,-2.3125 -1.25381,-1.49314 -0.86056,-1.32494 1.15625,0.5 3.45893,3.12991 4.43751,3.39058 4.4375,1.21875 0,-1.32 0.32187,-1.31189 2.5625,0.15625 1.50894,0.98869 2.8621,1.29939 3.25,0.75 0.36556,-0.5177 2.01177,-1.52535 3.65625,-2.25 2.87063,-1.26496 2.91653,-1.36303 1.0625,-2.71875 -2.26403,-1.65549 -1.68794,-1.79213 1.875,-0.4375 1.9363,0.73618 2.59376,0.66659 2.59375,-0.3125 0,-0.79057 2.53815,-1.82948 6.5,-2.65625 3.575,-0.74603 6.50001,-1.76557 6.5,-2.25 0,-0.48444 0.42313,-0.58723 0.96875,-0.25 0.54564,0.33722 1.7909,0.16173 2.75,-0.375 1.5245,-0.85315 1.38728,-1.08049 -1.03125,-1.6875 -2.08556,-0.52345 -2.62024,-1.13648 -2.1875,-2.5 0.42466,-1.33801 -0.0221,-1.87506 -1.71875,-2.125 -1.61929,-0.23856 -0.46918,-0.94058 3.9375,-2.34375 6.82896,-2.17444 8.51625,-4.14244 2.53125,-2.96875 -5.52624,1.08373 -19.24999,1.33028 -19.25,0.34375 0,-0.46827 0.45001,-0.84374 1,-0.84375 0.55,0 1.00001,-0.45476 1,-1 0,-0.54523 -2.13749,-0.95947 -4.75,-0.90625 -6.56142,0.13365 -17.05083,-2.05967 -17.6875,-3.71875 -0.35824,-0.93356 0.28822,-1.37499 1.96875,-1.375 1.35774,0 2.46876,-0.43602 2.46875,-0.96875 0,-0.53273 0.67501,-0.72282 1.5,-0.40625 0.825,0.31659 1.50001,0.0463 1.5,-0.59375 0,-0.76703 0.75379,-0.61983 2.21875,0.40625 1.22237,0.85618 3.35985,1.54955 4.75,1.53125 l 2.53125,-0.0312 -2.3125,-1.9375 -2.28125,-1.90625 4.78125,-0.3125 4.8125,-0.34375 -3.5,-1.6875 -3.5,-1.6875 3.0625,-0.0312 c 1.95163,-0.0248 3.94722,-0.9449 5.4375,-2.53125 1.29175,-1.375 2.80942,-2.49999 3.40625,-2.5 0.59682,0 1.68024,-0.91878 2.375,-2.03125 1.82834,-2.92765 -0.50047,-3.51451 -6.25,-1.5625 -6.20034,2.10507 -7.48526,2.04685 -6.84375,-0.40625 0.63171,-2.41568 0.46721,-2.42898 -5.8125,-0.375 -4.77699,1.56248 -5.27387,1.51695 -12.90625,-0.65625 -10.29305,-2.93081 -12.93142,-5.67612 -5,-5.21875 0.81697,0.0471 1.80054,-0.40516 2.1875,-1.03125 0.49218,-0.79638 1.3206,-0.60908 2.71875,0.65625 1.56711,1.41821 2.87704,1.66318 6.0625,1.125 4.54454,-0.76779 4.82596,-1.14786 2.3125,-3.21875 -1.79822,-1.48161 -1.13443,-1.43523 3.15625,0.28125 1.53638,0.61464 1.79418,0.43046 1.28125,-0.90625 -0.47335,-1.23354 -0.0923,-1.65625 1.4375,-1.65625 1.39262,0 1.90084,-0.47443 1.53125,-1.4375 -0.30295,-0.78947 -0.0316,-1.66152 0.625,-1.9375 0.83817,-0.3523 0.72423,-0.92482 -0.4375,-1.875 -1.5183,-1.24182 -1.45649,-1.53258 0.75,-3.65625 3.60238,-3.46717 2.93331,-4.19244 -2.34375,-2.5 -13.12347,4.20894 -17.93518,4.4599 -21.15625,1.03125 -1.82539,-1.94304 -1.93211,-2.47188 -0.71875,-2.9375 0.81475,-0.31265 2.83088,-0.0675 4.5,0.5625 4.27407,1.61327 5.18765,0.005 1.625,-2.875 -2.49814,-2.01953 -2.66542,-2.39432 -1,-2.25 3.49789,0.30312 5.50001,-0.0946 5.5,-1.125 0,-0.55 -0.78749,-1.02762 -1.75,-1.0625 -1.41716,-0.0513 -1.36567,-0.24677 0.34375,-0.9375 1.16099,-0.46911 2.37965,-1.55375 2.71875,-2.4375 0.53384,-1.39116 0.33481,-1.45434 -1.59375,-0.375 -3.48804,1.95215 -24.32864,1.6541 -28.71875,-0.40625 -3.06885,-1.44028 -3.23135,-1.64721 -1.15625,-1.71875 1.89439,-0.0653 2.2817,-0.48166 1.84375,-2.15625 -0.49073,-1.87654 -0.38236,-1.94796 1.125,-0.65625 2.19119,1.87773 5.18751,2.92622 5.1875,1.8125 0,-0.48124 0.90001,-0.66267 2,-0.375 1.11819,0.29241 2.00001,0.0306 2,-0.59375 0,-0.61415 1.12501,-1.09375 2.5,-1.09375 3.32389,0 3.15915,-0.99463 -0.6875,-4.15625 l -3.21875,-2.625 5.34375,0.84375 c 5.51125,0.87121 7.51712,0.50879 6.46875,-1.1875 -1.02426,-1.6573 1.66268,-3.875 4.6875,-3.875 3.40736,0 3.87826,-1.65127 0.65625,-2.34375 -1.27811,-0.27468 -0.73816,-0.45011 1.25,-0.375 2.27524,0.0859 3.41253,-0.27059 3.25,-1.0625 -0.1375,-0.67001 0.22642,-1.21875 0.84375,-1.21875 0.75501,0 0.717,-0.51028 -0.15625,-1.5625 -0.82794,-0.9976 -2.23334,-1.39706 -3.875,-1.0625 -1.41581,0.28853 -1.99999,0.29902 -1.3125,0 2.30844,-1.00398 1.28623,-2.60532 -1.25,-1.96875 -2.02794,0.50898 -2.33996,0.31201 -1.8125,-1.0625 0.47172,-1.22928 0.26626,-1.45254 -0.71875,-0.84375 -0.73882,0.45662 -2.48913,0.91389 -3.90625,1.03125 -1.41715,0.11735 -3.68749,0.52504 -5.0625,0.90625 l -2.5,0.6875 2.75,-2.34375 c 3.17767,-2.72726 3.63885,-4.32512 0.8125,-2.8125 -2.78877,1.4925 -4.83601,1.36729 -3.28125,-0.1875 2.24449,-2.24449 1.35895,-4.01448 -0.9375,-1.875 -1.17428,1.094 -3.53144,2.65326 -5.25,3.46875 -6.1095,2.89915 -22.59374,-1.04804 -22.59375,-5.40625 0,-0.87141 -0.55873,-2.12125 -1.21875,-2.78125 -0.80282,-0.80282 -0.82497,-1.1875 -0.0937,-1.1875 0.60116,0 1.33931,0.67401 1.65625,1.5 0.36555,0.95259 1.7941,1.45113 3.875,1.375 1.80438,-0.066 4.29376,0.22085 5.53125,0.625 1.84839,0.60369 2.25001,0.3361 2.25,-1.375 l 0,-2.0625 3.40625,2 c 2.44856,1.44469 3.61108,1.7065 4.125,0.875 0.39386,-0.63727 0.10172,-1.58378 -0.65625,-2.09375 -1.18739,-0.7989 4.64998,-0.69233 8.625,0.15625 0.55,0.11741 2.02177,-0.12687 3.28125,-0.53125 2.11269,-0.67832 2.15099,-0.88283 0.6875,-2.5 -1.4679,-1.62201 -1.38752,-1.78362 0.96875,-2.375 2.88907,-0.72511 3.46497,-2.59693 0.8125,-2.65625 -1.10256,-0.0247 -0.6401,-0.53861 1.25,-1.40625 1.65,-0.75742 4.32293,-2.47181 5.9375,-3.8125 l 2.90625,-2.4375 -3.65625,-0.6875 c -2.0271,-0.38028 -3.68749,-1.12069 -3.6875,-1.65625 0,-0.56163 -1.16384,-0.70756 -2.75,-0.3125 -2.40056,0.59789 -2.61343,0.50849 -1.5,-0.84375 1.93084,-2.34496 -0.94545,-3.06059 -3.90625,-0.96875 -1.38573,0.97904 -4.39304,1.70713 -7.28125,1.75 -3.93904,0.0585 -4.50036,-0.13914 -2.78125,-0.90625 1.94444,-0.86764 2.13674,-1.6828 1.28125,-5.5 -0.0409,-0.18236 -1.58507,0.60513 -3.4375,1.75 -1.85242,1.14486 -4.8899,2.06844 -6.75,2.0625 -6.23469,-0.02 -16.96599,-4.17402 -23.78125,-9.21875 -2.62414,-1.94241 -2.06821,-2.34408 0.96875,-0.71875 1.57439,0.84259 1.94402,0.70306 1.96875,-0.75 0.029,-1.70453 0.078,-1.72227 1.0625,-0.0312 0.56708,0.97407 1.43685,1.52818 1.9375,1.21875 0.50067,-0.30942 2.04698,0.18264 3.4375,1.09375 2.50098,1.6387 2.51611,1.61536 2.53125,-1.21875 0.008,-1.57576 0.34592,-2.35517 0.75,-1.75 0.87519,1.31071 4.65308,3.40625 6.15625,3.40625 0.58616,0 1.1327,-1.0125 1.1875,-2.25 0.0946,-2.13575 0.12115,-2.12306 0.78125,0.25 0.38248,1.375 0.90603,2.29295 1.15625,2.0625 0.25021,-0.23044 1.39145,0.0775 2.53125,0.6875 1.6897,0.9043 2.32881,0.75695 3.4375,-0.78125 0.74787,-1.03761 1.74691,-1.63538 2.21875,-1.34375 0.47186,0.29163 0.54667,-0.63141 0.1875,-2.0625 -0.62509,-2.49054 -0.54003,-2.56388 2.09375,-1.5625 3.25108,1.23605 4.26191,0.62298 2.5,-1.5 -1.05262,-1.26833 -0.94782,-1.5 0.53125,-1.5 1.68315,0 1.66014,-0.10636 0.0312,-1.90625 -0.94607,-1.0454 -1.29356,-2.15211 -0.78125,-2.46875 0.51232,-0.31663 1.71683,0.30243 2.6875,1.375 1.52405,1.68405 2.50338,1.83496 6.375,1.0625 0.20485,-0.0409 -0.10616,-0.66814 -0.71875,-1.40625 -1.30131,-1.56799 -0.53053,-2.65625 1.90625,-2.65625 0.9474,0 2.79531,-0.88705 4.09375,-1.96875 l 2.375,-1.96875 -3,-0.1875 c -1.65,-0.10383 -4.1027,-0.0904 -5.4375,0.0312 -2.1125,0.19246 -2.27346,0.009 -1.125,-1.375 2.18666,-2.63476 0.6472,-2.62698 -3.21875,0 -4.19199,2.84853 -6.71662,3.34479 -4.71875,0.9375 1.05678,-1.27335 0.99751,-1.43292 -0.375,-0.90625 -1.90813,0.73222 -2.18624,-0.62626 -0.46875,-2.34375 2.56131,-2.56131 -0.15549,-2.17698 -3.3125,0.46875 -6.21557,5.20893 -6.97874,5.37434 -14,3.25 -7.36129,-2.2272 -12.29759,-5.00901 -13.78125,-7.78125 -0.9081,-1.69681 -0.70112,-1.93702 1.46875,-1.8125 1.36893,0.0786 2.69995,0.84205 2.96875,1.6875 0.2688,0.84545 1.43735,1.60039 2.59375,1.6875 1.68734,0.1271 1.98328,-0.27145 1.53125,-2 -0.50136,-1.91721 -0.29017,-1.84821 1.78125,0.5625 1.27997,1.48959 3.32026,2.71875 4.5625,2.71875 1.96067,0 2.19264,-0.38054 1.6875,-2.90625 -0.75695,-3.78477 1.58999,-4.82976 4.03125,-1.78125 1.66787,2.08272 7.29248,3.54556 7.3125,1.90625 0.005,-0.40634 -1.45756,-1.93979 -3.25,-3.4375 -2.48544,-2.07673 -2.82728,-2.72948 -1.46875,-2.75 0.97977,-0.0148 2.02839,0.61566 2.34375,1.4375 0.31537,0.82184 0.95187,1.28082 1.40625,1 0.45436,-0.28081 1.09204,-0.059 1.4375,0.5 0.34546,0.55897 1.83355,1.03125 3.28125,1.03125 2.51961,0 2.54564,-0.0731 0.6875,-1.4375 -1.87222,-1.3747 -1.84019,-1.46344 0.875,-2.5 1.5483,-0.59108 3.34828,-1.07426 4,-1.09375 0.65169,-0.0195 0.0625,-0.67509 -1.3125,-1.4375 -2.43761,-1.3516 -2.41221,-1.38121 1.375,-1.03125 2.45345,0.22671 4.40945,-0.15948 5.3125,-1.0625 2.19829,-2.19829 0.63989,-3.43749 -4.3125,-3.43749 -2.7664,0 -4.25765,-0.41216 -3.875,-1.03125 1.25978,-2.03838 -2.43209,-2.07321 -6.59375,-0.0625 -5.1004,2.46423 -6.04697,2.58921 -5.28125,0.59375 0.36156,-0.94221 -0.0103,-1.5 -1,-1.5 -0.98969,0 -1.36154,-0.5578 -1,-1.5 0.67317,-1.75425 0.32557,-1.815 -2.96875,-0.5625 -2.14278,0.81469 -2.3789,0.68788 -1.9375,-1 0.52543,-2.00922 -1.15324,-2.71206 -2.25,-0.9375 -0.34478,0.55786 -2.46235,1.97388 -4.71875,3.125 -3.627,1.85036 -4.56424,1.94183 -8.125,0.875 -3.32001,-0.99471 -3.74345,-1.37295 -2.34375,-2.15625 0.93388,-0.52263 1.71876,-1.62954 1.71875,-2.46875 0,-1.18372 -1.02488,-1.46563 -4.53125,-1.25 -3.41116,0.20977 -4.98053,-0.21399 -6.4375,-1.6875 -2.19447,-2.21939 -4.31649,-10.14773 -2.9375,-11 0.8527,-0.527 1.33009,1.60368 0.96875,4.34375 -0.0925,0.70167 0.78771,2.62262 1.96875,4.28125 1.71389,2.40693 2.44321,2.77269 3.5625,1.84375 0.77132,-0.64014 1.43618,-2.33609 1.5,-3.78125 0.0917,-2.07772 0.23973,-2.20648 0.625,-0.625 0.75699,3.10729 3.35239,5.5 5.96875,5.5 2.04335,0 2.23247,-0.27698 1.34375,-1.9375 -1.30628,-2.44081 -1.31493,-3.35587 -0.0312,-2.5625 0.55,0.33992 1.00001,0.14497 1,-0.4375 0,-0.58246 0.45001,-1.0625 1,-1.0625 0.55,0 1.00001,0.63013 1,1.40625 0,1.79319 5.84274,6.78512 7.0625,6.03125 0.50343,-0.31114 0.93751,-1.43246 0.9375,-2.5 0,-1.06754 0.44879,-1.9375 1.03125,-1.9375 0.58246,0 0.79271,-0.5625 0.4375,-1.25 -0.35519,-0.68751 0.18744,-0.23103 1.21875,1.03125 1.03128,1.26228 2.21941,1.96812 2.625,1.5625 0.40562,-0.40561 1.71419,-0.89215 2.9375,-1.0625 2.70833,-0.37715 6.75001,-2.37038 6.75,-3.34375 0,-0.39033 -1.33828,-1.26214 -2.96875,-1.9375 -1.63045,-0.67536 -2.86794,-1.74613 -2.75,-2.375 0.11955,-0.63736 -1.15168,-1.19425 -2.84375,-1.25 -3.4983,-0.11525 -8.58968,-2.49094 -6.6875,-3.125 0.68604,-0.22868 1.25001,-1.06458 1.25,-1.84375 0,-1.58585 -5.00024,-1.99092 -6.5625,-0.53125 -1.51151,1.41224 -5.43749,2.33622 -5.4375,1.28125 0,-0.52744 1.13896,-1.23647 2.5625,-1.59375 2.13256,-0.53524 2.37253,-0.92304 1.375,-2.125 -0.98711,-1.18939 -0.83915,-1.44282 0.6875,-1.46875 2.22756,-0.0378 5.98967,-2.69786 5.09375,-3.59375 -0.34518,-0.34518 -2.6853,-0.84297 -5.1875,-1.125 -5.00446,-0.56407 -4.97947,-0.54802 -3.5,-3.3125 0.95943,-1.7927 1.20156,-1.81959 3.40625,-0.375 2.22636,1.45877 2.41539,1.40906 3.03125,-0.53125 0.3619,-1.14025 1.08332,-1.81545 1.59375,-1.5 0.5104,0.31545 0.93751,0.11371 0.9375,-0.46875 0,-0.58246 0.90001,-1.0625 2,-1.0625 1.1,0 2.00001,-0.64009 2,-1.40625 0,-1.52901 -2.11325,-2.59375 -5.09375,-2.59375 -2.27029,0 -2.57583,-1.83569 -0.4375,-2.65625 0.82184,-0.31537 1.28433,-0.90303 1.03125,-1.3125 -0.25307,-0.40947 0.6624,-1.32992 2.03125,-2.0625 3.37038,-1.80377 2.53656,-3.46875 -1.75,-3.46875 l -3.53125,0 2.53125,-3.3125 c 1.97354,-2.58585 2.23666,-3.55555 1.28125,-4.5 -0.95208,-0.94116 -1.92135,-0.42779 -4.5,2.375 -3.05746,3.32327 -3.37515,3.45111 -4.4375,1.75 -0.63034,-1.00934 -1.59379,-1.8125 -2.125,-1.8125 -1.18879,0 -4.34773,5.59553 -5.03125,8.9375 -0.50524,2.4703 -9.7093,10.35563 -11.09375,9.5 -0.39445,-0.24379 -0.58881,-2.91338 -0.46875,-5.9375 0.12005,-3.02411 -0.17692,-5.5 -0.65625,-5.5 -0.47933,0 -0.7332,-1.66139 -0.5625,-3.6875 0.25899,-3.07394 0.76263,-3.81888 3.09375,-4.4375 2.41642,-0.64125 2.72415,-0.49868 2.21875,1.09375 -0.91222,2.87413 1.52703,3.60544 3.46875,1.03125 1.0266,-1.361 1.99051,-1.87213 2.375,-1.25 0.68151,1.10272 4.65626,0.51981 4.65625,-0.6875 0,-0.9294 -4.978,-5.58644 -5.84375,-5.46875 -0.36819,0.05 -1.44991,-0.12492 -2.40625,-0.375 -2.82174,-0.7379 -0.9864,-2.14366 2,-1.53125 5.01273,1.02795 9.53107,0.83586 9.96875,-0.4375 0.23632,-0.6875 -0.22778,-1.25 -1.03125,-1.25 -0.80349,0 -2.00785,-0.68105 -2.6875,-1.5 -0.67967,-0.81894 -1.63734,-1.2389 -2.125,-0.9375 -0.48768,0.30141 -0.87657,0.19496 -0.875,-0.25 0.002,-0.44496 1.35317,-1.7125 3,-2.8125 3.02791,-2.02248 3.85951,-3.5 1.96875,-3.5 -1.82117,0 -8.37054,3.02887 -9.25,4.28125 -0.52044,0.74112 -0.62089,0.35648 -0.25,-0.96875 0.3334,-1.19121 0.17474,-2.42953 -0.34375,-2.75 -1.08843,-0.67268 -5.12499,5.75979 -5.125,8.15625 0,0.88523 -0.29813,1.32687 -0.65625,0.96875 -0.35812,-0.35812 -1.2808,0.10855 -2.03125,1.0625 -1.18898,1.51142 -1.28928,1.10245 -0.84375,-3.15625 0.41392,-3.95679 1.35318,-5.88757 5,-10.15625 2.47738,-2.89979 4.53126,-5.92024 4.53125,-6.71875 0,-2.40307 -5.02483,-0.82299 -6.0625,1.90625 -1.65104,4.34257 -3.46804,2.83701 -3.09375,-2.5625 0.27311,-3.94006 -0.082,-5.42833 -1.75,-7.21875 L 102.8992,2e-4 Z m -6.781254,35.09375 c 0.45703,0.0273 1.54375,0.89516 2.78125,2.28125 2.056144,2.30303 3.000014,4.38087 3.000004,6.65625 0,1.82594 -0.1901,3.34375 -0.40625,3.34375 -0.53774,0 -1.826534,-3.09863 -2.281254,-5.46875 -0.20551,-1.07121 -1.03191,-2.6654 -1.84375,-3.5625 -0.81186,-0.89709 -1.46874,-2.25674 -1.46875,-3 0,-0.18581 0.0664,-0.2591 0.21875,-0.25 z m -2.4375,14.6875 c 1.9027,0.13955 6.517654,3.32384 7.250004,5.25 1.30269,3.42632 0.56242,4.06521 -1.687504,1.4375 -0.98662,-1.15228 -2.34781,-2.09375 -3.03125,-2.09375 -1.15786,0 -3.88841,-3.86708 -3.15625,-4.46875 0.14141,-0.11621 0.35319,-0.14493 0.625,-0.125 z m 27.312504,8.15625 c 0.24049,10e-4 0.53274,0.0437 0.84375,0.125 1.64941,0.43133 1.26244,1.02525 -2.59375,3.96875 -2.49875,1.90734 -5.42373,3.54628 -6.46875,3.625 -1.04504,0.0787 -1.87499,0.4733 -1.875,0.90625 0,0.43296 -0.50553,0.8125 -1.09375,0.8125 -0.58825,0 -0.92578,-1.01268 -0.75,-2.25 0.27658,-1.94716 0.84802,-2.21992 4.09375,-1.9375 2.88563,0.25108 3.75001,-0.0368 3.75,-1.25 0,-0.86714 0.67501,-1.5625 1.5,-1.5625 0.825,0 1.50001,-0.63274 1.5,-1.40625 0,-0.67527 0.37227,-1.0354 1.09375,-1.03125 z M 109.3992,72.25 l 2.34375,1.15625 c 1.28873,0.62782 3.42624,0.86349 4.75,0.53125 1.3631,-0.34211 2.40626,-0.17087 2.40625,0.40625 0,0.56048 -0.43248,1.03125 -0.9375,1.03125 -0.50502,0 -1.5644,0.23219 -2.34375,0.53125 -0.77934,0.29906 -2.48434,-0.40739 -3.8125,-1.5625 L 109.3992,72.25 Z m 10.96875,2.46875 c 0.22696,0.0335 0.5613,0.26623 1.03125,0.65625 1.1178,0.92769 1.50001,0.94293 1.5,0.0625 0,-0.6498 0.49169,-0.86016 1.125,-0.46875 0.79787,0.49311 0.58923,1.12892 -0.6875,2.0625 -2.57566,1.88337 -3.43749,1.67905 -3.4375,-0.78125 0,-1.10827 0.0905,-1.58702 0.46875,-1.53125 z m 15.0625,3.65625 c 0.85746,0 1.30868,0.45 0.96875,1 -0.79968,1.29391 -2.49999,1.29391 -2.5,0 0,-0.55 0.67379,-1 1.53125,-1 z m -23.53125,16 c 0.55,0 1.00001,2.25 1,5 0,5.06992 -0.15084,5.50542 -1.34375,4.31249 -1.06487,-1.06486 -0.75914,-9.31249 0.34375,-9.31249 z m -7.625,13.34374 c 0.35859,-0.0603 0.625,0.15691 0.625,0.59375 0,0.58246 -0.44999,1.0625 -1,1.0625 -1.28138,0 -1.28137,-0.70806 0,-1.5 0.1375,-0.085 0.25547,-0.13615 0.375,-0.15625 z m 8.0625,2.125 c 0.0576,-0.005 0.15027,0.0807 0.21875,0.25 0.27392,0.67703 0.28479,2.02702 0.0312,3 -0.25354,0.97297 -0.47961,0.43125 -0.5,-1.21875 -0.0153,-1.2375 0.077,-2.01564 0.25,-2.03125 z m -12.437504,0.53125 c 0.550004,0 1.000014,0.19496 1.000004,0.4375 0,0.24254 -0.44999,0.72258 -1.000004,1.0625 -0.55,0.33992 -0.99999,0.14496 -1,-0.4375 0,-0.58246 0.45001,-1.0625 1,-1.0625 z m -5,2 c 0.55,0 1.00001,0.19496 1,0.4375 0,0.24254 -0.44999,0.72258 -1,1.0625 -0.55,0.33992 -0.99999,0.14495 -1,-0.4375 0,-0.58246 0.45001,-1.0625 1,-1.0625 z m -20.81249,0.0312 c 0.68372,0.0672 1.53264,0.51856 2.1875,1.34375 2.02726,2.55458 5.38774,2.89373 7.25,0.71875 1.64764,-1.92432 3.99801,-1.9494 2.8125,-0.0312 -0.31644,0.51199 0.11252,0.9375 0.9375,0.9375 0.825,0 1.78509,-0.45 2.125,-1 0.807,-1.30575 2.5,-1.31374 2.49999,0 0,0.56361 -1.23749,1.51305 -2.74999,2.09375 -1.5125,0.58068 -5.32218,1.27973 -8.4375,1.5625 -4.96234,0.45041 -5.79866,0.27751 -6.75,-1.5 -0.59721,-1.11591 -1.06249,-2.50759 -1.0625,-3.09375 0,-0.7608 0.50378,-1.09847 1.1875,-1.03125 z m 91.749994,52.96875 c 0.58246,0 1.06251,0.45 1.0625,1 0,1.28138 -0.70805,1.28138 -1.5,0 -0.33992,-0.55 -0.14495,-1 0.4375,-1 z m -83.593744,12 c 0.61219,0 -0.57264,0.9 -2.625,2 -3.63182,1.94654 -5.71874,2.48877 -5.71875,1.5 0,-0.62079 6.8671,-3.5 8.34375,-3.5 z m 86.343744,42.71875 c 1.10172,-0.007 2.19745,0.10963 2.875,0.375 1.3663,0.53511 0.6942,0.76278 -2.3125,0.8125 -2.3375,0.0387 -4.24999,-0.10162 -4.25,-0.3125 0,-0.53056 1.85129,-0.86409 3.6875,-0.875 z m 22.375,5.40625 c 0.34739,-0.0143 0.76406,0.0431 1.125,0.1875 0.79773,0.31922 0.53997,0.54576 -0.625,0.59375 -1.05416,0.0434 -1.64477,-0.19895 -1.3125,-0.53125 0.16615,-0.16614 0.46511,-0.23569 0.8125,-0.25 z m 0.25,24.90625 c 0.0449,-0.013 0.11875,0 0.1875,0 0.55,0 1.67501,0.4356 2.5,0.96875 0.825,0.53316 1.05001,0.96874 0.5,0.96875 -0.55,0 -1.67499,-0.43558 -2.5,-0.96875 -0.72188,-0.46652 -1.00161,-0.87797 -0.6875,-0.96875 z M 17.024206,290.81244 c 0.47191,-0.0704 0.60651,0.13734 0.34375,0.5625 -0.33602,0.5437 -1.0137,1.00001 -1.53125,1 -1.43843,0 -1.13867,-0.74145 0.59375,-1.40625 0.22248,-0.0854 0.43645,-0.1328 0.59375,-0.15625 z m 16.15625,8.59375 2.28125,2.4375 2.25,2.4375 1.71875,-2.625 c 1.56378,-2.38662 1.78021,-2.43377 2.6875,-0.8125 0.7447,1.3307 1.20081,1.4392 1.78125,0.5 0.55033,-0.89045 0.95625,-0.64129 1.4375,0.875 0.68342,2.15325 2.56251,3.00513 2.5625,1.15625 0,-0.55 1.23751,-1.00338 2.75,-1 l 2.75,0 -3,1.59375 c -1.93373,1.01955 -4.52227,1.3922 -7.25,1.09375 -2.32751,-0.25466 -3.98498,-0.0438 -3.6875,0.4375 0.78847,1.27578 -0.70366,1.04309 -3.78125,-0.5625 -1.5708,-0.8195 -2.81161,-1.00259 -3,-0.4375 -0.1778,0.53339 -1.14317,0.65801 -2.125,0.28125 -1.65914,-0.63667 -1.6155,-0.84595 0.4375,-3.03125 l 2.1875,-2.34375 z m 23.25,1.09375 c 0.21044,-10e-4 0.41339,0.002 0.59375,0.0625 0.74895,0.24965 0.28973,0.70889 -1.0625,1.0625 -1.66335,0.43497 -2.05455,0.30456 -1.3125,-0.4375 0.43583,-0.43583 1.14992,-0.68333 1.78125,-0.6875 z m -10.15625,41.21875 c 0.35859,-0.0603 0.625,0.15691 0.625,0.59375 0,0.58246 -0.44999,1.06251 -1,1.0625 -1.28138,0 -1.28137,-0.70805 0,-1.5 0.1375,-0.085 0.25547,-0.13615 0.375,-0.15625 z" />
</svg>
