<?xml version="1.0" encoding="UTF-8" standalone="no"?>
<!-- Created with Inkscape (http://www.inkscape.org/) -->

<svg
   xmlns:dc="http://purl.org/dc/elements/1.1/"
   xmlns:cc="http://creativecommons.org/ns#"
   xmlns:rdf="http://www.w3.org/1999/02/22-rdf-syntax-ns#"
   xmlns:svg="http://www.w3.org/2000/svg"
   xmlns="http://www.w3.org/2000/svg"
   xmlns:sodipodi="http://sodipodi.sourceforge.net/DTD/sodipodi-0.dtd"
   xmlns:inkscape="http://www.inkscape.org/namespaces/inkscape"
   width="33.866669mm"
   height="67.733337mm"
   viewBox="0 0 120 240.00002"
   id="svg2"
   version="1.1"
   inkscape:version="0.91 r13725"
   sodipodi:docname="building.svg">
  <defs
     id="defs4" />
  <sodipodi:namedview
     id="base"
     pagecolor="#ffffff"
     bordercolor="#666666"
     borderopacity="1.0"
     inkscape:pageopacity="0.0"
     inkscape:pageshadow="2"
     inkscape:zoom="2.8"
     inkscape:cx="77.968189"
     inkscape:cy="118.96776"
     inkscape:document-units="px"
     inkscape:current-layer="layer1"
     showgrid="false"
     fit-margin-top="0"
     fit-margin-left="0"
     fit-margin-right="0"
     fit-margin-bottom="0"
     inkscape:window-width="1600"
     inkscape:window-height="881"
     inkscape:window-x="0"
     inkscape:window-y="19"
     inkscape:window-maximized="0" />
  <metadata
     id="metadata7">
    <rdf:RDF>
      <cc:Work
         rdf:about="">
        <dc:format>image/svg+xml</dc:format>
        <dc:type
           rdf:resource="http://purl.org/dc/dcmitype/StillImage" />
        <dc:title></dc:title>
      </cc:Work>
    </rdf:RDF>
  </metadata>
  <g
     inkscape:label="Capa 1"
     inkscape:groupmode="layer"
     id="layer1"
     transform="translate(-147.04102,-73.011719)">
    <path
       style="opacity:1;fill:#000000;fill-opacity:1;stroke:none;stroke-width:1.09599996;stroke-miterlimit:4;stroke-dasharray:none;stroke-opacity:1"
       d="m 162.04102,73.011719 c -8.31,0 -15,6.689999 -15,15 l 0,210.000001 c 0,14.91714 -0.0651,15 15,15 l 7.46484,0 0,-33.35352 c 0,-2.70781 2.23,-4.88672 5,-4.88672 l 17.5,0 c 2.77,0 5,2.17891 5,4.88672 l 0,33.35352 55.03516,0 c 14.87599,0 15,-0.12401 15,-15 l 0,-210.000001 c 0,-8.310001 -6.69,-15 -15,-15 z m 0.0176,12.177734 17.5,0 c 2.77,0 5,2.23 5,5 l 0,19.642577 c 0,2.77 -2.23,5 -5,5 l -17.5,0 c -2.77,0 -5,-2.23 -5,-5 l 0,-19.642577 c 0,-2.77 2.23,-5 5,-5 z m 36.73243,0 17.5,0 c 2.77,0 5,2.23 5,5 l 0,19.642577 c 0,2.77 -2.23,5 -5,5 l -17.5,0 c -2.77,0 -5,-2.23 -5,-5 l 0,-19.642577 c 0,-2.77 2.23,-5 5,-5 z m 36.73242,0 17.5,0 c 2.77,0 5,2.23 5,5 l 0,19.642577 c 0,2.77 -2.23,5 -5,5 l -17.5,0 c -2.77,0 -5,-2.23 -5,-5 l 0,-19.642577 c 0,-2.77 2.23,-5 5,-5 z m -73.46485,37.013667 17.5,0 c 2.77,0 5,2.23001 5,5 l 0,19.64258 c 0,2.77 -2.23,5 -5,5 l -17.5,0 c -2.77,0 -5,-2.23 -5,-5 l 0,-19.64258 c 0,-2.76998 2.23,-5 5,-5 z m 36.73243,0 17.5,0 c 2.77,0 5,2.23001 5,5 l 0,19.64258 c 0,2.77 -2.23,5 -5,5 l -17.5,0 c -2.77,0 -5,-2.23 -5,-5 l 0,-19.64258 c 0,-2.76998 2.23,-5 5,-5 z m 36.73242,0 17.5,0 c 2.77,0 5,2.23001 5,5 l 0,19.64258 c 0,2.77 -2.23,5 -5,5 l -17.5,0 c -2.77,0 -5,-2.23 -5,-5 l 0,-19.64258 c 0,-2.76998 2.23,-5 5,-5 z m -73.46485,37.01368 17.5,0 c 2.77,0 5,2.23 5,5 l 0,19.64258 c 0,2.77 -2.23,4.99998 -5,5 l -17.5,0 c -2.77,0 -5,-2.23 -5,-5 l 0,-19.64258 c 0,-2.77 2.23,-5 5,-5 z m 36.73243,0 17.5,0 c 2.77,0 5,2.23 5,5 l 0,19.64258 c 0,2.77 -2.23,4.99998 -5,5 l -17.5,0 c -2.77,0 -5,-2.23 -5,-5 l 0,-19.64258 c 0,-2.77 2.23,-5 5,-5 z m 36.73242,0 17.5,0 c 2.77,0 5,2.23 5,5 l 0,19.64258 c 0,2.77 -2.23,4.99998 -5,5 l -17.5,0 c -2.77,0 -5,-2.23 -5,-5 l 0,-19.64258 c 0,-2.77 2.23,-5 5,-5 z m -73.46485,37.01367 17.5,0 c 2.77,0 5,2.23 5,5 l 0,19.64258 c 0,2.77 -2.23,5 -5,5 l -17.5,0 c -2.77,0 -5,-2.23 -5,-5 l 0,-19.64258 c 0,-2.77 2.23,-5 5,-5 z m 36.73243,0 17.5,0 c 2.77,0 5,2.23 5,5 l 0,19.64258 c 0,2.77 -2.23,5 -5,5 l -17.5,0 c -2.77,0 -5,-2.23 -5,-5 l 0,-19.64258 c 0,-2.77 2.23,-5 5,-5 z m 36.73242,0 17.5,0 c 2.77,0 5,2.23 5,5 l 0,19.64258 c 0,2.77 -2.23,5 -5,5 l -17.5,0 c -2.77,0 -5,-2.23 -5,-5 l 0,-19.64258 c 0,-2.77 2.23,-5 5,-5 z m -73.46485,37.01172 17.5,0 c 2.77,0 5,2.23 5,5 l 0,19.64453 c 0,2.77 -2.23,5 -5,5 l -17.5,0 c -2.77,0 -5,-2.23 -5,-5 l 0,-19.64453 c 0,-2.77 2.23,-5 5,-5 z m 36.73243,0 17.5,0 c 2.77,0 5,2.23 5,5 l 0,19.64453 c 0,2.77 -2.23,5 -5,5 l -17.5,0 c -2.77,0 -5,-2.23 -5,-5 l 0,-19.64453 c 0,-2.77 2.23,-5 5,-5 z m 36.73242,0 17.5,0 c 2.77,0 5,2.23 5,5 l 0,19.64453 c 0,2.77 -2.23,5 -5,5 l -17.5,0 c -2.77,0 -5,-2.23 -5,-5 l 0,-19.64453 c 0,-2.77 2.23,-5 5,-5 z"
       id="rect4136"
       inkscape:connector-curvature="0"
       sodipodi:nodetypes="sssscsssscssssssssssssssssssssssssssssssssssssssssssssssssssssssssssssssssssssssssssssssssssssssssssssssssssssssssssssssssssssssssssssssssssssssssssss" />
  </g>
</svg>
