<?xml version="1.0" encoding="UTF-8" standalone="no"?>
<!-- Created with Inkscape (http://www.inkscape.org/) -->

<svg
   xmlns:dc="http://purl.org/dc/elements/1.1/"
   xmlns:cc="http://creativecommons.org/ns#"
   xmlns:rdf="http://www.w3.org/1999/02/22-rdf-syntax-ns#"
   xmlns:svg="http://www.w3.org/2000/svg"
   xmlns="http://www.w3.org/2000/svg"
   xmlns:sodipodi="http://sodipodi.sourceforge.net/DTD/sodipodi-0.dtd"
   xmlns:inkscape="http://www.inkscape.org/namespaces/inkscape"
   version="1.0"
   width="80.675087"
   height="293.9791"
   id="svg2"
   inkscape:version="0.91 r13725"
   sodipodi:docname="cyprus_tree.svg">
  <metadata
     id="metadata4148">
    <rdf:RDF>
      <cc:Work
         rdf:about="">
        <dc:format>image/svg+xml</dc:format>
        <dc:type
           rdf:resource="http://purl.org/dc/dcmitype/StillImage" />
        <dc:title></dc:title>
      </cc:Work>
    </rdf:RDF>
  </metadata>
  <sodipodi:namedview
     pagecolor="#ffffff"
     bordercolor="#666666"
     borderopacity="1"
     objecttolerance="10"
     gridtolerance="10"
     guidetolerance="10"
     inkscape:pageopacity="0"
     inkscape:pageshadow="2"
     inkscape:window-width="1600"
     inkscape:window-height="881"
     id="namedview4146"
     showgrid="false"
     fit-margin-top="0"
     fit-margin-left="0"
     fit-margin-right="0"
     fit-margin-bottom="0"
     inkscape:zoom="0.95794375"
     inkscape:cx="14.698226"
     inkscape:cy="33.133305"
     inkscape:window-x="0"
     inkscape:window-y="19"
     inkscape:window-maximized="0"
     inkscape:current-layer="svg2" />
  <defs
     id="defs4" />
  <path
     inkscape:connector-curvature="0"
     id="path2805"
     style="fill:#000000"
     d="m 44.440804,0.0103402 c -0.6487,0.0737 -0.7063,0.60794 -0.375,1.87501 0.416,1.59067 0.251,1.91446 -0.625,1.1875 -0.8264,-0.68587 -1.8988,-0.25858 -3.5313,1.4375 -1.8585,1.93099 -2.1177,2.75419 -1.1875,3.875 0.943,1.13633 0.5817,1.8399098 -1.875,3.6562498 -1.6833,1.2445 -3.0625,2.59088 -3.0625,2.96875 0,0.37788 1.4625,1.40834 3.25,2.3125 l 3.25,1.65625 -2.875,-0.28125 c -2.2985,-0.21465 -2.9666,0.18255 -3.25,1.9375 -0.1953,1.20979 0.0827,2.47733 0.625,2.8125 1.4454,0.89329 1.2063,2.49999 -0.375,2.5 -0.7508,0 -2.5626,0.93847 -4.0312,2.09375 -1.9964,1.57032 -2.4932,2.64303 -2,4.25 0.8967,2.9219 1.1428,3.09977 2.6562,1.84375 0.9971,-0.82752 1.3125,-0.64759 1.3125,0.71875 0,1.18561 -0.5513,1.63269 -1.6562,1.34375 -0.9201,-0.24061 -1.958,0.0511 -2.3125,0.625 -1.0017,1.6206 -3.5648,0.17254 -2.875,-1.625 0.4169,-1.08672 0.2259,-1.33838 -0.625,-0.8125 -0.681,0.42085 -0.9936,1.3466 -0.7188,2.0625 0.2747,0.71591 -0.0923,2.10892 -0.8125,3.09375 -1.0777,1.47385 -1.0755,2.01831 0,3.09375 0.7186,0.71862 1.8462,1.31249 2.5313,1.3125 0.7562,0 0.4627,0.88415 -0.7813,2.25 -1.1271,1.2375 -2.5914,3.28662 -3.25,4.5625 -1.0318,1.99865 -0.8987,2.57208 1,4.21875 2.0999,1.82123 2.105,1.95134 0.3125,2.625 -2.7655,1.03932 -4.4249,3.58436 -3.25,5 0.6911,0.83274 0.3296,1.26824 -1.25,1.5 -1.2265,0.17996 -2.4105,0.94199 -2.6562,1.6875 -0.3451,1.04667 0.2885,1.17935 2.8125,0.625 2.8188,-0.61913 3.1885,-0.46839 2.625,1 -0.9736,2.53703 0.249,3.828 2.1875,2.3125 1.4542,-1.13692 1.5061,-1.09719 0.4062,0.3125 -0.7933,1.0166 -2.1928,1.42865 -3.7812,1.125 -2.0064,-0.38354 -2.2879,-0.74384 -1.375,-1.84375 0.9126,-1.09964 0.7172,-1.37501 -1,-1.375 -2.3317,0 -4.2233,3.10267 -2.2813,3.75 0.649,0.21632 1.1875,1.3128 1.1875,2.40625 0,2.14389 2.1993,4.84374 3.9375,4.84375 0.5893,0 1.0625,-0.48005 1.0625,-1.0625 0,-0.58246 0.5044,-0.75857 1.125,-0.375 0.7696,0.47563 0.5936,0.99546 -0.5312,1.625 -0.9072,0.5077 -1.4084,1.29144 -1.125,1.75 0.2835,0.45856 -0.147,1.09089 -0.9688,1.40625 -0.8218,0.31537 -1.5,0.15773 -1.5,-0.375 0,-1.43271 -5.7551,-1.1776 -6.3437,0.28125 -0.3794,0.94006 -0.5344,0.91672 -0.5938,-0.0937 -0.0434,-0.73899 0.8463,-1.58147 1.9688,-1.875 1.9988,-0.52272 2.2608,-2.39515 0.4062,-2.9375 -1.533,-0.44831 -7.1054999,4.75674 -5.6874999,5.3125 0.933,0.36567 0.8381,0.88062 -0.3125,2.031251 -1.374,1.37406 -1.3252,1.65648 0.2813,2.875 0.9842,0.74652 1.3312,1.38034 0.7812,1.40625 -0.55,0.0259 -0.3343,0.46075 0.4688,0.96875 1.2596999,0.7968 1.2253999,1.18223 -0.25,2.8125 -0.9407,1.03939 -1.7188,2.41831 -1.7188,3.0625 0,1.40509 2.6322999,1.57209 3.4687999,0.21875 0.325,-0.52598 1.2702,-0.69102 2.0937,-0.375 1.2734,0.48863 1.2226,0.77539 -0.2812,1.875 -0.9726,0.71118 -2.0886,1.06679 -2.5,0.8125 -0.4115,-0.25429 -1.6952999,0.42999 -2.8437999,1.5 -1.4188,1.321839 -1.7394,2.148679 -0.9687,2.624999 0.6238,0.38558 1.0621,1.69003 0.9687,2.875 -0.3457,4.38839 0.04,5.58423 1.5625,5 0.8847999,-0.33953 1.4874999,-0.0192 1.4687999,0.78125 -0.0431,1.83808 -2.4380999,4.87499 -3.8437999,4.875 -0.6269,0 -1.125,0.50257 -1.125,1.125 0,0.74009 1.3618,0.93925 3.9375,0.59375 3.1856999,-0.42728 4.2848999,-0.12856 5.7499999,1.59375 1.4235,1.67333 1.4615,1.8819 0.1563,0.875 -1.2374,-0.95455 -1.8431,-0.98568 -2.375,-0.125 -0.5218,0.84427 -0.9535,0.76661 -1.5625,-0.21875 -0.6371,-1.03079 -1.1042,-1.05211 -1.9999999,-0.15625 -0.8959,0.89586 -0.3065,1.32313 2.4686999,1.84375 1.9967,0.37457 3.625,0.88389 3.625,1.125 0,0.98317 -3.3668,6.83554 -4.6875,8.15625 -0.7799,0.77987 -1.1540999,1.65839 -0.8437,1.96875 0.3103,0.31036 1.0991,0.0571 1.75,-0.59375 2.3447,-2.34469 2.8713,-1.12273 0.7812,1.8125 -2.0742,2.91291 -1.5653,4.15907 0.75,1.84375 0.8634,-0.86334 1.0681,-0.5538 0.875,1.25 -0.3151,2.94399 -2.5481,7.14277 -2.5937,4.875 -0.0168,-0.8302 -0.8959,-2.04868 -1.9687999,-2.71875 -1.5853,-0.99005 -2.2473,-0.94021 -3.5,0.3125 -2.2759,2.27592 -4.0929,0.69425 -1.9375,-1.6875 1.3209,-1.45957 1.4421,-2.21415 0.5625,-3.09375 -0.6378,-0.63784 -1.4178,-0.89472 -1.75,-0.5625 -1.0681,1.06812 -1.4245,8.78124 -0.4062,8.78125 0.5391,0 0.9687,0.44999 0.9687,1 0,0.55 -0.5357,0.88749 -1.1875,0.75 -1.79799998,-0.37935 -2.00619998,5.22036 -0.2187,5.90625 1.2663,0.48594 1.2118,0.9252 -0.4375,2.71875 -1.98709998,2.16074 -2.68239998,7.62499 -0.96879998,7.625 0.51829998,0 0.66159998,0.89999 0.31249998,2 -0.50939998,1.60507 -0.1723,1.98772 1.6875,2 1.7085,0.0113 1.9535,0.2627 0.9375,0.90625 -0.758,0.48009 -1.0615,1.36355 -0.6875,1.96875 0.4456,0.72095 0.0655,0.85107 -1.0937,0.40625 -1.54219998,-0.59177 -1.60779998,-0.47596 -0.375,0.84375 0.7778,0.8327 2.43,1.32817 3.6562,1.09375 2.2689,-0.43372 2.6632,0.91871 1.0313,3.53125 -0.5137,0.82222 0.0192,1.58107 1.5312,2.1875 2.3097999,0.92636 2.1310999,1.03307 -3,1.5625 -1.2742,0.13148 -2.8492,0.76172 -3.5,1.4375 -0.91819998,0.95336 -0.68329998,1.59673 1.0625,2.78125 1.2375,0.83964 2.25,2.00084 2.25,2.59375 0,0.70294 -0.405,0.65749 -1.1875,-0.125 -1.6332,-1.63321 -2.81249998,-1.4957 -2.81249998,0.3125 0,0.825 0.64009998,1.49999 1.40629998,1.5 0.7661,0 1.6521,0.67499 1.9687,1.5 0.3166,0.825 1.1939,1.49999 1.9688,1.5 0.7749,0 1.9634,0.64041 2.625,1.4375 1.0044,1.21023 0.7411,1.4164 -1.5313,1.25 -1.5636,-0.1145 -2.9391,0.39322 -3.2187,1.1875 -0.3668,1.0418 0.299,1.25221 2.6562,0.90625 3.3054,-0.48513 4.0950999,0.8364 1.875,3.09375 -1.0028,1.01966 -0.8038,1.6311 1.0625,3.15625 1.2794999,1.04559 2.0681999,2.37215 1.7187999,2.9375 -0.3495,0.56537 -0.1763,1.03124 0.4062,1.03125 0.5825,0 1.0625,0.67499 1.0625,1.5 0,0.825 -0.45,1.49999 -1,1.5 -0.55,0 -1,0.67499 -1,1.5 0,2.06144 2.6593,1.89096 3.9063,-0.25 0.9103,-1.56287 1.0353,-1.50941 1.0625,0.5 0.0337,2.49918 1.0299,2.84504 2.8437,1.03125 0.9333,-0.93333 1.1875,-0.93333 1.1875,0 0,0.66 -0.45,1.21874 -1,1.21875 -0.55,0 -1,0.67499 -1,1.5 0,0.825 0.675,1.49999 1.5,1.5 0.825,0 1.4771,0.78749 1.4688,1.75 -0.009,1.07965 -0.2968,1.30382 -0.75,0.625 -1.1167,-1.67242 -5.131,-3.55922 -6.1875,-2.90625 -1.7763,1.09781 1.5243,6.53124 3.9687,6.53125 0.6551,0 0.7972,0.52564 0.3438,1.25 -0.4305,0.6875 -0.798,1.69999 -0.8125,2.25 -0.0146,0.55 -0.3688,1.11249 -0.7813,1.25 -1.7755,0.59183 -2.75,0.14887 -2.75,-1.25 0,-1.75466 -1.5707,-2.01103 -2.5625,-0.40625 -0.3779,0.6115 -0.0705,1.5199 0.6875,2 1.1004,0.697 1.0378,0.86277 -0.3125,0.875 -2.8700999,0.026 -3.2790999,2.22734 -0.7812,4.25 1.9151,1.55076 2.09,2.06897 0.9375,2.78125 -0.7797,0.48188 -1.1068,1.20573 -0.7188,1.59375 0.388,0.38802 -0.0773,1.26795 -1.0312,1.96875 -1.5797999,1.1605 -1.4634999,1.3706 1.25,2.40625 2.075,0.792 3.0971,0.83372 3.3437,0.0937 0.1948,-0.58431 0.8375,-1.06251 1.4375,-1.0625 0.6001,0 0.1334,1.03954 -1.0625,2.3125 -1.1959,1.27295 -2.1875,2.84794 -2.1875,3.5 0,1.5683 4.2273,1.52432 5.9375,-0.0625 1.1022,-1.02272 1.2483,-0.93623 0.7188,0.5625 -0.356,1.00748 -0.6563,2.27042 -0.6563,2.8125 0,0.54208 -0.8526,0.73073 -1.875,0.40625 -2.3153,-0.73486 -4.9547,1.93521 -2.75,2.78125 1.1498,0.44123 1.2657,1.37329 0.5,4.78125 -0.7745,3.44711 -0.6891,4.41079 0.5313,5.09375 0.8863,0.496 1.2472,1.52991 0.875,2.5 -0.4992,1.30083 -0.2379,1.48502 1.2812,0.90625 1.5431,-0.5879 1.6903,-0.47892 0.6875,0.53125 -1.876,1.88994 -1.505,3.1522 0.75,2.5625 2.891,-0.756 3.3702,0.85857 0.9375,3.125 -1.4297,1.33198 -1.7134,2.17672 -0.9375,2.65625 0.6261,0.38693 2.0261,-0.0992 3.125,-1.09375 1.7147,-1.5518 2.1135,-1.59694 2.9063,-0.34375 1.2509,1.97768 1.2003,3.02019 -0.1563,2.71875 -0.6187,-0.1375 -1.3416,0.31249 -1.5937,1 -0.2606,0.71073 0.3326,1.2454 1.375,1.25 2.704,0.0119 8.265,10.98096 7.125,14.0625 -0.4674,1.26348 -0.6214,2.90158 -0.3438,3.625 0.0507,0.13217 0.1441,0.2332 0.2813,0.34375 l 16.5937,0 c 0.0456,-0.80926 -0.302,-2.64856 -0.9062,-4.65625 -1.3132,-4.36313 -1.2532,-4.76593 1.75,-10.71875 1.7128,-3.39502 4.2826,-7.18963 5.7187,-8.4375 2.2138,-1.92347 2.3967,-2.40269 1.125,-3.25 -1.308,-0.87154 -1.276,-1.13185 0.25,-2.03125 0.9625,-0.56726 1.75,-2.15234 1.75,-3.5 0,-1.947 0.5136,-2.43751 2.5,-2.4375 2.9935,0 3.3309,-1.9703 0.4688,-2.71875 -1.9156,-0.50096 -1.929,-0.62023 -0.25,-1.90625 1.5483,-1.1859 1.5909,-1.46743 0.2812,-2.34375 -1.2245,-0.81939 -1.0868,-1.01874 0.75,-1.03125 1.4944,-0.0102 2.25,-0.61703 2.25,-1.8125 0,-0.99 0.5671,-2.34835 1.25,-3.03125 0.9888,-0.98886 0.9686,-1.40587 -0.0937,-2.0625 -1.0059,-0.62163 -0.6034,-1.35988 1.6562,-2.96875 1.6482,-1.17363 3.4772,-2.12501 4.0625,-2.125 0.5853,0 0.8165,-0.67501 0.5,-1.5 -0.698,-1.81891 -3.043,-1.98042 -3.625,-0.25 -0.3173,0.94366 -1.2672,0.79736 -3.8437,-0.53125 -1.8771,-0.96795 -2.4725,-1.51163 -1.3125,-1.21875 3.1335,0.79125 5.0207,-1.89295 3.5625,-5.09375 -1.4628,-3.21035 -1.4572,-3.40626 0.2812,-3.40625 2.8802,0 2.8637,-2.33981 -0.0312,-4.65625 -1.821,-1.45715 -2.3482,-2.34066 -1.4063,-2.34375 0.8283,-0.003 2.1315,-1.43741 2.9063,-3.1875 1.2845,-2.90191 1.2459,-3.31103 -0.5,-4.65625 -1.8474,-1.42339 -1.797,-1.58485 1.5312,-4.90625 3.1655,-3.15912 3.2944,-3.53448 1.625,-4.46875 -1.4439,-0.80805 -1.5333,-1.18582 -0.4687,-1.84375 0.7375,-0.45584 1.0357,-1.15185 0.6562,-1.53125 -0.6359,-0.63592 -1.624,-0.10348 -7.2812,4.03125 -1.1469,0.83821 -2.9757,1.23953 -4.25,0.90625 -2.067,-0.54052 -1.8958,-0.80882 2.0312,-3.375 7.6376,-4.99087 12.4163,-10.13171 8,-8.59375 -1.6383,0.57056 -1.656,0.5242 -0.0625,-0.71875 1.0892,-0.84954 1.5202,-2.10838 1.1563,-3.5 -0.4098,-1.56716 -0.1275,-2.15626 1.0312,-2.15625 1.643,0 7.625,-5.61602 7.625,-7.15625 0,-0.46843 -0.5625,-0.85752 -1.25,-0.875 -0.7307,-0.0186 -0.4881,-0.61791 0.5938,-1.4375 1.7932,-1.35846 1.8079,-1.48545 -0.1563,-3.59375 -1.1149,-1.19673 -1.7934,-2.79782 -1.5,-3.5625 0.5703,-1.48621 -0.5324,-1.76415 -3.0937,-0.78125 -2.1014,0.80639 -2.0475,2.40624 0.0937,2.40625 1.3539,0 1.4576,0.22989 0.4688,1.21875 -0.989,0.98886 -1.4108,0.97991 -2.0938,-0.125 -0.5037,-0.81503 -1.5824,-1.10683 -2.5937,-0.71875 -1.4032,0.53847 -1.5885,0.2212 -1.0938,-1.625 0.3337,-1.24567 0.6175,-3.06755 0.625,-4.0625 0.007,-0.99984 0.4544,-1.51281 1.0313,-1.15625 1.4482,0.89499 4.1587,-1.55223 3.5312,-3.1875 -0.2827,-0.73689 7e-4,-1.34376 0.625,-1.34375 0.6244,0 0.8902,-0.26606 0.5625,-0.59375 -0.3277,-0.32769 0.2407,-2.11622 1.2813,-3.96875 1.9397,-3.45334 1.1864,-5.60968 -1.0313,-2.9375 -0.6797,0.81894 -1.7,1.49999 -2.25,1.5 -0.6101,0 -0.5546,-0.52493 0.125,-1.34375 0.6126,-0.7381 0.7827,-1.70617 0.375,-2.15625 -0.4078,-0.45008 -0.1914,-0.49178 0.5,-0.0937 0.7625,0.43896 1.5085,0.006 1.9063,-1.09375 0.3606,-0.99736 1.4894,-3.00885 2.5,-4.46875 2.3541,-3.40105 2.3238,-4.21106 -0.1563,-3.5625 -1.6331,0.42707 -2,0.0353 -2,-2.15625 0,-1.47613 0.7363,-3.73128 1.625,-5 1.2423,-1.77369 1.3472,-2.57242 0.4375,-3.46875 -0.9022,-0.88906 -1.473,-0.785 -2.375,0.40625 -0.6505,0.85909 -1.8911,1.80361 -2.75,2.125 -1.2362,0.4626 -1.4846,0.018 -1.1562,-2.21875 0.2797,-1.90549 0.8761,-2.67185 1.8125,-2.3125 1.6545,0.63492 3.1702,-2.5955 1.6562,-3.53125 -0.9814,-0.6066 -1.25,-1.17052 -1.25,-2.78125 0,-0.36024 -0.7875,7.7e-4 -1.75,0.8125 -1.1942,1.0072 -2.7026,1.2607 -4.75,0.78125 l -3,-0.71875 2.8125,-0.125 c 1.6172,-0.0681 2.5475,-0.54252 2.1875,-1.125 -0.3475,-0.56223 0.7335,-1.28422 2.4375,-1.625 1.6864,-0.3373 3.0625,-1.1776 3.0625,-1.875 0,-1.60755 -3.3402,-2.94819 -3.8125,-1.53125 -0.1939,0.58148 -0.8348,1.06249 -1.4062,1.0625 -0.6514,0 -0.5856,-0.54371 0.1562,-1.4375 1.3226,-1.59366 1.0901,-4.69018 -0.4375,-5.8125 -0.5745,-0.42207 -0.3132,-0.7412 0.625,-0.75 0.8983,-0.008 1.9015,-1.00526 2.2188,-2.21875 0.7572,-2.89522 0.3134,-3.19621 -2.5,-1.71875 -2.2303,1.17112 -2.2629,1.12237 -0.7188,-0.6875 0.8895,-1.04253 1.6037,-2.55001 1.5938,-3.375 -0.01,-0.825 0.317,-2.962509 0.7187,-4.749999 0.7559,-3.36363 -0.9319,-4.74639 -2.0937,-1.71875 -0.3627,0.9451 -1.2782,1.29554 -2.4063,0.9375 -2.0033,-0.63582 -5.5786,3.661099 -4.5,5.406249 0.3313,0.53618 0.1836,1.22466 -0.3125,1.53125 -1.8917,1.16915 -1.8336,-4.346579 0.0625,-6.062499 1.0405,-0.94163 1.6178,-2.39179 1.3125,-3.1875 -0.3054,-0.79572 0.3578,-2.96083 1.4688,-4.84375 1.111,-1.88292 2.0312,-4.38582 2.0312,-5.531251 0,-1.14543 0.7875,-2.67561 1.75,-3.40625 1.5963,-1.21177 1.5047,-1.31475 -0.9062,-1.34375 -1.4537,-0.0175 -2.8727,-0.63586 -3.1563,-1.375 -0.3657,-0.95298 0.168,-1.22061 1.8125,-0.90625 2.134,0.40794 2.308,0.13609 2.0625,-3.40625 -0.1468,-2.11719 -0.6285,-4.70074 -1.0625,-5.71875 -0.5165,-1.21122 -0.3195,-2.14043 0.5938,-2.71875 0.7677,-0.48607 0.9977,-0.89783 0.5,-0.90625 -0.4978,-0.008 -0.0893,-0.90001 0.9062,-2 1.5172,-1.67648 1.5662,-2.00001 0.2813,-2 -0.8432,0 -2.1761,0.96237 -2.9688,2.15625 -3.1178,4.69571 -4.5768,-0.81836 -2.2187,-8.40625 0.6743,-2.16944 -0.3819,-2.24586 -2.6563,-0.1875 -1.09,0.98639 -1.9772,1.17483 -2.375,0.53125 -0.3471,-0.56167 0.5486,-1.79901 2,-2.75 2.128,-1.39431 2.3755,-1.92257 1.2813,-2.78125 -1.8023,-1.41418 -1.7127,-4.76343 0.1562,-6.28125 1.0641,-0.86416 1.1468,-1.22745 0.25,-1.25 -0.6952,-0.0175 -2.6239,1.43124 -4.25,3.21875 -2.7084,2.97717 -2.9419,3.04728 -2.9687,1.0625 -0.0161,-1.19166 0.3775,-2.31667 0.875,-2.5 0.4975,-0.18333 1.0601,-1.43751 1.25,-2.8125 0.3118,-2.25698 0.0137,-2.52096 -3.125,-2.5 -2.0216,0.0135 -4.2192,-0.71903 -5.25,-1.75 -1.3622,-1.36204 -1.4632,-1.75001 -0.375,-1.75 0.7791,0 1.584,0.47099 1.7812,1.0625 0.2106,0.63204 1.4178,0.81891 2.9375,0.4375 2.3126,-0.58044 2.5477,-1.08222 2.25,-4.59375 -0.2494,-2.9409 0.0538,-3.90626 1.1563,-3.90625 2.082,0 1.8135,-1.29742 -0.5625,-2.78125 -1.4745,-0.92086 -2.559,-0.98994 -4,-0.21875 -2.5888,1.38549 -2.5606,-0.16261 0.0312,-1.78125 3.6995,-2.31035 2.3171,-3.44614 -3.5,-2.875 -5.0667,0.49748 -6.5194,-0.0119 -4.8437,-1.6875 0.3618,-0.36189 1.3464,-0.089 2.1875,0.59375 1.2823,1.04086 1.425,0.9674 0.875,-0.5 -0.4765,-1.27156 -0.154,-1.75 1.1875,-1.75 1.0154,0 2.409,-0.675 3.0937,-1.5 1.316,-1.58567 0.1705,-2.02724 -4.5,-1.6875 -1.8087,0.13157 -1.8305,0.0234 -0.3437,-1.125 1.5577,-1.20309 1.6268,-2.6180598 0.5,-9.1874998 -0.1887,-1.1 -1.1671,-2.18204 -2.1563,-2.37501 -0.352,-0.0687 -0.6275,-0.0871 -0.8437,-0.0625 z m -1.6563,6.34376 c 1.1,0 2,0.50365 2,1.09375 0,0.5901 -0.9,1.13589 -2,1.21875 -1.1,0.0829 -2,-0.38954 -2,-1.0625 0,-0.67296 0.9,-1.25 2,-1.25 z m -0.4687,5.5937498 c 0.8077,0 1.4687,0.41996 1.4687,0.9375 0,1.67643 -1.7847,2.10076 -2.375,0.5625 -0.3483,-0.90766 0.0141,-1.5 0.9063,-1.5 z m -10.5313,18 c 0.55,0 1,0.19495 1,0.4375 0,0.24254 -0.45,0.72257 -1,1.0625 -0.55,0.33992 -1,0.14497 -1,-0.4375 0,-0.58246 0.45,-1.06251 1,-1.0625 z m -3.7187,8.65625 c 1.139,-0.0369 2.2525,0.44968 2.7812,1.4375 1.1293,2.11016 0.3617,2.36981 -2.3125,0.8125 -0.9669,-0.56304 -2.2756,-0.70226 -2.9062,-0.3125 -0.6598,0.40777 -0.8676,0.28239 -0.5,-0.3125 0.6337,-1.02543 1.7984,-1.58815 2.9375,-1.625 z m -5.3438,5.8125 c -1.6492,0.0495 -3.9375,1.30651 -3.9375,2.5625 0,1.20744 0.2406,1.21236 3.5938,-0.0625 1.9142,-0.72779 2.4282,-1.35311 1.6875,-2.09375 -0.2968,-0.29676 -0.7941,-0.42274 -1.3438,-0.40625 z m 37.5625,2.1875 -2.4375,2.65625 c -2.5475,2.8054 -3.0829,3.16896 -3.0312,1.9375 0.0172,-0.4125 1.2546,-1.63166 2.75,-2.6875 l 2.7187,-1.90625 z m -7.4687,5.84375 c 1.2877,-0.1485 2.2129,0.91204 1.2812,1.84375 -0.904,0.90401 -2.1017,0.79883 -2.75,-0.25 -0.3043,-0.49236 0.1021,-1.16014 0.9063,-1.46875 0.1953,-0.075 0.3785,-0.10379 0.5625,-0.125 z m 6.125,12.46875 c 0.1821,-0.0108 0.5828,0.11689 1.1875,0.34375 1.0075,0.37798 2.2438,0.68749 2.7812,0.6875 0.5375,0 0.715,0.44999 0.375,1 -0.8977,1.45258 -2.0646,1.23077 -3.625,-0.6875 -0.7551,-0.92828 -1.0223,-1.32583 -0.7187,-1.34375 z m -26.5,2.3125 c 0.2603,0.0262 0.0354,0.39166 -0.625,1.1875 -1.4401,1.73524 -2.0313,1.91096 -2.0313,0.625 0,-0.49116 0.7222,-1.18482 1.625,-1.53125 0.5147,-0.1975 0.8751,-0.29697 1.0313,-0.28125 z m -5.2188,1.75 c 0.276,0 0.6666,0.32806 1.0625,0.96875 0.3399,0.55 0.145,0.99999 -0.4375,1 -0.5824,0 -1.0625,-0.45001 -1.0625,-1 0,-0.64069 0.1615,-0.96875 0.4375,-0.96875 z m 33.5,2.96875 c 0.5825,0 1.0625,0.44999 1.0625,1 0,1.28139 -0.708,1.28138 -1.5,0 -0.3399,-0.55 -0.1449,-1.00001 0.4375,-1 z m -33.5625,0.34375 c 0.3586,-0.0603 0.625,0.1569 0.625,0.59375 0,0.58246 -0.45,1.06249 -1,1.0625 -1.2814,0 -1.2814,-0.70807 0,-1.5 0.1375,-0.085 0.2555,-0.13615 0.375,-0.15625 z m -14.1875,0.78125 c -0.4813,0.0338 -1.2402,0.49018 -1.9375,1.1875 -1.5588999,1.55895 -1.5576999,1.68749 -0.0312,1.6875 1.8229,0 3.3279,-1.79706 2.3437,-2.78125 -0.0858,-0.0858 -0.2146,-0.10501 -0.375,-0.0937 z m 16.75,2.875 c 0.5825,0 1.0625,0.44999 1.0625,1 0,1.28139 -0.708,1.28138 -1.5,0 -0.3399,-0.55 -0.145,-1.00001 0.4375,-1 z m 29.4375,6.375 c 0.3644,0.0123 0.625,0.4194 0.625,1.0625 0,1.756531 -0.6114,2.012041 -1.4687,0.625 -0.3164,-0.512 -0.1214,-1.21703 0.4375,-1.5625 0.1397,-0.0864 0.2847,-0.12909 0.4062,-0.125 z m -43,0.96875 c 0.3586,-0.0603 0.625,0.1569 0.625,0.59375 0,0.582461 -0.45,1.062491 -1,1.062501 -1.2814,0 -1.2814,-0.708071 0,-1.500001 0.1375,-0.085 0.2555,-0.13615 0.375,-0.15625 z m -4.5312,2.156251 c 0.0996,-0.0124 0.1979,0.0229 0.3125,0.0937 0.4583,0.28326 0.8437,0.95122 0.8437,1.46875 0,0.51754 -0.3854,0.93749 -0.8437,0.9375 -0.4584,0 -0.8125,-0.66793 -0.8125,-1.46875 0,-0.60061 0.2011,-0.99412 0.5,-1.03125 z m 48.5312,8.84375 c 0.3586,-0.0603 0.625,0.1569 0.625,0.59375 0,0.58246 -0.45,1.06249 -1,1.0625 -1.2813,0 -1.2813,-0.70807 0,-1.5 0.1375,-0.085 0.2555,-0.13615 0.375,-0.15625 z m 5.5313,4.3125 c 0.531,-0.0865 1.2098,0.21791 1.875,0.9375 1.071,1.158859 0.9441,1.406239 -0.75,1.406249 -1.1218,0 -2.0313,-0.41995 -2.0313,-0.9375 0,-0.827849 0.3752,-1.319799 0.9063,-1.406249 z m -55.4688,3.343749 c 0.8575,0 1.5625,0.19495 1.5625,0.4375 0,1.05548 -1.9291999,1.48609 -2.4999999,0.5625 -0.3454,-0.55897 0.08,-1.00001 0.9374999,-1 z m 3.75,2.0625 c 0.1425,-0.006 0.2598,0.041 0.3438,0.125 0.265,0.26508 -0.4279,1.31396 -1.5313,2.3125 -1.1034,0.99854 -2,1.34915 -2,0.78125 0,-1.10097 2.1903,-3.17429 3.1875,-3.21875 z m 48.8125,1.9375 c 0.55,0 1,0.19495 1,0.4375 0,0.24254 -0.45,0.72257 -1,1.0625 -0.55,0.33992 -1,0.14497 -1,-0.4375 0,-0.58246 0.45,-1.06251 1,-1.0625 z m -45.625,0.1875 c 0.0682,-0.0251 0.1357,-0.0206 0.2188,0.0625 0.3323,0.3323 0.3826,1.21562 0.0937,1.9375 -0.3192,0.79773 -0.577,0.53994 -0.625,-0.625 -0.0325,-0.79062 0.1079,-1.29966 0.3125,-1.375 z m 38.7188,3.9375 c 0.3473,-0.0143 0.7327,0.0431 1.0937,0.1875 0.7978,0.31922 0.5711,0.54578 -0.5937,0.59375 -1.0542,0.0434 -1.6449,-0.19896 -1.3125,-0.53125 0.1661,-0.16614 0.4651,-0.23569 0.8125,-0.25 z m -1.0938,11.875 c 0.55,0 1,0.19495 1,0.4375 0,0.24254 -0.45,0.72257 -1,1.0625 -0.55,0.33992 -1,0.14497 -1,-0.4375 0,-0.58246 0.45,-1.06251 1,-1.0625 z m -43,1.1875 c -0.4173,0.0109 -0.8422,0.25597 -1.4375,0.75 -0.8421999,0.69901 -1.3013999,1.66858 -0.9999999,2.15625 0.6935999,1.12227 1.5589999,1.12516 3.4374999,-0.0625 1.1597,-0.73316 1.2136,-1.22391 0.2813,-2.15625 -0.4662,-0.46617 -0.864,-0.69845 -1.2813,-0.6875 z m 6.1875,0.875 c 0.9301,-0.0387 1.9726,0.38749 2.3125,0.9375 0.7107,1.14988 0.6759,1.14987 -2,0 -1.6304,-0.70061 -1.691,-0.88021 -0.3125,-0.9375 z m 46.0938,7.03125 c 0.0843,-0.0843 0.3499,0.13487 0.8437,0.625 0.6834,0.67834 0.9954,1.5046 0.6875,1.8125 -0.3079,0.30789 -0.8744,-0.26378 -1.25,-1.25 -0.2713,-0.7126 -0.3656,-1.10317 -0.2812,-1.1875 z m 3.25,5.28125 c 0.1015,-0.0241 0.2042,0.0168 0.2812,0.0937 0.3079,0.30789 -0.004,1.10291 -0.6875,1.78125 -0.9876,0.98026 -1.1052,0.8627 -0.5625,-0.5625 0.2817,-0.73966 0.664,-1.24007 0.9688,-1.3125 z m 11.0937,0.625 c -0.8924,0 -1.625,0.67499 -1.625,1.5 0,1.88873 0.4325,1.88872 2,0 1.0196,-1.22851 0.9538,-1.50001 -0.375,-1.5 z m -62.7187,6.03125 c 0.3414,-0.11618 0.7045,0.50463 0.8125,1.9375 0.082,1.08917 -0.21,2.19295 -0.6563,2.46875 -0.4462,0.2758 -0.8125,-0.60378 -0.8125,-1.96875 0,-1.4696 0.3149,-2.32132 0.6563,-2.4375 z m 58.9062,2.03125 c 0.1401,0.0272 0.1497,0.39636 0.1563,1.125 0.008,0.93004 -0.4188,1.97257 -0.9688,2.3125 -1.2656,0.78218 -1.2656,-0.54164 0,-2.5 0.4177,-0.64634 0.6724,-0.96467 0.8125,-0.9375 z M 3.8470041,155.9791 c 0.5251,0 0.9375,0.32179 0.9375,0.96875 0,0.55 -0.705,0.99999 -1.5625,1 -0.8574,0 -1.2774,-0.45001 -0.9375,-1 0.3999,-0.64695 1.0375,-0.96875 1.5625,-0.96875 z m 74.8749999,13.0625 c -0.7724,-0.0152 -1.1137,1.01338 -0.5312,2.53125 0.5001,1.30358 0.9228,1.42088 1.8125,0.53125 0.8896,-0.88963 0.9018,-1.44184 0,-2.34375 -0.4774,-0.47735 -0.9302,-0.71185 -1.2813,-0.71875 z m -76.0936999,5.15625 c -0.6155,0.0879 -1.316,0.63539 -1.625,1.5625 -0.21769998,0.65312 0.3167,1.18749 1.1875,1.1875 0.8708,0 1.5937,-0.72291 1.5937,-1.59375 0,-0.88297 -0.5408,-1.24417 -1.1562,-1.15625 z m 9.6249999,4.0625 c 0.019,-0.0925 0.9321,0.53808 2.0312,1.375 1.9595,1.49204 1.9562,1.50149 -0.25,0.84375 -1.347,-0.4016 -2.25,-0.23277 -2.25,0.40625 0,0.58707 -0.5077,1.06249 -1.125,1.0625 -0.7471999,0 -0.6729999,-0.58498 0.2188,-1.75 0.7367,-0.9625 1.356,-1.84497 1.375,-1.9375 z m -5.4687999,0.6875 c 0.55,0 1,0.19495 1,0.4375 0,0.24254 -0.45,0.72257 -1,1.0625 -0.55,0.33992 -1,0.14495 -1,-0.4375 0,-0.58246 0.45,-1.06251 1,-1.0625 z m 57.9999999,2 c 0.55,0 1,0.19495 1,0.4375 0,0.24254 -0.45,0.72257 -1,1.0625 -0.55,0.33992 -1,0.14495 -1,-0.4375 0,-0.58246 0.45,-1.06251 1,-1.0625 z m -54.4687,3.46875 c 0.1628,-0.009 0.3002,0.0189 0.375,0.0937 0.2992,0.29922 -0.1284,0.95707 -0.9374999,1.46875 -2.3713,1.49964 -3.6397,1.03259 -1.5313,-0.5625 0.7949,-0.60137 1.6051,-0.973 2.0937999,-1 z m 53.4687,3.53125 c 1.1448,0 2,0.67014 2,1.5625 0,0.85746 -0.4759,1.23754 -1.0625,0.875 -0.5866,-0.36254 -1.7604,0.16994 -2.5937,1.1875 -1.4545,1.77596 -1.4958,1.78958 -0.9375,0.0312 0.3199,-1.00748 0.5937,-2.24499 0.5937,-2.75 0,-0.50501 0.9,-0.90626 2,-0.90625 z m -51.0625,0.40625 c 1.4711,0 1.6822,0.33983 0.875,1.3125 -1.3703,1.65117 -2.8125,1.65116 -2.8125,0 0,-0.70715 0.868,-1.3125 1.9375,-1.3125 z m 12.4375,0.78125 c 0.0682,-0.0251 0.1357,-0.0206 0.2188,0.0625 0.3323,0.3323 0.3826,1.21561 0.0937,1.9375 -0.3192,0.79773 -0.577,0.53996 -0.625,-0.625 -0.0325,-0.79062 0.1079,-1.29965 0.3125,-1.375 z m -10.375,3.0625 c 1.1,-0.0829 2,0.36125 2,0.96875 0,0.60748 -0.2943,0.79941 -0.6562,0.4375 -0.3619,-0.36189 -1.2619,-0.14381 -2,0.46875 -1.0148,0.84216 -1.3438,0.75338 -1.3438,-0.3125 0,-0.7753 0.9,-1.47963 2,-1.5625 z m -2.75,5.3125 c 0.2108,0.0165 0.4748,0.053 0.75,0.125 1.1008,0.28786 2,0.69541 2,0.90625 0,0.78907 -2.8992,0.3709 -3.4375,-0.5 -0.2312,-0.37403 0.0552,-0.58079 0.6875,-0.53125 z m 3.25,3.4375 c 0.825,0 1.5,0.15885 1.5,0.375 0,0.21616 -0.675,0.65215 -1.5,0.96875 -0.825,0.31658 -1.5,0.15775 -1.5,-0.375 0,-0.53274 0.675,-0.96876 1.5,-0.96875 z m 48.625,0 c -0.55,0 -1.285,0.44999 -1.625,1 -0.3399,0.55 -0.175,0.99999 0.375,1 0.55,0 1.2851,-0.45001 1.625,-1 0.34,-0.55 0.175,-1.00001 -0.375,-1 z m -0.0937,5 c 1.3624,0 1.1933,0.90041 -0.4688,2.5625 -2.0445,2.04442 -2.8114,1.77118 -1.5625,-0.5625 0.5887,-1.1 1.5006,-2.00001 2.0313,-2 z m -6.5938,8.1875 c 0.2699,-0.0236 0.5797,0.002 0.9375,0.0312 1.3656,0.11301 2.2678,0.53543 2,0.96875 -0.6862,1.11027 -3.1421,0.99821 -3.875,-0.1875 -0.2654,-0.42947 0.1277,-0.74178 0.9375,-0.8125 z m -42.2187,14.09375 c 0.3643,-0.004 0.8801,-0.003 1.5312,0.0312 1.7864,0.0927 3.2489,0.52499 3.25,0.9375 0.002,0.95374 -1.93,0.8401 -4.5,-0.25 -1.2028,-0.51018 -1.3744,-0.70602 -0.2812,-0.71875 z m -5.6562999,2.75 c -0.7747,0 -1.6613,0.31957 -2.0625,0.96875 -0.3399,0.55 0.305,0.99999 1.4375,1 1.1325,0 2.0624999,-0.45001 2.0624999,-1 0,-0.64918 -0.6628,-0.96875 -1.4374999,-0.96875 z m 5.4374999,0.96875 c 0.55,0 1,0.19495 1,0.4375 0,0.24254 -0.45,0.72257 -1,1.0625 -0.55,0.33992 -1,0.14495 -1,-0.4375 0,-0.58246 0.45,-1.06251 1,-1.0625 z m 45.375,14.375 c 0.3586,0.007 0.625,0.38125 0.625,1 0,0.825 -0.45,1.78507 -1,2.125 -0.55,0.33992 -1,-0.0812 -1,-0.90625 0,-0.825 0.45,-1.75384 1,-2.09375 0.1375,-0.085 0.2555,-0.1273 0.375,-0.125 z m -3.375,3.625 c 0.55,0 1,0.19495 1,0.4375 0,0.24254 -0.45,0.72257 -1,1.0625 -0.55,0.33992 -1,0.14495 -1,-0.4375 0,-0.58246 0.45,-1.06251 1,-1.0625 z m -36,1.125 c 0.4531,0 0.9063,0.0801 1.25,0.21875 0.6875,0.27741 0.125,0.5 -1.25,0.5 -1.375,0 -1.9375,-0.22258 -1.25,-0.5 0.3438,-0.1387 0.7969,-0.21875 1.25,-0.21875 z m -8.1562,0.9375 c -0.8403,0.18392 -1.8438,1.37412 -1.8438,2.5 0,0.79254 0.4151,1.43749 0.9063,1.4375 1.0137,0 2.385,-3.05254 1.6875,-3.75 -0.1987,-0.19869 -0.47,-0.24881 -0.75,-0.1875 z m 7.6875,5.3125 c 0.1016,-0.0241 0.2042,0.0168 0.2812,0.0937 0.3079,0.30789 -0.004,1.10291 -0.6875,1.78125 -0.9876,0.98026 -1.1052,0.86271 -0.5625,-0.5625 0.2817,-0.73966 0.664,-1.24007 0.9688,-1.3125 z m 30.1562,12.9375 c 0.0485,0.0163 0.0733,0.0696 0.0938,0.15625 0.1633,0.69307 -0.6636,2.87478 -1.8438,4.875 -2.9744,5.04128 -3.2159,4.55312 -0.625,-1.25 1.0521,-2.35665 2.0352,-3.89549 2.375,-3.78125 z m -17.6875,0.6875 c 0.55,0 1,0.44999 1,1 0,0.55 -0.45,0.99999 -1,1 -0.55,0 -1,-0.45001 -1,-1 0,-0.55 0.45,-1.00001 1,-1 z m -4,1 c 0.5866,0 1.3307,0.68253 1.6563,1.53125 0.9303,2.42426 -0.3837,2.85065 -1.625,0.53125 -0.774,-1.44619 -0.7708,-2.06251 -0.0313,-2.0625 z m 2.375,5.40625 c 0.2511,-0.0207 0.6281,0.18133 1.125,0.59375 0.825,0.68469 1.5,1.86735 1.5,2.625 0,1.88219 -1.6595,1.72715 -2.4062,-0.21875 -0.7279,-1.8968 -0.7712,-2.95442 -0.2188,-3 z" />
</svg>
