<?xml version="1.0" encoding="UTF-8" standalone="no"?>
<!-- Created with Inkscape (http://www.inkscape.org/) -->

<svg
   xmlns:dc="http://purl.org/dc/elements/1.1/"
   xmlns:cc="http://creativecommons.org/ns#"
   xmlns:rdf="http://www.w3.org/1999/02/22-rdf-syntax-ns#"
   xmlns:svg="http://www.w3.org/2000/svg"
   xmlns="http://www.w3.org/2000/svg"
   xmlns:sodipodi="http://sodipodi.sourceforge.net/DTD/sodipodi-0.dtd"
   xmlns:inkscape="http://www.inkscape.org/namespaces/inkscape"
   version="1.0"
   width="224.55737"
   height="272.90811"
   id="svg2"
   inkscape:version="0.91 r13725"
   sodipodi:docname="eucalyptus_tree_2.svg">
  <metadata
     id="metadata4148">
    <rdf:RDF>
      <cc:Work
         rdf:about="">
        <dc:format>image/svg+xml</dc:format>
        <dc:type
           rdf:resource="http://purl.org/dc/dcmitype/StillImage" />
        <dc:title></dc:title>
      </cc:Work>
    </rdf:RDF>
  </metadata>
  <sodipodi:namedview
     pagecolor="#ffffff"
     bordercolor="#666666"
     borderopacity="1"
     objecttolerance="10"
     gridtolerance="10"
     guidetolerance="10"
     inkscape:pageopacity="0"
     inkscape:pageshadow="2"
     inkscape:window-width="1600"
     inkscape:window-height="881"
     id="namedview4146"
     showgrid="false"
     fit-margin-top="0"
     fit-margin-left="0"
     fit-margin-right="0"
     fit-margin-bottom="0"
     inkscape:zoom="0.95794375"
     inkscape:cx="66.567346"
     inkscape:cy="89.759814"
     inkscape:window-x="0"
     inkscape:window-y="19"
     inkscape:window-maximized="0"
     inkscape:current-layer="svg2" />
  <defs
     id="defs4" />
  <path
     inkscape:connector-curvature="0"
     id="path2404"
     style="fill:#000000"
     d="m 106.37485,0.00187176 c -0.68026,0.006 -1.4329,0.0279 -2.28125,0.0625 -3.80902,0.15551 -6.735216,0.63134 -6.468746,1.06250004 0.26647,0.43116 -0.23508,0.78125 -1.125,0.78125 -0.889924,0 -1.339924,0.45 -1.000004,1 0.33992,0.55 0.11492,1 -0.5,1 -0.61492,0 -0.83992,0.45 -0.5,1 0.35052,0.56715 -0.48614,1 -1.9375,1 -1.40746,0 -2.5625,0.24821 -2.5625,0.5625 0,1.07353 2.63028,3.22615 4.5625,3.7187502 1.674704,0.42694 1.6406,0.49305 -0.3125,0.59375 -2.59597,0.13383 -2.94412,1.61213 -0.6875,2.875 0.94752,0.53025 -0.87143,0.71127 -4.65625,0.4375 -4.44053,-0.3212 -5.96996,-0.12348 -5.46875,0.6875 0.6838,1.10641 -1.25243,1.6097 -4.4375,1.15625 -0.825,-0.11745 -1.1744,0.1004 -0.78125,0.5 1.26761,1.28842 -1.13504,4.448941 -2.875,3.78125 -1.10883,-0.4255 -1.47684,-0.18053 -1.15625,0.781251 0.25958,0.77875 1.79043,1.40451 3.40625,1.40625 1.60475,0.002 3.27245,0.55093 3.71875,1.25 0.4463,0.69907 1.2338,1.03778 1.75,0.71875 0.5162,-0.31903 0.9375,-0.0788 0.9375,0.5625 0,0.72404 -0.66333,0.89426 -1.75,0.4375 -3.84428,-1.61588 -5.96006,-1.63245 -6.5625,-0.0625 -0.46325,1.20721 0.0113,1.59375 2.03125,1.59375 2.55336,0 2.58223,0.0593 0.71875,1.46875 -1.06762,0.80751 -2.725,1.48251 -3.6875,1.5 -2.05707,0.0374 -2.39426,2.03125 -0.34375,2.03125 0.76616,0 1.6373,0.62396 1.9375,1.40625 0.32443,0.84546 1.32573,1.21333 2.5,0.90625 1.32885,-0.3475 2.37109,0.18505 3.125,1.59375 1.41224,2.63878 2.63716,2.67623 3.3125,0.0937 0.34962,-1.33696 1.06261,-1.81393 2.125,-1.40625 1.78602,0.68536 2.16474,2.40625 0.53125,2.40625 -0.58246,0 -0.77742,0.45 -0.4375,1 0.33992,0.55 -0.10326,1 -1,1 -2.10908,0 -4.8056,2.696514 -4,4.000004 0.34252,0.55421 0.19373,1 -0.34375,1 -0.53747,0 -1.80502,0.30577 -2.8125,0.6875 -1.745,0.66116 -1.76083,0.61934 -0.0937,-1.0625 1.8081,-1.82409 2.37128,-3.116814 0.96875,-2.250004 -0.43876,0.271174 -1.42413,0.0968 -2.1875,-0.375 -1.12324,-0.6942 -1.14372,-1.14751 -0.125,-2.375 0.69235,-0.83422 1.89648,-1.2723 2.6875,-0.96875 1.00583,0.38597 1.24493,0.0644 0.8125,-1.0625 -0.71773,-1.87038 -1.99119,-2.08171 -2.96875,-0.5 -0.44049,0.71272 -1.53632,0.17963 -3.09375,-1.5 -1.32887,-1.43313 -2.91826,-2.59375 -3.53125,-2.59375 -0.61298,0 -0.30799,0.9 0.6875,2 2.74283,3.03079 1.64933,2.73406 -7.25,-1.875 -2.3375,-1.21062 -4.25,-1.72268 -4.25,-1.15625 0,1.41701 -2.73983,1.31175 -3.21875,-0.125 -0.21314,-0.63945 -1.27356,-1.34268 -2.34375,-1.53125 -4.93632,-0.8698 -8.4375,-0.87607 -8.4375,-0.0312 0,0.50866 -0.62133,0.6762 -1.40625,0.375 -2.13665,-0.81991 -7.69748,1.57064 -7.125,3.0625 0.49548,1.29121 -0.54506,1.64124 -3.75,1.3125 -0.97471,-0.1 -1.70234,0.2071 -1.625,0.65625 0.0773,0.44914 0.0401,1.15 -0.0937,1.5625 -0.42348,1.30477 -0.7459,2.71571 -0.875,3.875 -0.0853,0.76604 -0.61177,0.70527 -1.6875,-0.1875 -0.94792,-0.7867 -1.84479,-0.94553 -2.25,-0.375 -0.37058,0.52178 -2.0375,1.43355 -3.6875,2.000004 -2.13291,0.73224 -2.95891,1.65368 -2.90625,3.1875 0.0407,1.18656 -0.29677,1.9051 -0.75,1.625 -0.45323,-0.28011 -0.84375,0.1874 -0.84375,1.03125 0,1.22335 -0.50662,1.35163 -2.5,0.59375 -2.14369,-0.81503 -2.5,-0.66248 -2.5,1.03125 0,1.08911 -0.67293,1.96875 -1.5,1.96875 -0.825,0 -1.5,0.45 -1.5,1 0,0.55 0.5625,0.99158 1.25,1 0.98127,0.012 0.96842,0.20931 -0.0312,0.84375 -1.98213,1.25797 -2.40796,5.15625 -0.5625,5.15625 1.18205,0 1.41785,0.61783 0.90625,2.65625 -0.55774,2.22219 -0.44849,2.49998 0.71875,1.53125 0.77269,-0.64127 1.76868,-0.84523 2.21875,-0.4375 0.45008,0.40773 0.5284,0.212 0.15625,-0.4375 -0.37215,-0.64949 -0.21522,-1.46705 0.34375,-1.8125 0.55897,-0.34547 1,0.08 1,0.9375 0,0.85746 0.43249,1.5625 0.9375,1.5625 0.50502,0 1.69604,0.28778 2.65625,0.65625 1.19028,0.45675 1.52422,0.29764 1.03125,-0.5 -1.08012,-1.74767 0.49823,-1.39111 1.8125,0.40625 1.17971,1.61335 5.01362,0.98383 4,-0.65625 -0.30041,-0.48607 0.17769,-0.60879 1.03125,-0.28125 0.85357,0.32754 1.53125,0.14375 1.53125,-0.40625 0,-0.55 0.69352,-1.27228 1.53125,-1.59375 1.24266,-0.47685 1.33219,-0.2071 0.46875,1.40625 -1.47064,2.74793 0.18367,2.46457 2.96875,-0.5 1.27582,-1.35805 2.68875,-2.26962 3.125,-2 0.43625,0.26962 1.24542,-0.30718 1.8125,-1.28125 0.56708,-0.97407 1.04578,-1.21754 1.0625,-0.5625 0.0167,0.65504 -0.36751,1.42442 -0.84375,1.71875 -1.63487,1.01041 -0.0486,5.15583 2.03125,5.3125 1.451,0.1093 1.84583,-0.26073 1.40625,-1.40625 -0.52892,-1.37833 -0.37131,-1.4282 1.09375,-0.21875 1.25565,1.03659 1.79277,1.0814 2.09375,0.1875 0.27943,-0.8299 1.12584,-0.89877 2.75,-0.28125 1.78974,0.68045 2.47569,0.51595 2.9375,-0.6875 0.55002,-1.43332 0.77359,-1.45222 2.34375,-0.0312 1.92812,1.74493 5.81555,0.47691 4.59375,-1.5 -0.40499,-0.65529 -0.22338,-0.80276 0.46875,-0.375 0.63498,0.39244 1.15625,0.16771 1.15625,-0.5 0,-0.73591 0.82677,-0.49036 2.09375,0.65625 1.14957,1.04034 2.61207,1.93201 3.25,1.96875 3.08329,0.17759 7.40242,1.94484 9.65625,3.9375 1.375,1.21566 3.9625,3.21156 5.75,4.4375 1.7875,1.22593 3.25,2.61827 3.25,3.09375 0,1.73245 -3.99016,2.13483 -5.5625,0.5625 -0.8626,-0.8626 -1.98928,-1.61875 -2.5,-1.6875 -0.51071,-0.0687 -1.3875,-0.2375 -1.9375,-0.375 -0.55,-0.1375 -1.45714,-0.30625 -2.03125,-0.375 -0.57411,-0.0687 -0.91161,-0.9125 -0.75,-1.875 0.20389,-1.21427 -0.48409,-1.86152 -2.21875,-2.09375 -1.375,-0.18407 -2.915,-0.74656 -3.4375,-1.25 -1.21093,-1.16673 -2.84028,-1.18859 -2.125,-0.0312 0.53848,0.87128 -2.67903,1.35798 -7.4375,1.125 -7.35756,-0.36032 -12.39134,0.23499 -13.8125,1.65615 -0.73334,0.73334 -2.21932,1.34375 -3.3125,1.34375 -1.09317,0 -1.71492,0.45 -1.375,1 0.33992,0.55 -0.11008,1 -1,1 -0.88992,0 -1.33992,0.45 -1,1 0.33992,0.55 -0.11008,1 -1,1 -0.97084,0 -1.33549,0.46172 -0.90625,1.15625 0.47868,0.77452 0.0766,0.99499 -1.21875,0.65625 -2.04311,-0.53428 -4.82111,1.6328 -3.9375,3.0625 0.28592,0.46263 -0.64248,1.33599 -2.03125,1.96875 -1.38876,0.63277 -2.25248,1.5841 -1.9375,2.09375 0.31499,0.50966 0.12147,1.18579 -0.4375,1.53125 -1.62225,1.00261 -1.17823,2.81224 0.53125,2.15625 0.94324,-0.36196 1.30257,-0.20377 0.90625,0.4375 -0.35864,0.58029 0.10526,1.6438 1.0625,2.34375 1.62443,1.18782 1.64195,1.30017 0.0625,1.90625 -1.00055,0.38394 -1.45499,0.24074 -1.09375,-0.34375 0.33602,-0.5437 -0.0517,-0.96875 -0.875,-0.96875 -0.89322,0 -1.43602,0.8064 -1.34375,2.03125 0.12462,1.65436 0.74279,2.00775 3.1875,1.78125 1.66828,-0.15457 3.28199,-0.58798 3.5625,-0.96875 0.28051,-0.38077 1.74301,-0.99677 3.25,-1.375 3.29479,-0.82694 3.7726,1.06499 0.53125,2.09375 -1.99092,0.63189 -2.02158,0.79365 -0.5,1.90625 0.91927,0.67219 1.34145,1.57356 0.9375,2 -0.40396,0.42644 0.21504,0.45945 1.40625,0.0937 1.19122,-0.3657 2.47158,-0.20789 2.8125,0.34375 0.70076,1.13386 5.53125,-0.66637 5.53125,-2.0625 0,-0.45872 1.6875,-0.5647 3.75,-0.21875 2.0625,0.34595 4.3125,0.53256 5,0.40625 0.6875,-0.12633 3.8375,-0.28988 7,-0.375 3.1625,-0.0851 6.0325,-0.53079 6.375,-1 0.82391,-1.12868 9.10062,2.55528 13.71875,6.124993 2.01877,1.56047 5.78785,4.04682 8.375,5.53125 4.90514,2.81445 7.807354,6.05213 7.781254,8.65625 -0.009,0.89304 -0.32047,1.1159 -0.75,0.53125 -0.40408,-0.55 -1.650004,-1.49876 -2.750004,-2.09375 -1.1,-0.59498 -2.42495,-2.05541 -2.96875,-3.25 -0.54381,-1.19457 -1.44381,-2.01061 -2,-1.8125 -0.5562,0.19809 -2.15625,-0.0502 -3.53125,-0.5625 -4.14171,-1.54304 -8.37143,-1.77875 -9.28125,-0.5 -0.64883,0.91192 -1.00676,0.86789 -1.4375,-0.21875 C 74.1501,105.11693 66.817,98.606767 64.4375,98.345577 63.09813,98.198547 62,98.489787 62,99.001827 c 0,0.51205 -1.19922,0.64693 -2.65625,0.28125 -1.86439,-0.46794 -2.43588,-0.33766 -1.9375,0.46875 0.88257,1.428023 0.0551,1.461213 -2.5,0.0937 -1.47223,-0.78792 -2.76572,-0.66137 -5.09375,0.499993 -1.71426,0.85518 -3.76315,1.5625 -4.5625,1.5625 -0.97128,0 -1.2265,0.58047 -0.78125,1.75 0.51522,1.35334 0.39286,1.47945 -0.53125,0.5625 -0.92178,-0.91466 -1.52757,-0.87867 -2.59375,0.1875 -0.76018,0.76018 -1.28464,1.74553 -1.1875,2.1875 0.0971,0.44196 -0.19474,1.60752 -0.625,2.59375 -0.43026,0.98622 -0.50425,2.05823 -0.1875,2.375 0.90265,0.90264 -2.20658,3.54656 -3.34375,2.84375 -0.55887,-0.3454 -1.40415,0.41466 -1.875,1.6875 -0.47085,1.27283 -1.11926,2.2 -1.46875,2.0625 -0.3495,-0.1375 -1.6139,-0.25 -2.78125,-0.25 -1.69359,0 -1.88477,0.27126 -0.96875,1.375 0.88452,1.06578 0.81869,1.52269 -0.34375,1.96875 -0.82976,0.31841 -1.26694,1.22292 -0.96875,2 0.64078,1.66983 5.41525,1.916 5.4375,0.28125 0.009,-0.6423 0.37408,-0.54095 0.875,0.25 0.59063,0.93261 1.75084,1.17343 3.5625,0.71875 1.81936,-0.45663 2.48413,-0.32652 2.03125,0.40625 -0.36843,0.59614 -0.12385,1.74189 0.53125,2.53125 1.39208,1.67735 4.58179,0.38074 6.78125,-2.71875 1.18323,-1.66741 1.48409,-1.67214 2.875,-0.28125 1.18904,1.18904 1.86336,1.26645 2.9375,0.375 0.76673,-0.63633 1.37071,-0.7611 1.375,-0.28125 0.0104,1.15968 4.88945,3.35573 7.46875,3.375 1.12785,0.008 2.67338,0.43431 3.46875,0.9375 0.87865,0.55589 2.15464,0.53824 3.21875,-0.0312 1.31977,-0.70632 2.34224,-0.34525 4.15625,1.46875 2.74027,2.74027 4.09335,5.625 2.65625,5.625 -0.53273,0 -0.96875,-0.45 -0.96875,-1 0,-0.55 -1.125,-1 -2.5,-1 -1.375,0 -2.5,0.50001 -2.5,1.125 0,0.625 -1.1774,-0.0524 -2.625,-1.5 -1.79283,-1.79283 -3.38698,-2.48001 -5,-2.1875 -1.3024,0.23617 -2.375,-0.0409 -2.375,-0.59375 0,-1.07324 -2.48479,-3.84375 -3.4375,-3.84375 -0.31429,0 -0.56269,0.5625 -0.5625,1.25 2.3e-4,0.85819 -1.6472,1.21665 -5.25,1.125 -4.86743,-0.12379 -9.49569,1.53555 -8.125,2.90625 0.32591,0.32591 -0.33406,0.32799 -1.46875,0.0312 -1.21598,-0.31799 -2.75693,0.16316 -3.75,1.15625 -1.10161,1.1016 -2.43889,1.44815 -3.8125,1 -1.1555,-0.37699 -3.89375,-0.83931 -6.09375,-1.03125 -2.2,-0.19195 -5.0125,-0.59702 -6.25,-0.90625 -1.33412,-0.33339 -2.25,-0.10519 -2.25,0.5625 0,0.61932 -0.66136,0.87232 -1.46875,0.5625 -0.80738,-0.30982 -1.72842,-0.13431 -2.0625,0.40625 -0.33409,0.54057 -1.32895,0.87084 -2.1875,0.71875 -0.89262,-0.15802 -1.67385,0.53868 -1.84375,1.6251 -0.1634,1.04494 -0.9009304,2.24106 -1.6250004,2.6875 C 3.657,142.18051 2.90739,143.47777 5.75,144.22062 c 1.2056396,0.31507 0.9723496,0.49192 -0.75,0.59375 -2.45485,0.14514 -2.46388,0.16701 -0.5,1.6875 1.9999996,1.54846 1.9999996,1.57041 0,1.375 -3.2445,-0.31702 -4.5,-0.0319 -4.5,1.03125 0,0.55 1.15504,1 2.5625,1 1.45136,0 2.28802,0.43284 1.9375,1 -0.33992,0.55 0.28837,1 1.375,1 1.0866296,0 2.1913396,-0.5625 2.4687496,-1.25 0.36368,-0.90131 0.53683,-0.92125 0.59375,-0.0625 0.0434,0.65504 -0.3875,1.47258 -0.9375,1.8125 -1.76593,1.0914 -1.06764,2.65775 0.90625,2.03125 1.4343104,-0.45523 2.2980204,0.15336 3.4375004,2.4375 0.83359,1.67096 1.1016,3.03125 0.59375,3.03125 -0.50784,0 -0.9375,0.70504 -0.9375,1.5625 0,0.85746 0.45,1.27742 1,0.9375 0.55,-0.33992 1,-0.11492 1,0.5 0,0.61492 0.45,0.83992 1,0.5 0.55,-0.33992 1.5625,-0.26912 2.25,0.15625 0.6875,0.42538 3.43574,0.82427 6.09375,0.90625 4.03031,0.1243 4.96316,-0.17034 5.59375,-1.875 0.66414,-1.79535 0.81627,-1.66863 1.375,1.125 0.65458,3.27293 2.6875,4.45571 2.6875,1.5625 0,-1.32074 0.29243,-1.40844 1.5,-0.40625 1.22945,1.02035 1.64673,0.78706 2.46875,-1.375 1.14425,-3.00962 1.88808,-3.3711 1.6875,-0.84375 -0.10094,1.27178 0.45365,1.66572 2.09375,1.4375 1.34721,-0.18745 2.51673,0.31638 2.875,1.25 0.33009,0.8602 1.04375,1.5625 1.59375,1.5625 0.55,0 0.74733,-0.66138 0.4375,-1.46875 -0.30982,-0.80739 -0.13336,-1.76026 0.40625,-2.09375 0.53961,-0.3335 0.86987,-0.01 0.71875,0.71875 -0.17446,0.8408 0.50274,1.22035 1.875,1.03125 1.18878,-0.16382 2.48082,0.23721 2.875,0.875 0.92652,1.49914 -1.63441,3.09147 -3.0625,1.90625 -0.69288,-0.57504 -1.54906,-0.23968 -2.375,0.90625 -1.31298,1.82167 -6.09375,1.82072 -6.09375,0 0,-1.52643 -1.41431,-0.97315 -4.25,1.65625 -1.50688,1.39726 -2.75,2.2396 -2.75,1.875 0,-0.3646 -0.68122,-0.0805 -1.53125,0.625 -0.85003,0.70546 -1.33452,1.85363 -1.0625,2.5625 0.30421,0.79275 -0.0459,1.08015 -0.90625,0.75 -1.03972,-0.39897 -1.28629,0.13903 -0.9375,2.0625 0.26914,1.48425 0.0297,2.59375 -0.59375,2.59375 -0.66195,0 -0.82024,0.87974 -0.40625,2.25 0.55458,1.8356 0.41444,2.01978 -0.65625,1 -1.85211,-1.76406 -3.40828,-1.55983 -1.90625,0.25 1.04007,1.2532 0.89823,1.5 -0.875,1.5 -2.24642,0 -2.7132,0.95891 -1.21875,2.53125 0.49662,0.5225 1.05819,1.84059 1.25,2.90625 0.30226,1.67939 1.25347,1.94375 7.125,2.03125 5.11383,0.0762 6.65103,-0.22387 6.28125,-1.1875 -0.56156,-1.46339 1.58256,-1.2852 2.6875,0.21875 0.44869,0.61072 0.74065,0.48695 0.75,-0.3125 0.008,-0.71996 0.45,-1.02742 1,-0.6875 0.55,0.33992 1,0.0788 1,-0.5625 0,-0.6413 0.675,-0.91034 1.5,-0.59375 1.77844,0.68245 1.84518,0.25772 0.4375,-2.65625 -1.01928,-2.10998 -1.00228,-2.12512 0.5,-0.25 0.85535,1.06762 1.5625,2.98012 1.5625,4.25 0,1.48364 0.62548,2.35548 1.75,2.4375 0.9625,0.0702 2.72949,0.21544 3.9375,0.34375 1.20802,0.12829 2.43508,-0.35453 2.71875,-1.09375 0.28366,-0.73922 1.17857,-1.08446 1.96875,-0.78125 0.79019,0.30323 1.7454,0.0204 2.125,-0.59375 0.50742,-0.82103 1.03278,-0.79741 2.03125,0.0312 0.74695,0.61992 3.51467,1.22111 6.15625,1.34375 2.64158,0.12264 6.94998,1.21461 9.5625,2.4375 2.61251,1.2229 6.21251,2.51433 8,2.84375 2.14256,0.39486 5.3718,2.62833 9.4375,6.59375 6.16625,6.01417 6.1645,6.01504 7.34375,14.125 0.64867,4.46108 1.00308,10.13625 0.8125,12.59375 l -0.34375,4.46875 -3.156246,-2.96875 c -1.74448,-1.6325 -3.473694,-4.02781 -3.843754,-5.3125 -0.60551,-2.10205 -0.48208,-2.22717 1.343754,-1.25 2.52639,1.35208 4.191486,1.39856 2.15625,0.0625 -1.33333,-0.87528 -1.33333,-1.08412 0,-2.03125 1.173086,-0.83328 0.95514,-0.94638 -1,-0.5 -2.451964,0.55981 -2.439734,0.53448 -0.25,-0.59375 1.76081,-0.90723 2.09641,-1.69556 1.59375,-3.75 -0.35054,-1.43271 -1.03509,-2.75416 -1.5,-2.9375 -0.46491,-0.18334 -0.84375,-0.97797 -0.84375,-1.78125 0,-0.80328 -0.5608,-1.34575 -1.250004,-1.1875 -0.68919,0.15827 -2.60169,-0.65755 -4.25,-1.8125 -1.6483,-1.15494 -3.9,-2.17782 -5,-2.28125 -4.8934,-0.46013 -7.59761,-0.0655 -9.84375,1.40625 -2.42219,1.58708 -4.6456,1.66699 -5.71875,0.21875 -0.63284,-0.85403 -5.4607,-1.17107 -8.15625,-0.53125 -0.94153,0.22348 -2.51653,1.30418 -3.5,2.375 -1.29546,1.41055 -2.81443,1.84985 -5.53125,1.625 -2.0625,-0.1707 -3.75,-0.66861 -3.75,-1.09375 0,-0.98403 -6.17035,-1.05864 -7.5,-0.0937 -0.55,0.39911 -3.56688,0.4269 -6.71875,0.0625 -6.49924,-0.75139 -9.15242,0.19268 -8.28125,2.9375 0.47018,1.4814 0.17494,1.71924 -1.5,1.28125 -1.14602,-0.2997 -1.9948,-0.13901 -1.90625,0.34375 0.46169,2.51696 -0.25828,4.375 -1.6875,4.375 -1.04743,0 -1.39153,0.54218 -1,1.5625 0.46113,1.20169 0.12423,1.42327 -1.40625,0.9375 -2.28058,-0.72383 -2.33814,-0.56237 -1.03125,2.875 0.80263,2.11107 0.68013,2.41906 -0.65625,1.90625 -1.08129,-0.41493 -1.44038,-0.14382 -1.125,0.8125 0.25563,0.77514 1.3929,1.55036 2.53125,1.71875 1.13836,0.16841 2.31418,1.18092 2.59375,2.25 0.53268,2.03696 3.6875,2.72884 3.6875,0.8125 0,-0.60884 0.73876,-0.80884 1.625,-0.46875 1.22481,0.47 1.44723,0.18256 0.9375,-1.15625 -0.53769,-1.41229 -0.41594,-1.50228 0.59375,-0.5 1.63091,1.61893 3.19137,1.61893 2.21875,0 -0.54949,-0.91463 -0.31386,-0.90094 0.875,0.0625 1.99206,1.61433 1.88367,5.1875 -0.15625,5.1875 -1.1043,0 -1.21288,0.28711 -0.375,1.125 1.35902,1.35902 10.83999,1.7183 14.125,0.53125 2.07939,-0.7514 2.27723,-0.60806 1.6875,1.25 -0.73398,2.31258 -0.33616,2.50848 2.25,1.21875 0.95504,-0.47627 3.13451,-1.31679 4.875,-1.875 2.77617,-0.89036 3.23292,-0.76955 3.6875,0.96875 0.285,1.08982 1.00673,1.6753 1.59375,1.3125 0.58702,-0.3628 1.0625,-0.14617 1.0625,0.46875 0,0.61492 0.42551,0.84766 0.9375,0.53125 0.512,-0.31644 1.21443,-0.0944 1.5625,0.46875 0.4025,0.65125 1.16189,0.4631 2.09375,-0.46875 0.80585,-0.80585 2.12841,-1.18548 2.9375,-0.875 1.74464,0.66948 1.8311,-0.0192 0.40625,-2.96875 -0.95801,-1.98314 -0.91009,-2.02637 0.375,-0.4375 1.7901,2.21327 2.83348,2.26576 2,0.0937 -0.40761,-1.0622 -0.25783,-1.42974 0.4375,-1 0.59913,0.37028 1.7637,-0.0137 2.59375,-0.84375 2.08398,-2.08398 2.40741,-1.94071 3.15625,1.46875 0.52385,2.38507 1.10469,2.91995 2.84375,2.59375 1.19595,-0.22434 2.87244,-0.45913 3.75,-0.5 2.26335,-0.10541 1.82305,-4.67869 -0.625,-6.46875 -3.63518,-2.65811 -0.47122,-2.96712 6.3125,-0.625 3.70507,1.27919 8.262744,3.43261 10.125004,4.8125 l 3.374996,2.53125 -0.59375,13.0938 c -0.3186,7.20249 -0.87969,14.10625 -1.25,15.34375 -0.67286,2.24863 -0.65218,2.25 11.75,2.25 l 12.40625,0 -0.0312,-14.75 c -0.0309,-10.56363 0.45989,-17.30439 1.78125,-23.75 2.14605,-10.4685 5.92859,-18.00398 8.5,-16.96875 0.91542,0.36854 2.21875,0.87518 2.90625,1.15625 0.73237,0.29943 1.27228,-0.25576 1.28125,-1.34375 0.0118,-1.42991 0.20999,-1.54965 0.875,-0.5 0.72914,1.15087 0.93495,1.15086 1.40625,0 0.43017,-1.05045 0.95725,-0.88496 2.25,0.65625 1.17588,1.40188 1.82634,1.63053 2.15625,0.75 0.25886,-0.69093 0.87912,-1.01329 1.40625,-0.6875 0.52711,0.32578 1.56985,0.0851 2.3125,-0.53125 1.00695,-0.83569 1.70756,-0.77913 2.71875,0.1875 1.97151,1.88461 6.84375,3.88895 6.84375,2.8125 0,-0.50575 -0.42423,-1.19473 -0.96875,-1.53125 -0.62312,-0.38511 -0.53047,-1.09634 0.25,-1.9375 0.76334,-0.82271 1.46248,-0.98256 1.84375,-0.375 0.34065,0.54284 1.74831,1.07245 3.125,1.15625 1.7748,0.10802 2.33433,0.59268 1.9375,1.65625 -0.46927,1.25774 -0.30883,1.27632 1.03125,0.1875 1.07439,-0.87295 1.81435,-0.9549 2.25,-0.25 0.35642,0.57671 1.10625,1.0625 1.65625,1.0625 0.55,0 0.68883,-0.51609 0.3125,-1.125 -0.46045,-0.74503 0.007,-0.86014 1.4375,-0.40625 1.26803,0.40246 2.125,0.23568 2.125,-0.40625 0,-0.71462 0.65685,-0.66305 1.96875,0.15625 1.57718,0.98496 2.23188,0.96945 3.25,-0.0625 1.03485,-1.04891 0.95526,-1.55851 -0.53125,-2.65625 -1.73275,-1.27959 -1.7058,-1.37508 0.5,-1.6875 1.28228,-0.18162 2.36345,-0.9875 2.4375,-1.8125 0.28874,-3.21656 0.44575,-3.45567 1.25,-2.1875 0.45744,0.72132 2.93137,1.44747 5.5,1.625 3.86923,0.26741 4.62767,0.0415 4.40625,-1.3125 -0.18053,-1.1039 0.31266,-1.52656 1.5625,-1.3125 1.1107,0.19021 1.61454,-0.10961 1.21875,-0.75 -0.39017,-0.6313 0.20916,-1.0625 1.5,-1.0625 1.77203,0 1.9582,-0.28294 1,-1.4375 -0.97662,-1.17675 -0.78517,-1.30489 1.125,-0.8125 2.06586,0.53254 2.17623,0.41647 0.9375,-1.09375 -0.76087,-0.92764 -2.11086,-1.58225 -3,-1.4375 -0.88913,0.14476 -1.51591,-0.30226 -1.375,-1 0.14092,-0.69774 -0.87158,-1.77819 -2.25,-2.40625 -1.37841,-0.62804 -2.5,-1.49306 -2.5,-1.9375 0,-0.44446 -0.66408,-0.57078 -1.5,-0.25 -0.83592,0.32077 -3.64842,-0.32379 -6.25,-1.4375 -5.28287,-2.26151 -10.57509,-2.92268 -14.03125,-1.78125 -1.43378,0.47352 -2.89024,0.29135 -3.84375,-0.5 -1.13744,-0.94398 -1.68826,-0.98337 -2.21875,-0.125 -1.00888,1.63239 -7.33035,2.00851 -7.875,0.46875 -0.24308,-0.68721 0.39802,-1.54975 1.40625,-1.90625 1.00824,-0.35649 3.3875,-1.3275 5.3125,-2.15625 1.925,-0.82875 3.95,-1.38232 4.5,-1.21875 0.55,0.16355 2.8,0.45862 5,0.625 2.2,0.16636 4,0.3654 4,0.4375 0,0.19045 3.63654,0.96018 6.25,1.34375 2.52903,0.3712 2.84628,-0.35926 1,-2.3125 -1.03036,-1.09004 -0.86297,-1.11268 0.9375,-0.1875 3.28081,1.68588 5.65715,1.34525 7.71875,-1.0625 1.73017,-2.02069 1.75981,-2.22529 0.1875,-3.375 -1.27046,-0.92899 -1.3883,-1.36461 -0.40625,-1.71875 0.80054,-0.28869 0.25206,-0.95646 -1.4375,-1.75 -2.82648,-1.32755 -3.50666,-2.56903 -1.75,-3.15625 0.54843,-0.18333 -0.14138,-1.63281 -1.53125,-3.25 -2.29851,-2.67441 -3.11494,-2.94573 -9,-3 -3.55862,-0.0328 -6.46882,0.25749 -6.46875,0.65625 6e-5,0.39875 -1.35,0.45499 -3,0.125 -2.16278,-0.43256 -3.00833,-0.21002 -3.03125,0.78125 -0.0219,0.94855 -0.46473,0.78429 -1.4375,-0.5 -0.77557,-1.02393 -2.8384,-1.95567 -4.59375,-2.09375 -1.75534,-0.13809 -3.62106,-1.00577 -4.125,-1.90625 -1.15453,-2.06305 -2.94018,-2.16788 -2.15625,-0.125 0.4915,1.28083 0.115,1.25949 -2.40625,-0.1875 l -3,-1.71875 5.125,-1.78125 c 2.81928,-0.97803 12.1,-5.37483 20.625,-9.78125 8.525,-4.40644 16.52364,-8.02412 17.75,-8.03125 1.22637,-0.007 3.98828,-0.7263 6.15625,-1.59375 3.08821,-1.23566 4.41528,-1.30455 6.09375,-0.40625 1.58108,0.84617 2.47465,0.82504 3.46875,0 0.92849,-0.77058 1.55332,-0.78525 2,-0.0625 0.91793,1.48524 5.1551,1.31367 6.75,-0.28125 0.73825,-0.73825 2.12004,-1.23665 3.09375,-1.09375 1.33056,0.19528 1.61217,-0.21979 1.15625,-1.65625 -0.46097,-1.45241 -0.22944,-1.74103 0.96875,-1.28125 1.14908,0.44095 1.41938,0.14306 0.96875,-1.03125 -0.41277,-1.07566 -0.0569,-1.59375 1.03125,-1.59375 1.47712,0 1.47708,-0.2325 0.0937,-2.34375 -0.83961,-1.2814 -1.2436,-2.6314 -0.875,-3 0.36859,-0.36859 0.18692,-0.65625 -0.4375,-0.65625 -0.6244,0 -0.87908,-0.675 -0.5625,-1.5 0.40178,-1.04702 -0.0913,-1.5 -1.59375,-1.5 -1.18384,0 -3.2904,-1.13415 -4.6875,-2.53125 -1.78097,-1.78097 -3.16378,-2.3601 -4.59375,-1.90625 -1.27782,0.40557 -1.80372,0.26814 -1.40625,-0.375 0.75536,-1.2222 -1.96563,-4.1875 -3.84375,-4.1875 -0.72609,0 -1.5924,-1.125 -1.9375,-2.5 -0.39702,-1.58183 -1.34642,-2.5 -2.5625,-2.5 -1.05706,0 -2.14008,-0.39375 -2.4375,-0.875 -0.29742,-0.48125 -1.73992,-0.875 -3.1875,-0.875 -1.44758,0 -2.95749,-0.5432 -3.375,-1.21875 -0.58985,-0.95438 -1.25124,-0.98169 -2.96875,-0.0625 -1.82912,0.97891 -2.57415,0.85787 -4.28125,-0.65625 -1.4969,-1.32767 -2.18273,-1.46953 -2.5,-0.5625 -0.24048,0.6875 -0.94835,1.25 -1.5625,1.25 -0.81914,0 -0.82295,-0.30205 0,-1.125 0.61702,-0.61702 0.93908,-1.6569 0.6875,-2.3125 -0.54058,-1.40874 10.85522,-12.582783 12.78125,-12.531243 0.72833,0.0195 0.1875,0.67344 -1.1875,1.4375 l -2.5,1.375 2.625,1 c 1.54901,0.59192 4.09648,0.6732 6.25,0.1875 2.06409,-0.46553 3.87337,-0.44576 4.1875,0.0625 0.30453,0.49274 0.0179,0.90625 -0.65625,0.90625 -0.67413,0 -0.98147,0.268523 -0.65625,0.593743 0.32522,0.32521 1.54833,0.27773 2.71875,-0.0937 1.80896,-0.574143 1.95111,-0.897923 0.84375,-2.249993 -1.11552,-1.36206 -0.93329,-1.37806 1.28125,0.0625 2.52325,1.64139 2.60882,1.63572 3.78125,-0.9375 1.01376,-2.22494 0.91442,-2.96651 -0.59375,-4.6875 -1.67731,-1.914 -1.67324,-2.00504 -0.0312,-1.40625 0.9625,0.351 1.75,0.22416 1.75,-0.28125 0,-1.48716 -3.10128,-2.78884 -5.28125,-2.21875 -1.67932,0.43915 -1.92092,0.16109 -1.4375,-1.6875 0.40043,-1.53126 0.0602,-2.42047 -1.09375,-2.84375 -0.91981,-0.33738 -2.02891,-1.20853 -2.46875,-1.9375 -0.43983,-0.72898 -1.45225,-1.3125 -2.21875,-1.3125 -0.76648,0 -1.96881,-0.81635 -2.6875,-1.8125 -2.04083,-2.82877 -3.74042,-3.46035 -5.59375,-2.09375 -0.93841,0.69197 0.1027,-0.53037 2.3125,-2.6875 2.20981,-2.15711 4.68838,-4.99687 5.53125,-6.3125 1.32202,-2.06355 1.84101,-2.22369 3.71875,-1.21875 1.66883,0.89312 2.63622,0.86726 4.125,-0.0625 1.53896,-0.9611 2.27811,-0.91502 3.53125,0.125 0.86966,0.72175 1.5625,1.92985 1.5625,2.6875 0,1.71851 2.18371,1.78778 3.875,0.125 1.01849,-1.00133 1.19498,-0.97646 0.9375,0.125 -0.17679,0.75625 0.24962,1.56029 0.9375,1.8125 0.80448,0.29496 1.05028,-0.0982 0.65625,-1.125 -0.3369,-0.87796 -0.13154,-2.18294 0.46875,-2.90625 0.7101,-0.85562 0.7866,-2.39504 0.21875,-4.375 -0.70703,-2.46527 -0.58771,-3.00435 0.65625,-2.90625 2.66281,0.20999 2.50339,-2.26213 -0.1875,-2.9375 -1.49381,-0.37492 -2.5625,-1.3609 -2.5625,-2.34375 0,-0.93038 -0.5275,-2.24625 -1.1875,-2.90625 -0.93333,-0.93334 -0.71111,-1.1875 1,-1.1875 1.21,0 2.1875,-0.45 2.1875,-1 0,-0.55 -0.675,-1 -1.5,-1 -0.825,0 -1.5,-0.675 -1.5,-1.5 0,-0.825 -0.36864,-1.5 -0.84375,-1.5 -0.47511,0 -3.14934,-2.10403 -5.9375,-4.687504 -4.33788,-4.01946 -5.72365,-4.74959 -9.625,-4.9375 -2.50756,-0.12078 -4.83905,0.20551 -5.15625,0.71875 -0.97071,1.57064 -2.26161,0.0134 -1.71875,-2.0625 0.47668,-1.82282 0.67113,-1.83951 2.90625,-0.375 2.42389,1.58819 3.21118,0.73466 1.375,-1.46875 -0.72727,-0.87273 -0.65398,-0.91478 0.21875,-0.1875 1.55222,1.29352 3.08069,1.29352 2.28125,0 -0.33992,-0.55 -0.11492,-1 0.5,-1 0.61492,0 0.83602,-0.45629 0.5,-1 -0.35034,-0.56686 0.0788,-0.7165 0.96875,-0.375 2.18546,0.83864 1.99184,-2.27494 -0.21875,-3.5625 -1.07989,-0.62898 -1.24527,-1.01249 -0.4375,-1.03125 0.71996,-0.0167 1.02835,-0.47975 0.6875,-1.03125 -0.41211,-0.6668 -1.27286,-0.65896 -2.5625,0.0312 -1.39293,0.74547 -1.9375,0.72663 -1.9375,-0.0937 0,-0.62819 -0.68415,-0.88757 -1.53125,-0.5625 -0.90308,0.34654 -1.46802,0.0673 -1.375,-0.65625 0.42181,-3.280871 -0.1057,-3.921401 -2.65625,-3.281251 -1.67543,0.420511 -2.38558,0.26817 -1.96875,-0.40625 0.36321,-0.58769 -0.21367,-1.03125 -1.34375,-1.03125 -1.1,0 -2.27953,-0.47226 -2.625,-1.03125 -0.34546,-0.55897 -1.02601,-0.7617 -1.5,-0.46875 -0.47399,0.29294 -1.14899,0.0679 -1.5,-0.5 -0.35101,-0.56795 -1.05049,-0.78517 -1.5625,-0.46875 -0.51199,0.31643 -0.9375,0.20951 -0.9375,-0.25 0,-0.45953 -1.97898,-0.82707 -4.40625,-0.8125 -2.42726,0.0146 -4.33976,0.48125 -4.25,1.03125 0.0898,0.55 -0.63125,0.84911 -1.59375,0.6875 -0.9625,-0.16161 -1.75,0.17589 -1.75,0.75 0,0.57411 -0.675,1.0625 -1.5,1.0625 -2.19751,0 -1.8306,1.67178 0.5,2.281251 1.1,0.28765 1.98092,1.13602 1.9375,1.875 -0.0594,1.01046 -0.21443,1.03381 -0.59375,0.0937 -0.27741,-0.6875 -1.54621,-1.25 -2.8125,-1.25 -2.57923,0 -7.78403,2.40345 -6.96875,3.21875 0.28959,0.2896 -0.58323,0.53125 -1.9375,0.53125 -1.52832,0 -2.29093,-0.4606 -2,-1.21875 0.30489,-0.79453 -0.64693,-1.25358 -2.71875,-1.3125 -1.75179,-0.0498 -3.66911,-0.60152 -4.28125,-1.21875 -0.82101,-0.82783 -0.63066,-0.94414 0.78125,-0.40625 1.33591,0.50893 1.72341,0.37905 1.21875,-0.4375 -0.39769,-0.643471 -1.50746,-1.179071 -2.4375,-1.187501 -1.43516,-0.013 -1.47139,-0.14537 -0.21875,-0.9375 1.20526,-0.76218 1.02189,-1.13071 -1,-1.9375 -1.36176,-0.54338 -1.85833,-0.99639 -1.125,-1.03125 2.2603,-0.10745 0.67637,-2.41269 -1.78125,-2.59375 -1.27305,-0.0938 -2.73394,-0.95952 -3.28125,-1.9375 -0.80975,-1.4469502 -1.18754,-1.5210702 -1.90625,-0.40625 -0.68279,1.05912 -1.02331,0.86446 -1.5,-0.875 -0.33913,-1.2375002 -1.04905,-2.2500002 -1.59375,-2.2500002 -0.5447,0 -0.70691,0.69754 -0.375,1.5625 0.4315,1.1244502 0.0925,1.4606602 -1.15625,1.1875002 -0.96057,-0.21013 -1.62874,-0.9651902 -1.46875,-1.6875002 0.1983,-0.89524 -0.27919,-1.08361 -1.5,-0.59375 -0.98499,0.39524 -2.36499,0.95308 -3.09375,1.25 -0.75799,0.30882 -1.2357,-0.051 -1.125,-0.84375 0.41851,-2.99726 -0.11518,-4.68988 -1.65625,-5.28125 -1.18944,-0.45643 -1.46079,-0.2008 -1,1 0.64649,1.68472 -0.93305,1.66756 -7.40625,-0.0937 -1.93506,-0.52652 -2.16103,-0.42306 -1,0.40625 1.24779,0.89128 1.12683,1.04977 -0.71875,1.0625 -1.6594,0.0115 -2.03916,-0.38286 -1.5625,-1.625 0.51387,-1.33915 0.17737,-1.55018 -1.6875,-1.0625 -1.73595,0.45396 -2.01498,0.32748 -1.15625,-0.53125 2.00689,-2.00689004 1.26184,-2.69986004 -3.5,-2.65625004 z M 89.43735,8.9081218 c -0.85746,0 -1.27742,0.45 -0.9375,1 0.33992,0.5500002 1.04496,1.0000002 1.5625,1.0000002 0.51754,0 0.9375,-0.45 0.9375,-1.0000002 0,-0.55 -0.70504,-1 -1.5625,-1 z m 45.5625,4.0000002 c 0.55,0 1,0.45 1,1 0,0.55 -0.45,1 -1,1 -0.55,0 -1,-0.45 -1,-1 0,-0.55 0.45,-1 1,-1 z m 4.8125,1.46875 c 0.0936,-0.0398 0.25332,-0.0202 0.46875,0.0625 0.70116,0.26906 1.81968,1.37938 2.5,2.46875 1.80704,2.89353 -0.24493,2.44831 -2.15625,-0.46875 -0.82044,-1.25215 -1.09346,-1.94323 -0.8125,-2.0625 z m -52.875,1.09375 c 0.2978,-0.0295 0.82121,0.0458 1.5625,0.1875 1.37981,0.26377 2.5,0.59797 2.5,0.75 0,1.06861 -3.06317,1.116 -3.9375,0.0625 -0.53279,-0.64197 -0.62133,-0.95079 -0.125,-1 z m 51.375,0.4375 c 0.36907,0.0557 0.80361,0.36692 1.15625,0.9375 0.31644,0.51199 0.1576,1.1589 -0.34375,1.46875 -0.50134,0.30985 -1.15338,-0.0844 -1.46875,-0.90625 -0.38856,-1.01257 0.0411,-1.59291 0.65625,-1.5 z m -58.21875,2.125 c 0.3474,-0.0143 0.73281,0.0431 1.09375,0.1875 0.79773,0.31923 0.5712,0.54577 -0.59375,0.59375 -1.05416,0.0434 -1.64479,-0.19896 -1.3125,-0.53125 0.16615,-0.16614 0.46511,-0.23569 0.8125,-0.25 z m -7.09375,5.875001 c -0.55,0 -1,0.45 -1,1 0,0.55 0.45,1 1,1 0.55,0 1,-0.45 1,-1 0,-0.55 -0.45,-1 -1,-1 z m 75.84375,1 c 0.45834,0 0.84375,0.675 0.84375,1.5 0,1.69935 -0.0731,1.73942 -1,0.8125 -0.93214,-0.93213 -0.84246,-2.3125 0.15625,-2.3125 z m -12.3125,5.0625 c 0.59768,-0.1229 1.72902,0.42834 3.4375,1.625 1.89534,1.32755 2.28346,1.36461 1.84375,0.21875 -0.42792,-1.11514 0.38622,-1.46437 3.5625,-1.53125 2.27171,-0.0478 3.5625,0.10155 2.875,0.34375 -0.6875,0.2422 -1.25,0.97815 -1.25,1.625 0,0.64687 -0.79601,1.66595 -1.78125,2.28125 -1.41246,0.8821 -2.29614,0.73093 -4.125,-0.75 -1.27569,-1.03299 -2.92344,-1.875 -3.6875,-1.875 -0.76407,0 -1.40625,-0.45 -1.40625,-1 0,-0.54168 0.17264,-0.86376 0.53125,-0.9375 z m -59.0625,0.96875 c 0.27601,0 0.63528,0.32805 1.03125,0.96875 0.33992,0.55 0.14496,1 -0.4375,1 -0.58246,0 -1.0625,-0.45 -1.0625,-1 0,-0.64069 0.19274,-0.96875 0.46875,-0.96875 z m -41.53125,0.96875 c -0.58246,0 -0.77742,0.45 -0.4375,1 0.79194,1.28138 1.5,1.28138 1.5,0 0,-0.55 -0.48004,-1 -1.0625,-1 z m 57.125,2.03125 c 0.52504,0 0.9375,0.32179 0.9375,0.96875 0,0.55 -0.70504,1 -1.5625,1 -0.85746,0 -1.27742,-0.45 -0.9375,-1 0.39984,-0.64695 1.03746,-0.96875 1.5625,-0.96875 z m 52.21875,1 c 0.18324,0.008 0.51238,0.41172 1.125,1.21875 0.73064,0.9625 2.26185,1.75 3.40625,1.75 1.1444,0 2.34758,0.45 2.6875,1 0.33992,0.55 1.075,1 1.625,1 0.55,0 0.71492,-0.45 0.375,-1 -0.77122,-1.24786 -0.29013,-1.25839 2.9375,-0.0312 1.70451,0.64805 2.5625,0.64018 2.5625,-0.0312 0,-0.67114 0.64938,-0.65812 1.9375,0.0312 1.31346,0.70294 2.13596,0.69016 2.5625,0 0.34638,-0.56046 1.05051,-0.75392 1.5625,-0.4375 0.51199,0.31643 0.9375,0.12771 0.9375,-0.4375 0,-0.5652 0.675,-0.78533 1.5,-0.46875 0.825,0.31658 1.5,1.00764 1.5,1.53125 0,0.52362 -0.40588,0.71549 -0.90625,0.40625 -1.73284,-1.07096 -4.25102,0.64661 -3.75,2.562504 0.4868,1.86151 -0.39188,2.48312 -1.6875,1.1875 -1.97572,-1.975714 -11.51269,0.48078 -10.1875,2.625 0.29375,0.47528 -0.39801,0.6401 -1.53125,0.34375 -1.51477,-0.39612 -2.18387,0.0263 -2.59375,1.59375 -0.30665,1.17264 -0.9817,2.125 -1.5,2.125 -0.51831,0 -0.64434,0.47499 -0.28125,1.0625 0.3631,0.5875 1.37438,0.78258 2.28125,0.4375 1.05864,-0.40283 1.2983,-0.29542 0.65625,0.3125 -2.06044,1.95092 -5.46993,2.37566 -6.09375,0.75 -0.33114,-0.86293 -1.4288,-1.5625 -2.4375,-1.5625 -1.0087,0 -2.12883,-0.45 -2.46875,-1 -0.33992,-0.55 -1.60746,-1.0612 -2.8125,-1.125 -1.69179,-0.0896 -1.78878,-0.20937 -0.4375,-0.5625 0.9625,-0.25153 1.75,-0.89537 1.75,-1.4375 0,-0.54214 0.42552,-0.75393 0.9375,-0.4375 0.512,0.31643 1.20062,0.15995 1.53125,-0.375 0.33061,-0.53495 1.34713,-0.69022 2.25,-0.34375 1.24865,0.47915 1.47241,0.21876 0.96875,-1.09375 -0.36444,-0.94971 -0.25284,-1.46702 0.25,-1.15625 1.32671,0.81996 6.17402,-1.63416 5.75,-2.906254 -0.19757,-0.59272 -0.74584,-1.08532 -1.25,-1.09375 -1.77904,-0.0297 -3.43767,-1.61042 -3.40625,-3.28125 0.0147,-0.77981 0.0668,-1.1642 0.25,-1.15625 z m 31.71875,0.96875 c 0.55,0 1,0.69821 1,1.5625 0,2.48515 -2.47741,4.522594 -3.84375,3.15625 -1.57376,-1.57377 -1.43958,-2.71875 0.34375,-2.71875 0.825,0 1.5,-0.45 1.5,-1 0,-0.55 0.45,-1 1,-1 z m 9.21875,0.0312 c 0.1349,0.0105 0.34493,0.30289 0.6875,0.84375 0.50849,0.80281 1.41857,1.04966 2.15625,0.59375 0.84966,-0.52512 1.00703,-0.3829 0.5,0.4375 -0.41561,0.67248 -1.38688,0.98274 -2.15625,0.6875 -0.76937,-0.29523 -1.40625,-0.19108 -1.40625,0.25 0,0.44108 -0.63369,0.8125 -1.40625,0.8125 -0.77256,0 -1.15521,-0.58232 -0.875,-1.3125 0.28019,-0.73017 0.91389,-1.08555 1.40625,-0.78125 0.49237,0.3043 0.89783,-0.03 0.90625,-0.75 0.006,-0.51374 0.0526,-0.79175 0.1875,-0.78125 z m -4.75,0.96875 c 0.89459,0 1.25687,0.58629 0.90625,1.5 -0.74491,1.9412 -2.375,1.9412 -2.375,0 0,-0.825 0.66102,-1.5 1.46875,-1.5 z m -53.1875,7.125004 c 0.15678,-0.0326 0.61233,0.38417 1.5,1.1875 1.0308,0.93286 2.13758,1.45617 2.4375,1.15625 0.29992,-0.29992 0.80606,0.1064 1.125,0.9375 0.31892,0.83111 0.2262,1.75625 -0.21875,2.03125 -1.112,0.68725 -3.70329,-1.51771 -4.53125,-3.875 -0.32338,-0.9207 -0.46928,-1.40489 -0.3125,-1.4375 z m -110.34375,0.87505 c -0.58246,0 -0.77742,0.45 -0.4375,1 0.79194,1.28138 1.5,1.28138 1.5,0 0,-0.55 -0.48004,-1 -1.0625,-1 z m 105.8125,1.34375 c 0.1706,0.002 0.36509,0.0102 0.5625,0.0312 2.71203,0.28915 4.6875,1.381 4.6875,2.59375 0,0.47845 -1.57746,0.81715 -3.5,0.71875 -2.53539,-0.12977 -3.49674,-0.65516 -3.5,-1.875 -0.003,-1.01384 0.55583,-1.48013 1.75,-1.46875 z m -6.09375,2.09375 c 0.33005,-0.0129 0.58658,0.13445 0.8125,0.5 0.35883,0.58059 -0.15889,1.33236 -1.15625,1.65625 -3.67024,1.19187 -3.96875,1.17795 -3.96875,-0.15625 0,-0.74836 0.39258,-1.11066 0.875,-0.8125 0.48243,0.29815 1.49806,0.0303 2.25,-0.59375 0.47343,-0.39292 0.85745,-0.58083 1.1875,-0.59375 z m -22.03125,0.71875 c 0.28186,-0.0751 0.30615,0.14896 0.0312,0.59375 -0.83113,1.34479 0.23628,4.25 1.562504,4.25 0.55,0 0.70813,-0.76918 0.34375,-1.71875 -0.48375,-1.26061 0.0828,-1.05823 2.125,0.75 4.650836,4.11809 5.802176,6.96875 2.812496,6.96875 -0.825,0 -1.5,0.63275 -1.5,1.40625 0,0.91405 -0.70014,1.21492 -1.999996,0.875 -1.35348,-0.35395 -2,-0.0307 -2,1 0,1.03442 -0.63151,1.35787 -2.000004,1 -1.5494,-0.40518 -1.88445,-0.15242 -1.40625,1.09375 0.34201,0.89128 1.60259,1.66391 2.781254,1.71875 2.07111,0.0963 2.07287,0.12148 0.125,0.75 -1.108534,0.35767 -1.952284,1.21875 -1.875004,1.90625 0.0773,0.6875 0.18125,1.7 0.25,2.25 0.0687,0.55 0.60504,1 1.1875,1 0.582464,0 0.777424,-0.45 0.437504,-1 -0.937974,-1.51766 1.86368,-1.19435 4.062496,0.46875 2.56426,1.93951 4.01936,1.91244 2.40625,-0.0312 -1.04128,-1.25466 -1.02976,-1.76765 0.0312,-2.75 0.83961,-0.77736 1.06546,-0.79421 0.65625,-0.0625 -0.34963,0.62518 0.0561,1.69534 0.875,2.375 1.18254,0.98142 1.77747,0.98867 2.96875,0 1.30308,-1.08147 1.5,-0.50935 1.5,4.375 0,3.09235 -0.10688,5.625 -0.25,5.625 -0.14312,0 -1.48588,-1.125 -2.96875,-2.5 -1.48288,-1.375 -3.36974,-2.5 -4.21875,-2.5 -0.849,0 -1.562496,-0.45 -1.562496,-1 0,-0.55 -0.70504,-1 -1.5625,-1 -0.85746,0 -1.27742,0.45 -0.9375,1 0.33992,0.55 -0.08,1 -0.9375,1 -0.857464,0 -1.562504,-0.45 -1.562504,-1 0,-0.55 -0.83116,-1 -1.84375,-1 -1.17506,0 -2.79587,-1.7752 -4.5,-4.90625 -2.21506,-4.0698 -2.50752,-5.38598 -1.65625,-7.625 0.85501,-2.24882 1.44932,-2.59287 3.5625,-2.0625 2.06079,0.51723 2.49471,0.32291 2.25,-1.125 -0.18487,-1.09386 0.2418,-1.68167 1.09375,-1.5 1.07098,0.22838 1.26251,-0.62793 0.84375,-3.75 -0.31686,-2.36237 -0.11855,-4.3052 0.5,-4.6875 0.14758,-0.0912 0.28105,-0.16246 0.375,-0.1875 z m 13.5625,1.9375 c 0.16614,-0.009 0.29832,0.0171 0.375,0.0937 0.20399,0.20399 -0.2111,2.30192 -0.90625,4.65625 l -1.25,4.28125 -1.21875,-2.5937 c -0.65595,-1.43964 -1.1875,-3.05773 -1.1875,-3.5625 0,-0.86522 3.02455,-2.81232 4.1875,-2.875 z m 58.1875,4.28125 c 0.36444,0.0123 0.625,0.41941 0.625,1.0625 0,1.75653 -0.58027,2.01205 -1.4375,0.625 -0.31644,-0.51199 -0.12147,-1.21705 0.4375,-1.5625 0.13974,-0.0864 0.25352,-0.12909 0.375,-0.125 z m 13.1875,0 c 0.33374,-0.10356 0.60901,0.0696 0.875,0.5 0.4063,0.65741 0.19594,1.85535 -0.46875,2.65625 -2.5297,3.0481 -3.99691,1.24376 -1.625,-2 0.48513,-0.66346 0.88501,-1.05269 1.21875,-1.15625 z m -18.96875,1.625 c 0.55937,-0.06 1.34782,0.70107 1.6875,2 0.64865,2.48046 -1.4871,2.67842 -3.40625,0.3125 -0.93255,-1.14966 -0.97436,-1.44779 -0.125,-0.9375 0.6875,0.41303 1.25,0.26996 1.25,-0.3125 0,-0.6956 0.25813,-1.02652 0.59375,-1.0625 z m 9.9375,0.4375 c 0.30501,-0.005 0.92007,0.10468 1.84375,0.28125 2.62909,0.50258 2.76038,0.78097 2.15625,4.15625 -0.35606,1.9893 -1.08739,5.3125 -1.625,7.375 -0.53762,2.0625 -1.13346,3.75 -1.3125,3.75 -0.34532,0 -1.59375,-8.35623 -1.59375,-10.65625 0,-0.74824 0.675,-1.34375 1.5,-1.34375 1.98751,0 1.91003,-1.00591 -0.21875,-2.5625 -0.94586,-0.69163 -1.25835,-0.99091 -0.75,-1 z m -92.15625,0.125 c 0.52254,-0.0639 1.09805,0.59012 1.65625,2.03125 0.61826,1.59617 1.95636,4.59375 2.96875,6.65625 2.20341,4.48893 1.63438,4.62725 -3,0.78125 -2.75383,-2.28536 -3.42063,-3.50114 -3.15625,-5.71875 0.28535,-2.3935 0.85942,-3.66786 1.53125,-3.75 z m 5.21875,0.78125 c 0.14007,0.0327 0.33004,0.14254 0.53125,0.34375 0.79094,0.79095 0.76915,1.64548 0,2.96875 -0.94083,1.61862 -1.06709,1.46111 -1.09375,-1.125 -0.0166,-1.6135 0.14228,-2.2856 0.5625,-2.1875 z m 82.3125,0.59375 c 0.20855,-0.0216 0.46462,0.0584 0.71875,0.3125 0.33229,0.33229 0.38785,1.18021 0.15625,1.875 -0.33872,1.01618 -0.55747,1.01941 -1.1875,0 -0.62552,-1.01212 -0.31314,-2.12266 0.3125,-2.1875 z m -93.625,0.0625 c 0.8335,0 1.77716,0.675 2.09375,1.5 0.74335,1.93715 -0.76731,1.93715 -2.375,0 -1.01343,-1.22111 -0.95244,-1.5 0.28125,-1.5 z m -4.59375,1 c 0.65504,-0.008 1.47258,0.45 1.8125,1 0.76731,1.24152 0.42112,1.24152 -1.5,0 -0.90129,-0.58246 -1.02811,-0.9908 -0.3125,-1 z m -18.21875,0.0312 c 0.27601,0 0.63528,0.32805 1.03125,0.96875 0.33992,0.55 0.14496,1 -0.4375,1 -0.58246,0 -1.0625,-0.45 -1.0625,-1 0,-0.64069 0.19274,-0.96875 0.46875,-0.96875 z m 130.71875,1.31255 c 0.34685,-0.0347 0.51262,0.31314 0.65625,1.03125 0.38299,1.91471 2.15625,2.20028 2.15625,0.34375 0,-0.70714 0.85187,-1.28125 1.875,-1.28125 1.62507,0 1.74024,0.40519 0.9375,3.3125 -0.98083,3.55229 -4.61119,10.25 -5.5625,10.25 -0.31486,0 -1.49469,-0.7875 -2.59375,-1.75 -1.90315,-1.66667 -1.95153,-1.66667 -1.34375,0 0.35338,0.96902 0.1508,1.75 -0.4375,1.75 -1.98831,0 0.0723,-10.3168 2.46875,-12.375 0.96542,-0.82917 1.4969,-1.24652 1.84375,-1.28125 z m 13.71875,0.9375 c 1.14512,-0.0942 1.03495,0.63642 0.5625,3.4375 -0.4156,2.464 -1.71358,4.73957 -3.75,6.53125 -5.28408,4.64903 -6.64315,3.14902 -3.5625,-3.90625 2.51354,-5.75648 1.7704,-4.93703 5.15625,-5.75 0.6916,-0.16605 1.21204,-0.28109 1.59375,-0.3125 z m -31.46875,0.0312 c 0.19692,5e-5 0.5944,0.12083 1.1875,0.34375 2.59915,0.97693 4.3058,3.40181 4.34375,6.125 0.0175,1.25516 0.68576,3.81355 1.46875,5.6875 1.29957,3.11029 1.27777,3.35524 -0.25,2.8125 -0.92048,-0.32699 -2.14012,-0.96464 -2.71875,-1.40625 -1.21223,-0.92518 -5.46875,-0.0218 -5.46875,1.15625 0,0.43436 -0.974,0.52791 -2.15625,0.21875 -1.31155,-0.34298 -2.57317,0.0119 -3.25,0.9375 -0.80545,1.10152 -1.74312,1.28305 -3.4375,0.65625 -1.28345,-0.47478 -2.75175,-0.58918 -3.25,-0.28125 -0.49824,0.30793 -1.90166,-0.14313 -3.125,-1 -2.48883,-1.74324 -5.78125,-2.08607 -5.78125,-0.59375 0,0.62815 -0.88299,0.64604 -2.5,0.0312 -1.38079,-0.52497 -3.90669,-0.79018 -5.59375,-0.59375 -1.8882,0.21985 -2.69675,-0.022 -2.125,-0.59375 1.17635,-1.17634 4.10862,-1.37861 6.875,-0.46875 1.32693,0.43642 2.65586,0.18788 3.5,-0.65625 0.75036,-0.75036 1.91116,-1.16504 2.59375,-0.9375 0.68259,0.22753 1.25,-0.0777 1.25,-0.65625 0,-0.57857 0.675,-0.78533 1.5,-0.46875 0.825,0.31658 1.5,0.0476 1.5,-0.59375 0,-0.6413 0.43489,-0.89245 0.96875,-0.5625 0.53388,0.32995 1.27425,-0.54 1.625,-1.9375 0.35075,-1.39749 1.0709,-2.53125 1.59375,-2.53125 0.52283,0 0.6226,0.49088 0.25,1.09375 -0.42243,0.6835 0.0224,0.95729 1.1875,0.71875 1.02764,-0.21039 2.37521,0.25409 2.96875,1.03125 0.911,1.19283 1.45639,1.1947 3.5,0.0625 1.33145,-0.73764 2.86379,-1.35551 3.40625,-1.375 1.52134,-0.0547 1.80699,-3.44361 0.4375,-5.09375 -0.63969,-0.77078 -0.82821,-1.12508 -0.5,-1.125 z m 45.1875,5.0625 c -0.35859,0.0159 -0.625,0.41941 -0.625,1.0625 0,0.85746 0.45,1.5625 1,1.5625 1.29391,0 1.29391,-1.70032 0,-2.5 -0.1375,-0.085 -0.25547,-0.13029 -0.375,-0.125 z m -46.15625,1.65625 c -0.27601,0 -0.46875,0.32805 -0.46875,0.96875 0,0.55 0.48004,1 1.0625,1 0.58246,0 0.77742,-0.45 0.4375,-1 -0.39597,-0.64069 -0.75524,-0.96875 -1.03125,-0.96875 z m -35.59375,2.96875 c 1.44619,0 1.74632,0.55758 1.375,2.5 -0.69425,3.63174 -3.25,3.08689 -3.25,-0.6875 0,-1.12114 0.73674,-1.8125 1.875,-1.8125 z m -4.15625,1.28125 c 0.17847,0.0346 0.28546,0.18377 0.28125,0.40625 -0.008,0.44496 -0.46684,1.4875 -1,2.3125 -0.8354,1.29268 -0.95555,1.26978 -0.96875,-0.1875 -0.008,-0.93004 0.41875,-1.97258 0.96875,-2.3125 0.275,-0.16996 0.54028,-0.25336 0.71875,-0.21875 z m -7.40625,0.75 c 0.39592,0.0308 0.83228,0.34343 1.21875,0.96875 0.34546,0.55897 1.01925,0.75393 1.53125,0.4375 0.51199,-0.31643 0.9375,0.33265 0.9375,1.40625 0,1.07362 -0.69251,2.1974 -1.5625,2.53125 -1.90448,0.73082 -1.676,0.75318 -3.15625,-0.1875 -0.68243,-0.43367 -0.95092,-1.72243 -0.625,-2.96875 0.38548,-1.47407 0.99638,-2.23881 1.65625,-2.1875 z m -10.28125,6.96875 c 0.0843,-0.038 0.54374,0.29025 1.46875,0.96875 1.1,0.80687 2.20833,1.59437 2.4375,1.75 0.22916,0.15563 -0.0819,0.28125 -0.65625,0.28125 -0.57432,0 -1.6514,-0.7875 -2.40625,-1.75 -0.63475,-0.80938 -0.92808,-1.21198 -0.84375,-1.25 z m -74.5,4 c 0.80774,0 1.46875,0.675 1.46875,1.5 0,1.9412 -1.59884,1.9412 -2.34375,0 -0.35062,-0.91371 -0.0196,-1.5 0.875,-1.5 z m 66.218754,0 c 0.55,0 1.50437,0.57109 2.09375,1.28125 0.79576,0.95883 0.57242,1.59607 -0.875,2.5 -1.17233,0.73214 -1.968754,0.8253 -1.968754,0.21875 0,-0.55466 0.507654,-1 1.125004,-1 0.7755,0 0.7351,-0.46364 -0.125,-1.5 -0.69443,-0.83674 -0.807834,-1.5 -0.25,-1.5 z M 77.1561,89.001827 c 0.1308,-0.0992 0.53334,0.25403 1.3125,1 1.07299,1.02729 1.58169,2.78917 1.375,4.84375 l -0.34375,3.21875 -3,-3.1875 c -2.83107,-3.01736 -2.87271,-3.17707 -0.65625,-2.5 2.10839,0.64407 2.29005,0.48338 1.65625,-1.625 -0.32723,-1.08855 -0.47454,-1.65085 -0.34375,-1.75 z m 11.78125,0.2813 c 0.19866,-0.0237 0.48927,0.0106 0.84375,0.0625 0.95523,0.13973 1.88468,0.99571 2.0625,1.90625 0.44342,2.27045 -1.52638,2.09474 -2.78125,-0.25 -0.62575,-1.16923 -0.72098,-1.64768 -0.125,-1.71875 z m -24.65625,0.71875 c 0.0843,-0.0843 0.34994,0.13487 0.84375,0.625 0.68342,0.67833 0.99539,1.50461 0.6875,1.8125 -0.30789,0.30789 -0.87447,-0.26377 -1.25,-1.25 -0.27134,-0.7126 -0.36558,-1.10317 -0.28125,-1.1875 z m 17.875,0.28125 c 0.30619,-0.10236 0.70642,0.0801 1.25,0.53125 0.60061,0.49846 1.54375,0.92719 2.09375,0.9375 0.55,0.0103 1.62042,0.95728 2.375,2.09375 1.20381,1.81303 1.16246,2.0625 -0.3125,2.0625 -0.92454,0 -1.43501,0.36146 -1.15625,0.8125 0.27876,0.45104 0.70147,2.02604 0.96875,3.499993 0.56316,3.10563 -0.0698,3.29891 -2.96875,0.875 -1.24073,-1.03741 -2.29379,-3.436883 -2.625,-5.906243 -0.41206,-3.07215 -0.29861,-4.68105 0.375,-4.90625 z m -12.53125,1.65625 c 0.62016,-0.0175 1.69031,0.64375 2.375,1.46875 1.58079,1.90473 0.93117,1.91736 -1.5625,0.0312 -1.06762,-0.80751 -1.43265,-1.48251 -0.8125,-1.5 z m -9.28125,0.15625 c 0.20614,0.0261 0.48497,0.23497 0.84375,0.59375 0.65084,0.65083 0.94042,1.40334 0.65625,1.6875 -0.66739,0.66739 -1.84375,-0.50897 -1.84375,-1.84375 0,-0.3133 0.13761,-0.46363 0.34375,-0.4375 z m -12.0625,0.875 c 0.2558,0.0171 0.80805,0.17674 1.71875,0.4375 1.375,0.39371 2.94625,1.10556 3.46875,1.59375 1.68699,1.57619 -1.86178,0.90567 -3.96875,-0.75 -1.21426,-0.95419 -1.64508,-1.30966 -1.21875,-1.28125 z m 137.8125,2.9375 c 0.59622,0 -0.31697,1.77306 -2.03125,3.9375 -1.97523,2.493933 -3.86143,3.878783 -5.15625,3.781243 -2.33224,-0.17568 -2.55938,-0.45932 -2.46875,-3.21875 0.0424,-1.290903 0.88191,-2.104983 2.34375,-2.312493 1.24566,-0.17682 2.00312,-0.73932 1.6875,-1.25 -0.75163,-1.21616 0.19557,-1.18973 2.59375,0.0937 1.33333,0.71358 1.9375,0.71357 1.9375,0 0,-0.56935 0.49753,-1.03125 1.09375,-1.03125 z m -17.09375,2 c 0.55,0 1,0.45 1,1 0,0.55 -0.45,1 -1,1 -0.55,0 -1,-0.45 -1,-1 0,-0.55 0.45,-1 1,-1 z m 29.4375,2.999993 c -0.85746,0 -1.25172,0.44103 -0.90625,1 0.34546,0.55897 1.01926,0.75394 1.53125,0.4375 1.38704,-0.85723 1.13153,-1.4375 -0.625,-1.4375 z m -100.999996,1.25 c 0.24983,0.0148 0.56273,0.36753 1.09375,1.09375 0.86053,1.17684 2.057856,1.49468 4.218746,1.0625 1.74761,-0.34952 3.29748,-0.16231 3.6875,0.46875 0.41752,0.67557 0.10281,0.86323 -0.84375,0.5 -3.09517,-1.18773 -5.620246,4.61391 -3.125,7.1875 1.81422,1.87118 4.74847,2.51211 6.15625,1.34375 1.14043,-0.94648 1.26575,-0.33361 0.78125,3.71875 -0.32026,2.67864 -0.75773,5.4375 -0.96875,6.125 -0.56777,1.84981 -2.22994,1.51045 -3.40625,-0.6875 -0.76937,-1.43758 -0.64533,-2.29217 0.4375,-3.375 1.2722,-1.27221 1.21779,-1.64933 -0.34375,-3.0625 -1.9815,-1.79323 -3.58551,-2.17913 -2.625,-0.625 0.33992,0.55 0.36207,1 0.0312,1 -1.20263,0 -6.3548,-12.25537 -5.781246,-13.75 0.2607,-0.67936 0.43767,-1.01479 0.6875,-1 z m -5.500004,1.75 c 0.58246,0 1.0625,0.45 1.0625,1 0,1.28138 -0.70806,1.28138 -1.5,0 -0.33992,-0.55 -0.14496,-1 0.4375,-1 z m 26.59375,8.21875 c 0.2084,-3e-4 0.45009,0.003 0.71875,0.0312 3.23752,0.34276 3.81991,1.74237 1.6875,4.03125 -1.4026,1.50551 -1.5933,2.4432 -0.84375,3.84375 1.14881,2.14656 2.5335,2.42069 3.28125,0.625 0.61369,-1.47378 3.86749,2.05379 3.34375,3.625 -0.45403,1.3621 -4.94851,1.57843 -6.53125,0.3125 -0.96371,-0.77081 -1.58985,-0.66827 -2.25,0.375 -0.59385,0.93848 -0.89624,-1.08109 -0.90625,-5.8125 -0.0128,-6.04986 0.0412,-7.02917 1.5,-7.03125 z m 40.34375,0.78125 c 0.61734,0 1.125,0.43924 1.125,1 0,0.56075 1.15164,0.81835 2.5625,0.5625 1.52891,-0.27724 2.42748,-0.0324 2.21875,0.59375 -0.53148,1.59443 -7.26187,3.61712 -11.25,3.375 -1.94622,-0.11816 -3.53125,0.13465 -3.53125,0.59375 0,0.45911 -1.10214,0.76676 -2.4375,0.65625 -2.47752,-0.20505 -2.56014,-1.78125 -0.0937,-1.78125 0.74671,0 1.57764,-0.5625 1.8125,-1.25 0.33416,-0.97814 1.09265,-1.00393 3.5625,-0.0937 2.67641,0.98629 3.15625,0.9271 3.15625,-0.375 0,-1.2624 0.27823,-1.32117 1.53125,-0.28125 1.97921,1.6426 3.14259,0.51046 1.5,-1.46875 -0.86505,-1.04232 -0.92385,-1.53125 -0.15625,-1.53125 z m 11.9375,3 c 0.26339,-0.0728 0.5201,-0.0111 0.71875,0.1875 0.2085,0.20851 -0.0174,0.9572 -0.46875,1.6875 -0.53135,0.85973 -1.02226,0.95312 -1.4375,0.28125 -0.45787,-0.74083 0.39732,-1.93783 1.1875,-2.15625 z m -32.5625,1.25 c 0.14856,-0.11306 0.38553,0.20513 0.8125,0.9375 0.61765,1.05943 1.64997,1.47734 2.71875,1.09375 1.2896,-0.46285 1.10934,0.13508 -0.75,2.3125 -4.26199,4.99108 -4.3389,5.02277 -3.6875,2.40625 0.34232,-1.375 0.66326,-3.625 0.6875,-5 0.0189,-1.07168 0.0702,-1.63694 0.21875,-1.75 z m -104.25,1.84375 c 0.33095,0 0.67619,0.1762 1,0.5 0.64762,0.64762 0.29524,0.96875 -1,0.96875 -1.29524,0 -1.61637,-0.32113 -0.96875,-0.96875 0.32381,-0.3238 0.6378,-0.5 0.96875,-0.5 z m 99.96875,0.40625 c 0.16591,0.0135 0.36996,0.0584 0.625,0.15625 1.10365,0.42351 1.32691,1.42184 0.84375,3.71875 -0.36132,1.71777 -0.9267,3.42118 -1.28125,3.78125 -1.2407,1.25993 -5.15625,-2.39213 -5.15625,-4.8125 0,-2.07599 0.27353,-2.26552 1.9375,-1.375 2.63968,1.41271 3.37644,1.2764 2.71875,-0.4375 -0.28351,-0.73882 -0.18523,-1.07159 0.3125,-1.03125 z m 72.125,1.625 c 0.3474,-0.0143 0.73281,0.0431 1.09375,0.1875 0.79773,0.31922 0.5712,0.54577 -0.59375,0.59375 -1.05416,0.0434 -1.64479,-0.19895 -1.3125,-0.53125 0.16615,-0.16614 0.4651,-0.23569 0.8125,-0.25 z m -106.718746,0.125 c 0.14254,-0.0407 0.51453,0.22804 1.218746,0.8125 0.9336,0.77481 1.16495,1.51794 0.5625,1.71875 -0.57941,0.19313 -0.77203,1.0657 -0.4375,1.9375 0.49834,1.29865 0.12661,1.44012 -2.124996,0.875 -1.62276,-0.40728 -2.528134,-0.30115 -2.1875,0.25 0.31728,0.51338 -0.474254,1.20321 -1.781254,1.53125 -3.07809,0.77256 -8.94866,6.26103 -8.125,7.59375 0.34933,0.56522 0.19373,1.03125 -0.34375,1.03125 -0.53747,0 -1.69252,0.25989 -2.5625,0.59375 -2.21143,0.8486 -2.04247,-1.67347 0.53125,-7.65625 1.16773,-2.71446 2.77277,-4.9375 3.5625,-4.9375 0.88255,0 1.14908,-0.48169 0.6875,-1.25 -0.46932,-0.78118 -0.10501,-0.70973 1,0.1875 1.14596,0.93048 2.03207,1.06952 2.46875,0.40625 0.94973,-1.44254 5.046544,-2.33766 5.718754,-1.25 0.9818,1.58859 2.686336,0.95716 2.03125,-0.75 -0.27171,-0.70806 -0.36129,-1.05301 -0.21875,-1.09375 z m 45.281246,0.0625 c 0.93238,0.004 0.88249,1.34467 -0.59375,2.625 -1.12729,0.97769 -2.0625,2.3145 -2.0625,2.9375 0,0.62298 -0.4849,1.125 -1.09375,1.125 -0.60884,0 -0.84784,0.675 -0.53125,1.5 0.64071,1.66966 -0.89801,2.08076 -1.875,0.5 -0.60387,-0.97709 2.88733,-6.80712 4.90625,-8.1875 0.51466,-0.35188 0.93921,-0.50137 1.25,-0.5 z m -61.75,3.6875 c 0.49851,0 0.66265,0.9 0.375,2 -0.67047,2.56389 -1.28125,2.56389 -1.28125,0 0,-1.1 0.40774,-2 0.90625,-2 z m -5.5,1.25 c 0.16907,-0.007 0.39061,0.14061 0.6875,0.4375 0.60158,0.60158 0.93908,1.84849 0.75,2.78125 -0.44533,2.19688 -1.84375,0.8 -1.84375,-1.84375 0,-0.91986 0.12446,-1.36292 0.40625,-1.375 z m -40.53125,0.75 c -0.55,0 -0.71492,0.45 -0.375,1 0.33992,0.55 1.075,1 1.625,1 0.55,0 0.71492,-0.45 0.375,-1 -0.33992,-0.55 -1.075,-1 -1.625,-1 z m 160.40625,13.03125 c 0.44031,0.036 0.8349,0.33574 1.1875,0.90625 0.32287,0.5224 -0.29575,1.4224 -1.375,2 -2.83656,1.51808 -3.30162,1.31943 -2.09375,-0.9375 0.72089,-1.34699 1.5474,-2.02878 2.28125,-1.96875 z m 14.09375,0.15625 c 0.0682,-0.0251 0.16692,-0.0206 0.25,0.0625 0.33229,0.3323 0.35137,1.21562 0.0625,1.9375 -0.31922,0.79773 -0.54577,0.53994 -0.59375,-0.625 -0.0326,-0.79062 0.0766,-1.29966 0.28125,-1.375 z m -23.71875,1 c 0.14353,-0.0867 0.24817,0.20084 0.28125,0.84375 0.0434,0.84392 -1.31185,2.34654 -3,3.34375 -3.06316,1.80945 -3.05727,1.81201 -1.75,-0.28125 0.72046,-1.15364 1.82189,-2.09375 2.46875,-2.09375 0.64687,0 1.41009,-0.5625 1.6875,-1.25 0.1268,-0.31425 0.22638,-0.51047 0.3125,-0.5625 z m -14.90625,3.0625 c 0.27657,0.005 0.60257,0.11268 1,0.28125 0.9625,0.40827 2.83262,0.66914 4.15625,0.59375 2.38512,-0.13585 2.38957,-0.12353 0.5,1.96875 -1.04862,1.1611 -4.55332,3.46296 -7.78125,5.09375 l -5.84375,2.96875 3.34375,-4.09375 c 2.61681,-3.17481 3.87734,-3.97572 5.625,-3.5625 1.2375,0.29257 2.25,0.0605 2.25,-0.5 0,-0.93671 -1.40567,-1.41622 -3.25,-1.125 -0.4125,0.0651 -0.75,-0.39115 -0.75,-1 0,-0.41899 0.28905,-0.63369 0.75,-0.625 z m -5.90625,3.9375 c 0.0978,0.0157 0.15309,0.12889 0.15625,0.34375 0.0237,1.61451 -8.22337,9.16224 -10.75,9.84375 -1.24009,0.33448 -3.15259,0.87586 -4.25,1.1875 -1.09742,0.31163 -2,0.16944 -2,-0.3125 0,-1.39423 2.93346,-4.88341 2.96875,-3.53125 0.0182,0.69586 0.72244,0.94008 1.625,0.59375 0.9951,-0.38186 1.39062,-1.33904 1.0625,-2.59375 -0.28724,-1.09843 0.17707,-2.67708 1.03125,-3.53125 1.3997,-1.39969 1.6193,-1.39286 2.46875,0.125 1.14276,2.04201 3.01721,2.24932 2.25,0.25 -0.40551,-1.05671 0.01,-1.26616 1.625,-0.84375 1.31309,0.34338 2.53136,-0.005 3.0625,-0.84375 0.3033,-0.47898 0.58695,-0.71368 0.75,-0.6875 z m -155.875,3.78125 c 0.22319,-0.11033 0.86927,0.24427 1.84375,1.21875 0.93333,0.93333 1.1875,0.90357 1.1875,-0.125 0,-1.06213 0.29527,-1.06234 1.5,-0.0625 0.825,0.68469 1.5,1.57617 1.5,2 0,1.91308 -2.78671,1.54407 -4.71875,-0.625 -1.20786,-1.35604 -1.59946,-2.2644 -1.3125,-2.40625 z m 56.03125,0.0312 c 1.37954,0 1.26868,2.32508 -0.1875,3.78125 -0.93333,0.93333 -0.90356,1.21875 0.125,1.21875 1.04445,0 1.04823,0.28741 0.0937,1.4375 -1.26086,1.51925 -0.63084,3.5625 1.09375,3.5625 0.55,0 0.71492,-0.45 0.375,-1 -0.33992,-0.55 -0.14496,-1 0.4375,-1 0.58246,0 1.0625,0.43953 1.0625,1 0,1.28365 5.23412,0.10925 6.25,-1.40625 0.45162,-0.67375 0.74058,-0.41951 0.75,0.65625 0.0216,2.46956 1.66565,2.18682 2.34375,-0.40625 0.47809,-1.82819 0.81529,-1.9932 2.125,-0.90625 0.85284,0.7078 1.53125,2.15485 1.53125,3.1875 0,1.75719 -1.66666,2.29896 -6.65625,2.15625 -0.64499,-0.0184 -1.43927,0.9807 -1.75,2.21875 -0.61472,2.44924 -4.30643,3.12667 -6.125,1.125 -3.73562,-4.11173 -5.60032,-7.92013 -5.03125,-10.1875 0.33932,-1.35198 1.05423,-2.4375 1.59375,-2.4375 0.53952,0 0.96875,-0.675 0.96875,-1.5 0,-0.825 0.45,-1.5 1,-1.5 z m 67.625,3.0625 c 0.62015,-0.0434 1.69031,0.6125 2.375,1.4375 1.68853,2.03455 5.97295,1.8947 7.65625,-0.25 0.77686,-0.9898 0.46731,0.63919 -0.71875,3.75 -2.47974,6.50387 -2.64383,6.69992 -4.09375,5.25 -1.4069,-1.4069 -5.84375,1.22259 -5.84375,3.46875 0,1.06523 -0.36669,1.22809 -1.25,0.53125 -1.97389,-1.55722 -4.67643,-1.09782 -5.3125,0.90625 -0.32003,1.00833 -1.01711,1.84375 -1.5625,1.84375 -0.5454,0 -0.71492,0.45 -0.375,1 0.33992,0.55 -0.10221,1 -1,1 -0.89778,0 -1.4747,-0.5625 -1.28125,-1.25 1.1894,-4.22718 5.13,-16.33146 5.4375,-16.6875 0.20283,-0.23485 1.08363,0.44015 1.9375,1.5 1.04706,1.29965 1.69282,1.55516 2.03125,0.75 0.27598,-0.65661 1.14803,-0.95921 1.9375,-0.65625 0.78946,0.30294 1.4375,0.0943 1.4375,-0.46875 0,-0.56301 -0.5625,-1.25385 -1.25,-1.53125 -0.78542,-0.31692 -0.83349,-0.54415 -0.125,-0.59375 z m -29.34375,1.3125 c 0.0947,-0.0409 0.27788,0.13968 0.53125,0.5 0.56302,0.80066 1.51254,1.04953 2.25,0.59375 0.94647,-0.58495 1.1051,-0.1693 0.625,1.625 -0.35413,1.3235 -0.64874,4.31875 -0.65625,6.65625 -0.0163,5.06629 -1.15831,5.29986 -5,1.09375 -1.79864,-1.96926 -3.432046,-2.90509 -4.406246,-2.53125 -0.90059,0.34559 -1.97746,-0.13356 -2.562504,-1.125 -0.68158,-1.15505 -1.26183,-1.33659 -1.78125,-0.59375 -1.75596,2.5112 -7.28125,0.68774 -7.28125,-2.40625 0,-1.26718 0.32215,-1.19304 1.59375,0.375 0.86578,1.06762 1.28575,1.375 0.9375,0.6875 -0.85545,-1.68881 1.98575,-1.62469 8.062504,0.21875 6.134536,1.86097 6.406246,1.87586 6.406246,-0.0312 0,-0.85746 0.45921,-1.2598 1.03125,-0.90625 0.67655,0.41813 0.84142,-0.37545 0.4375,-2.21875 -0.27059,-1.23485 -0.34528,-1.8693 -0.1875,-1.9375 z m 13.6875,0.9375 c 0.31327,-0.0382 0.73039,0.0807 1.28125,0.25 1.2375,0.38039 2.41717,0.84592 2.625,1.03125 0.20782,0.18533 -0.77267,3.39115 -2.1875,7.125 l -2.5625,6.78125 -0.0625,-7.8125 c -0.0407,-5.74168 -0.0336,-7.2604 0.90625,-7.375 z m 18,0.90625 c -1.05634,0.0423 -1.96091,0.94631 -1.40625,1.84375 0.31643,0.51199 0.95242,0.9375 1.4375,0.9375 1.40048,0 2.14961,-1.80881 1.03125,-2.5 -0.33299,-0.2058 -0.71039,-0.29534 -1.0625,-0.28125 z m -113.5,0.8125 c 0.27601,0 0.63528,0.32806 1.03125,0.96875 0.33992,0.55 0.14496,1 -0.4375,1 -0.58246,0 -1.0625,-0.45 -1.0625,-1 0,-0.64069 0.19274,-0.96875 0.46875,-0.96875 z m 33.8125,1.0625 c 0.0888,-0.0749 0.37017,0.15512 0.875,0.65625 1.62766,1.61571 3.16217,1.61571 2.34375,0 -0.34825,-0.6875 0.0908,-0.36547 0.96875,0.71875 0.87792,1.08421 1.34963,2.59548 1.0625,3.34375 -0.28714,0.74827 -0.53125,1.81114 -0.53125,2.375 0,0.56386 -0.64804,0.77168 -1.4375,0.46875 -0.78947,-0.30295 -1.57697,-0.16837 -1.75,0.3125 -0.17304,0.48086 -1.54717,-0.0153 -3.0625,-1.125 -2.99672,-2.19453 -2.79971,-3.84375 0.4375,-3.84375 1.53758,0 1.8752,-0.43613 1.375,-1.75 -0.26709,-0.70158 -0.37007,-1.08136 -0.28125,-1.15625 z m -28.28125,4.90625 c -0.55,0 -1,0.45 -1,1 0,0.55 0.45,1 1,1 0.55,0 1,-0.45 1,-1 0,-0.55 -0.45,-1 -1,-1 z m 34.28125,0.0937 c 0.0843,-0.0843 0.34994,0.13487 0.84375,0.625 0.68342,0.67834 0.99539,1.50461 0.6875,1.8125 -0.30789,0.30789 -0.87447,-0.26377 -1.25,-1.25 -0.27134,-0.7126 -0.36558,-1.10317 -0.28125,-1.1875 z m 80.65625,15.40625 0.0312,2.6875 c 0.0174,1.47322 -0.57589,3.26338 -1.3125,4 -0.7366,0.73661 -1.51265,1.91295 -1.75,2.625 -0.23735,0.71205 -0.75521,0.96354 -1.15625,0.5625 -1.41356,-1.41356 -0.72217,-4.28796 1.71875,-7.0625 l 2.46875,-2.8125 z m 3.5625,0.0625 c 0.28287,-0.0322 0.53283,0.3938 0.78125,1.34375 0.29982,1.14649 0.15356,2.09375 -0.3125,2.09375 -1.36217,0 -1.89186,-1.4825 -1.03125,-2.875 0.21745,-0.35184 0.39278,-0.54319 0.5625,-0.5625 z m -49.281246,0.75 c 0.15178,0.006 0.64724,0.27889 1.53125,0.8125 1.237496,0.74698 2.249996,1.70731 2.249996,2.125 0,0.4177 0.675,0.75 1.5,0.75 0.825,0 1.44013,-0.3375 1.375,-0.75 -0.43692,-2.76718 0.23373,-3.52446 1.53125,-1.75 1.57037,2.14761 1.03454,13.5369 -0.6875,14.65625 -0.5492,0.35699 -0.71288,1.36949 -0.375,2.25 0.33788,0.8805 0.15773,1.59375 -0.375,1.59375 -1.42152,0 -1.1825,2.76226 0.28125,3.25 0.6875,0.22909 1.28694,1.59576 1.3125,3.0625 0.0677,3.8863 -1.05357,3.27542 -2.4375,-1.34375 -0.66287,-2.21246 -2.98155,-7.69048 -5.156246,-12.1875 -2.52206,-5.2153 -3.611414,-8.54485 -3.000004,-9.15625 0.611424,-0.61142 1.516194,-0.47275 2.500004,0.34375 1.2669,1.05143 1.53125,1.01213 1.53125,-0.15625 0,-0.78234 -0.5625,-2.02533 -1.25,-2.75 -0.49112,-0.51769 -0.68303,-0.75616 -0.53125,-0.75 z m 25.718746,0.0939 c 0.8344,-0.002 1.91455,0.0462 3.28125,0.125 3.31442,0.19119 6.21711,0.56085 6.46875,0.8125 0.25165,0.25165 -0.22913,1.79468 -1.0625,3.40625 -1.06338,2.05634 -2.18562,2.86756 -3.78125,2.75 -1.25051,-0.0921 -3.31207,0.87458 -4.59375,2.15625 -1.28167,1.28167 -2.46666,2.34375 -2.625,2.34375 -1.59663,0 -2.1461,-5.38451 -1,-9.65625 0.39212,-1.46153 0.8093,-1.93219 3.3125,-1.9375 z m -37.1875,3.5937 c 1.81447,0 5.39822,4.84853 7.34375,9.96875 1.1,2.89497 1.87986,5.4068 1.71875,5.5625 -0.39334,0.38013 -7.06333,-5.57477 -8.75,-7.8125 -1.14854,-1.52378 -1.09874,-1.96202 0.40625,-3.0625 1.64855,-1.20545 1.63893,-1.39233 0.0625,-2.96875 -0.92528,-0.92528 -1.27467,-1.6875 -0.78125,-1.6875 z m 77.59375,1.34375 c 0.25262,0.0421 0.14578,0.23989 -0.34375,0.53125 -2.43533,1.44947 -6.64601,2.50187 -5.5,1.375 0.55,-0.5408 2.35,-1.27142 4,-1.625 0.97907,-0.20979 1.59113,-0.32334 1.84375,-0.28125 z m -90.0625,1.03125 c 0.29967,-4.3e-4 0.56436,0.3399 0.96875,1.0625 0.48761,0.87133 1.29242,1.32144 1.8125,1 0.52008,-0.32143 1.23254,0.14014 1.5625,1 0.32996,0.85986 1.05184,1.5625 1.59375,1.5625 0.5419,0 2.10158,0.9 3.5,2 3.14767,2.47596 2.24615,2.46376 -4.40625,-0.0937 -3.6884,-1.418 -5.05074,-2.4407 -4.65625,-3.46875 0.30584,-0.79701 0.0776,-1.4375 -0.53125,-1.4375 -0.60885,0 -1.125,0.51459 -1.125,1.15625 0,0.64166 -0.27163,0.88463 -0.625,0.53125 -0.35338,-0.35337 -0.0683,-1.3457 0.65625,-2.21875 0.6009,-0.72404 0.95033,-1.09332 1.25,-1.09375 z m 71.0625,0.125 c 0.3602,-0.0759 1.06772,0.0668 2.125,0.46875 1.35553,0.51537 2.6874,0.58023 2.96875,0.125 0.28135,-0.45523 1.69949,-0.59098 3.15625,-0.3125 2.28431,0.43667 2.41233,0.61214 0.9375,1.4375 -2.63281,1.47339 -6.05154,1.58334 -7.875,0.25 -1.52156,-1.11259 -1.91283,-1.84224 -1.3125,-1.96875 z m -123.875,1.53125 c -0.27601,0 -0.46875,0.32806 -0.46875,0.96875 0,0.55 0.48004,1 1.0625,1 0.58246,0 0.77742,-0.45 0.4375,-1 -0.39597,-0.64069 -0.75524,-0.96875 -1.03125,-0.96875 z m 42.9375,0.3125 c 0.25172,0.0293 0.61319,0.25209 1.0625,0.625 0.80091,0.66469 1.90141,0.92506 2.4375,0.59375 0.53608,-0.33132 1.24828,-0.15273 1.59375,0.40625 0.34546,0.55897 -0.19254,0.98092 -1.1875,0.9375 -2.63613,-0.11504 -4.3125,-0.93891 -4.3125,-2.125 0,-0.32063 0.15453,-0.46679 0.40625,-0.4375 z m 72.84375,14.1875 c 0.27026,0.0162 0.73437,0.29687 1.25,0.8125 2.13288,2.13288 1.8579,3.31077 -0.75,3.21875 -1.58095,-0.0558 -2.34466,0.56384 -2.5625,2.09375 -0.17052,1.19756 -1.04254,2.77257 -1.9375,3.5 -1.4108,1.14673 -1.53335,1.08819 -0.9375,-0.5 0.37798,-1.00748 0.6875,-2.96224 0.6875,-4.34375 0,-1.67083 0.66963,-2.68337 2,-3.03125 1.1,-0.28766 2,-0.94362 2,-1.46875 0,-0.19693 0.0878,-0.29096 0.25,-0.28125 z m -14.59375,2.1875 c 1.76401,0.0606 4.33635,1.84363 3.78125,3.28125 -0.31855,0.825 -1.47544,5.55 -2.5625,10.5 -1.08706,4.95 -2.37847,10.8 -2.875,13 -0.64673,2.86551 -0.84368,-0.12392 -0.65625,-10.53125 0.14391,-7.99023 0.58536,-15.03591 0.96875,-15.65625 0.26897,-0.4352 0.75575,-0.61396 1.34375,-0.59375 z m -35.21875,21.84375 c 0.67542,-0.008 1.8645,0.1203 3.78125,0.34375 0.39314,0.0458 1.22983,1.04038 1.84375,2.1875 0.61391,1.1471 0.96331,2.19116 0.78125,2.34375 -0.83306,0.69825 -5.47943,-1.64705 -6.5,-3.28125 -0.73039,-1.16954 -1.03195,-1.58106 0.0937,-1.59375 z m -52.15625,1.53125 c 0.0843,-0.0843 0.34994,0.13487 0.84375,0.625 0.68342,0.67834 0.99539,1.50461 0.6875,1.8125 -0.30789,0.30789 -0.87447,-0.26377 -1.25,-1.25 -0.27134,-0.7126 -0.36558,-1.10317 -0.28125,-1.1875 z m -15.40625,4.90625 c -1.2516,0 -1.06743,1.37008 0.34375,2.78125 1.60449,1.60449 1.67292,1.55301 1.0625,-0.78125 -0.28766,-1.1 -0.9204,-2 -1.40625,-2 z" />
</svg>
